<?xml version="1.0" encoding="utf-8" standalone="no"?>
<!DOCTYPE svg PUBLIC "-//W3C//DTD SVG 1.1//EN"
  "http://www.w3.org/Graphics/SVG/1.1/DTD/svg11.dtd">
<!-- Created with matplotlib (https://matplotlib.org/) -->
<svg height="217.514375pt" version="1.1" viewBox="0 0 256.345597 217.514375" width="256.345597pt" xmlns="http://www.w3.org/2000/svg" xmlns:xlink="http://www.w3.org/1999/xlink">
 <defs>
  <style type="text/css">
*{stroke-linecap:butt;stroke-linejoin:round;}
  </style>
 </defs>
 <g id="figure_1">
  <g id="patch_1">
   <path d="M -0 217.514375 
L 256.345597 217.514375 
L 256.345597 0 
L -0 0 
z
" style="fill:#ffffff;"/>
  </g>
  <g id="axes_1">
   <g id="patch_2">
    <path d="M 78.2225 170.28 
L 245.6225 170.28 
L 245.6225 7.2 
L 78.2225 7.2 
z
" style="fill:#ffffff;"/>
   </g>
   <g id="PolyCollection_1">
    <path clip-path="url(#p13d2c266ab)" d="M 85.831591 162.484302 
L 85.831591 170.28 
L 87.353409 170.28 
L 87.353409 162.484302 
L 87.353409 162.484302 
L 85.831591 162.484302 
z
" style="fill:#666666;fill-opacity:0.005;"/>
   </g>
   <g id="PolyCollection_2">
    <path clip-path="url(#p13d2c266ab)" d="M 87.353409 147.628864 
L 87.353409 170.28 
L 88.875227 170.28 
L 88.875227 147.628864 
L 88.875227 147.628864 
L 87.353409 147.628864 
z
" style="fill:#666666;fill-opacity:0.015;"/>
   </g>
   <g id="PolyCollection_3">
    <path clip-path="url(#p13d2c266ab)" d="M 88.875227 132.982402 
L 88.875227 170.28 
L 90.397045 170.28 
L 90.397045 132.982402 
L 90.397045 132.982402 
L 88.875227 132.982402 
z
" style="fill:#666666;fill-opacity:0.025;"/>
   </g>
   <g id="PolyCollection_4">
    <path clip-path="url(#p13d2c266ab)" d="M 90.397045 120.443867 
L 90.397045 170.28 
L 91.918864 170.28 
L 91.918864 120.443867 
L 91.918864 120.443867 
L 90.397045 120.443867 
z
" style="fill:#666666;fill-opacity:0.035;"/>
   </g>
   <g id="PolyCollection_5">
    <path clip-path="url(#p13d2c266ab)" d="M 91.918864 110.422125 
L 91.918864 170.28 
L 93.440682 170.28 
L 93.440682 110.422125 
L 93.440682 110.422125 
L 91.918864 110.422125 
z
" style="fill:#666666;fill-opacity:0.045;"/>
   </g>
   <g id="PolyCollection_6">
    <path clip-path="url(#p13d2c266ab)" d="M 93.440682 97.847247 
L 93.440682 170.28 
L 94.9625 170.28 
L 94.9625 97.847247 
L 94.9625 97.847247 
L 93.440682 97.847247 
z
" style="fill:#666666;fill-opacity:0.055;"/>
   </g>
   <g id="PolyCollection_7">
    <path clip-path="url(#p13d2c266ab)" d="M 94.9625 89.897089 
L 94.9625 170.28 
L 96.484318 170.28 
L 96.484318 89.897089 
L 96.484318 89.897089 
L 94.9625 89.897089 
z
" style="fill:#666666;fill-opacity:0.065;"/>
   </g>
   <g id="PolyCollection_8">
    <path clip-path="url(#p13d2c266ab)" d="M 96.484318 82.637459 
L 96.484318 170.28 
L 98.006136 170.28 
L 98.006136 82.637459 
L 98.006136 82.637459 
L 96.484318 82.637459 
z
" style="fill:#666666;fill-opacity:0.075;"/>
   </g>
   <g id="PolyCollection_9">
    <path clip-path="url(#p13d2c266ab)" d="M 98.006136 71.534495 
L 98.006136 170.28 
L 99.527955 170.28 
L 99.527955 71.534495 
L 99.527955 71.534495 
L 98.006136 71.534495 
z
" style="fill:#666666;fill-opacity:0.085;"/>
   </g>
   <g id="PolyCollection_10">
    <path clip-path="url(#p13d2c266ab)" d="M 99.527955 66.937033 
L 99.527955 170.28 
L 101.049773 170.28 
L 101.049773 66.937033 
L 101.049773 66.937033 
L 99.527955 66.937033 
z
" style="fill:#666666;fill-opacity:0.095;"/>
   </g>
   <g id="PolyCollection_11">
    <path clip-path="url(#p13d2c266ab)" d="M 101.049773 59.777347 
L 101.049773 170.28 
L 102.571591 170.28 
L 102.571591 59.777347 
L 102.571591 59.777347 
L 101.049773 59.777347 
z
" style="fill:#666666;fill-opacity:0.105;"/>
   </g>
   <g id="PolyCollection_12">
    <path clip-path="url(#p13d2c266ab)" d="M 102.571591 52.84481 
L 102.571591 170.28 
L 104.093409 170.28 
L 104.093409 52.84481 
L 104.093409 52.84481 
L 102.571591 52.84481 
z
" style="fill:#666666;fill-opacity:0.115;"/>
   </g>
   <g id="PolyCollection_13">
    <path clip-path="url(#p13d2c266ab)" d="M 104.093409 50.427962 
L 104.093409 170.28 
L 105.615227 170.28 
L 105.615227 50.427962 
L 105.615227 50.427962 
L 104.093409 50.427962 
z
" style="fill:#666666;fill-opacity:0.125;"/>
   </g>
   <g id="PolyCollection_14">
    <path clip-path="url(#p13d2c266ab)" d="M 105.615227 45.394376 
L 105.615227 170.28 
L 107.137045 170.28 
L 107.137045 45.394376 
L 107.137045 45.394376 
L 105.615227 45.394376 
z
" style="fill:#666666;fill-opacity:0.135;"/>
   </g>
   <g id="PolyCollection_15">
    <path clip-path="url(#p13d2c266ab)" d="M 107.137045 44.503958 
L 107.137045 170.28 
L 108.658864 170.28 
L 108.658864 44.503958 
L 108.658864 44.503958 
L 107.137045 44.503958 
z
" style="fill:#666666;fill-opacity:0.145;"/>
   </g>
   <g id="PolyCollection_16">
    <path clip-path="url(#p13d2c266ab)" d="M 108.658864 41.787276 
L 108.658864 170.28 
L 110.180682 170.28 
L 110.180682 41.787276 
L 110.180682 41.787276 
L 108.658864 41.787276 
z
" style="fill:#666666;fill-opacity:0.155;"/>
   </g>
   <g id="PolyCollection_17">
    <path clip-path="url(#p13d2c266ab)" d="M 110.180682 40.233588 
L 110.180682 170.28 
L 111.7025 170.28 
L 111.7025 40.233588 
L 111.7025 40.233588 
L 110.180682 40.233588 
z
" style="fill:#666666;fill-opacity:0.165;"/>
   </g>
   <g id="PolyCollection_18">
    <path clip-path="url(#p13d2c266ab)" d="M 111.7025 37.489647 
L 111.7025 170.28 
L 113.224318 170.28 
L 113.224318 37.489647 
L 113.224318 37.489647 
L 111.7025 37.489647 
z
" style="fill:#666666;fill-opacity:0.175;"/>
   </g>
   <g id="PolyCollection_19">
    <path clip-path="url(#p13d2c266ab)" d="M 113.224318 35.154573 
L 113.224318 170.28 
L 114.746136 170.28 
L 114.746136 35.154573 
L 114.746136 35.154573 
L 113.224318 35.154573 
z
" style="fill:#666666;fill-opacity:0.185;"/>
   </g>
   <g id="PolyCollection_20">
    <path clip-path="url(#p13d2c266ab)" d="M 114.746136 35.790585 
L 114.746136 170.28 
L 116.267955 170.28 
L 116.267955 35.790585 
L 116.267955 35.790585 
L 114.746136 35.790585 
z
" style="fill:#666666;fill-opacity:0.195;"/>
   </g>
   <g id="PolyCollection_21">
    <path clip-path="url(#p13d2c266ab)" d="M 116.267955 38.370979 
L 116.267955 170.28 
L 117.789773 170.28 
L 117.789773 38.370979 
L 117.789773 38.370979 
L 116.267955 38.370979 
z
" style="fill:#666666;fill-opacity:0.205;"/>
   </g>
   <g id="PolyCollection_22">
    <path clip-path="url(#p13d2c266ab)" d="M 117.789773 39.070593 
L 117.789773 170.28 
L 119.311591 170.28 
L 119.311591 39.070593 
L 119.311591 39.070593 
L 117.789773 39.070593 
z
" style="fill:#666666;fill-opacity:0.215;"/>
   </g>
   <g id="PolyCollection_23">
    <path clip-path="url(#p13d2c266ab)" d="M 119.311591 37.380617 
L 119.311591 170.28 
L 120.833409 170.28 
L 120.833409 37.380617 
L 120.833409 37.380617 
L 119.311591 37.380617 
z
" style="fill:#666666;fill-opacity:0.225;"/>
   </g>
   <g id="PolyCollection_24">
    <path clip-path="url(#p13d2c266ab)" d="M 120.833409 39.279569 
L 120.833409 170.28 
L 122.355227 170.28 
L 122.355227 39.279569 
L 122.355227 39.279569 
L 120.833409 39.279569 
z
" style="fill:#666666;fill-opacity:0.235;"/>
   </g>
   <g id="PolyCollection_25">
    <path clip-path="url(#p13d2c266ab)" d="M 122.355227 40.378962 
L 122.355227 170.28 
L 123.877045 170.28 
L 123.877045 40.378962 
L 123.877045 40.378962 
L 122.355227 40.378962 
z
" style="fill:#666666;fill-opacity:0.245;"/>
   </g>
   <g id="PolyCollection_26">
    <path clip-path="url(#p13d2c266ab)" d="M 123.877045 40.924116 
L 123.877045 170.28 
L 125.398864 170.28 
L 125.398864 40.924116 
L 125.398864 40.924116 
L 123.877045 40.924116 
z
" style="fill:#666666;fill-opacity:0.255;"/>
   </g>
   <g id="PolyCollection_27">
    <path clip-path="url(#p13d2c266ab)" d="M 125.398864 43.440909 
L 125.398864 170.28 
L 126.920682 170.28 
L 126.920682 43.440909 
L 126.920682 43.440909 
L 125.398864 43.440909 
z
" style="fill:#666666;fill-opacity:0.265;"/>
   </g>
   <g id="PolyCollection_28">
    <path clip-path="url(#p13d2c266ab)" d="M 126.920682 45.639695 
L 126.920682 170.28 
L 128.4425 170.28 
L 128.4425 45.639695 
L 128.4425 45.639695 
L 126.920682 45.639695 
z
" style="fill:#666666;fill-opacity:0.275;"/>
   </g>
   <g id="PolyCollection_29">
    <path clip-path="url(#p13d2c266ab)" d="M 128.4425 48.847016 
L 128.4425 170.28 
L 129.964318 170.28 
L 129.964318 48.847016 
L 129.964318 48.847016 
L 128.4425 48.847016 
z
" style="fill:#666666;fill-opacity:0.285;"/>
   </g>
   <g id="PolyCollection_30">
    <path clip-path="url(#p13d2c266ab)" d="M 129.964318 49.682918 
L 129.964318 170.28 
L 131.486136 170.28 
L 131.486136 49.682918 
L 131.486136 49.682918 
L 129.964318 49.682918 
z
" style="fill:#666666;fill-opacity:0.295;"/>
   </g>
   <g id="PolyCollection_31">
    <path clip-path="url(#p13d2c266ab)" d="M 131.486136 54.298553 
L 131.486136 170.28 
L 133.007955 170.28 
L 133.007955 54.298553 
L 133.007955 54.298553 
L 131.486136 54.298553 
z
" style="fill:#666666;fill-opacity:0.305;"/>
   </g>
   <g id="PolyCollection_32">
    <path clip-path="url(#p13d2c266ab)" d="M 133.007955 59.277623 
L 133.007955 170.28 
L 134.529773 170.28 
L 134.529773 59.277623 
L 134.529773 59.277623 
L 133.007955 59.277623 
z
" style="fill:#666666;fill-opacity:0.315;"/>
   </g>
   <g id="PolyCollection_33">
    <path clip-path="url(#p13d2c266ab)" d="M 134.529773 60.195299 
L 134.529773 170.28 
L 136.051591 170.28 
L 136.051591 60.195299 
L 136.051591 60.195299 
L 134.529773 60.195299 
z
" style="fill:#666666;fill-opacity:0.325;"/>
   </g>
   <g id="PolyCollection_34">
    <path clip-path="url(#p13d2c266ab)" d="M 136.051591 62.548545 
L 136.051591 170.28 
L 137.573409 170.28 
L 137.573409 62.548545 
L 137.573409 62.548545 
L 136.051591 62.548545 
z
" style="fill:#666666;fill-opacity:0.335;"/>
   </g>
   <g id="PolyCollection_35">
    <path clip-path="url(#p13d2c266ab)" d="M 137.573409 65.837639 
L 137.573409 170.28 
L 139.095227 170.28 
L 139.095227 65.837639 
L 139.095227 65.837639 
L 137.573409 65.837639 
z
" style="fill:#666666;fill-opacity:0.345;"/>
   </g>
   <g id="PolyCollection_36">
    <path clip-path="url(#p13d2c266ab)" d="M 139.095227 70.053494 
L 139.095227 170.28 
L 140.617045 170.28 
L 140.617045 70.053494 
L 140.617045 70.053494 
L 139.095227 70.053494 
z
" style="fill:#666666;fill-opacity:0.355;"/>
   </g>
   <g id="PolyCollection_37">
    <path clip-path="url(#p13d2c266ab)" d="M 140.617045 72.724748 
L 140.617045 170.28 
L 142.138864 170.28 
L 142.138864 72.724748 
L 142.138864 72.724748 
L 140.617045 72.724748 
z
" style="fill:#666666;fill-opacity:0.365;"/>
   </g>
   <g id="PolyCollection_38">
    <path clip-path="url(#p13d2c266ab)" d="M 142.138864 75.841209 
L 142.138864 170.28 
L 143.660682 170.28 
L 143.660682 75.841209 
L 143.660682 75.841209 
L 142.138864 75.841209 
z
" style="fill:#666666;fill-opacity:0.375;"/>
   </g>
   <g id="PolyCollection_39">
    <path clip-path="url(#p13d2c266ab)" d="M 143.660682 78.857727 
L 143.660682 170.28 
L 145.1825 170.28 
L 145.1825 78.857727 
L 145.1825 78.857727 
L 143.660682 78.857727 
z
" style="fill:#666666;fill-opacity:0.385;"/>
   </g>
   <g id="PolyCollection_40">
    <path clip-path="url(#p13d2c266ab)" d="M 145.1825 81.874244 
L 145.1825 170.28 
L 146.704318 170.28 
L 146.704318 81.874244 
L 146.704318 81.874244 
L 145.1825 81.874244 
z
" style="fill:#666666;fill-opacity:0.395;"/>
   </g>
   <g id="PolyCollection_41">
    <path clip-path="url(#p13d2c266ab)" d="M 146.704318 85.33597 
L 146.704318 170.28 
L 148.226136 170.28 
L 148.226136 85.33597 
L 148.226136 85.33597 
L 146.704318 85.33597 
z
" style="fill:#666666;fill-opacity:0.405;"/>
   </g>
   <g id="PolyCollection_42">
    <path clip-path="url(#p13d2c266ab)" d="M 148.226136 89.306506 
L 148.226136 170.28 
L 149.747955 170.28 
L 149.747955 89.306506 
L 149.747955 89.306506 
L 148.226136 89.306506 
z
" style="fill:#666666;fill-opacity:0.415;"/>
   </g>
   <g id="PolyCollection_43">
    <path clip-path="url(#p13d2c266ab)" d="M 149.747955 92.24125 
L 149.747955 170.28 
L 151.269773 170.28 
L 151.269773 92.24125 
L 151.269773 92.24125 
L 149.747955 92.24125 
z
" style="fill:#666666;fill-opacity:0.425;"/>
   </g>
   <g id="PolyCollection_44">
    <path clip-path="url(#p13d2c266ab)" d="M 151.269773 95.575773 
L 151.269773 170.28 
L 152.791591 170.28 
L 152.791591 95.575773 
L 152.791591 95.575773 
L 151.269773 95.575773 
z
" style="fill:#666666;fill-opacity:0.435;"/>
   </g>
   <g id="PolyCollection_45">
    <path clip-path="url(#p13d2c266ab)" d="M 152.791591 99.955174 
L 152.791591 170.28 
L 154.313409 170.28 
L 154.313409 99.955174 
L 154.313409 99.955174 
L 152.791591 99.955174 
z
" style="fill:#666666;fill-opacity:0.445;"/>
   </g>
   <g id="PolyCollection_46">
    <path clip-path="url(#p13d2c266ab)" d="M 154.313409 102.608256 
L 154.313409 170.28 
L 155.835227 170.28 
L 155.835227 102.608256 
L 155.835227 102.608256 
L 154.313409 102.608256 
z
" style="fill:#666666;fill-opacity:0.455;"/>
   </g>
   <g id="PolyCollection_47">
    <path clip-path="url(#p13d2c266ab)" d="M 155.835227 105.80649 
L 155.835227 170.28 
L 157.357045 170.28 
L 157.357045 105.80649 
L 157.357045 105.80649 
L 155.835227 105.80649 
z
" style="fill:#666666;fill-opacity:0.465;"/>
   </g>
   <g id="PolyCollection_48">
    <path clip-path="url(#p13d2c266ab)" d="M 157.357045 107.387436 
L 157.357045 170.28 
L 158.878864 170.28 
L 158.878864 107.387436 
L 158.878864 107.387436 
L 157.357045 107.387436 
z
" style="fill:#666666;fill-opacity:0.475;"/>
   </g>
   <g id="PolyCollection_49">
    <path clip-path="url(#p13d2c266ab)" d="M 158.878864 111.394316 
L 158.878864 170.28 
L 160.400682 170.28 
L 160.400682 111.394316 
L 160.400682 111.394316 
L 158.878864 111.394316 
z
" style="fill:#666666;fill-opacity:0.485;"/>
   </g>
   <g id="PolyCollection_50">
    <path clip-path="url(#p13d2c266ab)" d="M 160.400682 113.82025 
L 160.400682 170.28 
L 161.9225 170.28 
L 161.9225 113.82025 
L 161.9225 113.82025 
L 160.400682 113.82025 
z
" style="fill:#666666;fill-opacity:0.495;"/>
   </g>
   <g id="PolyCollection_51">
    <path clip-path="url(#p13d2c266ab)" d="M 161.9225 115.54657 
L 161.9225 170.28 
L 163.444318 170.28 
L 163.444318 115.54657 
L 163.444318 115.54657 
L 161.9225 115.54657 
z
" style="fill:#666666;fill-opacity:0.505;"/>
   </g>
   <g id="PolyCollection_52">
    <path clip-path="url(#p13d2c266ab)" d="M 163.444318 119.30813 
L 163.444318 170.28 
L 164.966136 170.28 
L 164.966136 119.30813 
L 164.966136 119.30813 
L 163.444318 119.30813 
z
" style="fill:#666666;fill-opacity:0.515;"/>
   </g>
   <g id="PolyCollection_53">
    <path clip-path="url(#p13d2c266ab)" d="M 164.966136 120.807303 
L 164.966136 170.28 
L 166.487955 170.28 
L 166.487955 120.807303 
L 166.487955 120.807303 
L 164.966136 120.807303 
z
" style="fill:#666666;fill-opacity:0.525;"/>
   </g>
   <g id="PolyCollection_54">
    <path clip-path="url(#p13d2c266ab)" d="M 166.487955 122.515451 
L 166.487955 170.28 
L 168.009773 170.28 
L 168.009773 122.515451 
L 168.009773 122.515451 
L 166.487955 122.515451 
z
" style="fill:#666666;fill-opacity:0.535;"/>
   </g>
   <g id="PolyCollection_55">
    <path clip-path="url(#p13d2c266ab)" d="M 168.009773 125.268477 
L 168.009773 170.28 
L 169.531591 170.28 
L 169.531591 125.268477 
L 169.531591 125.268477 
L 168.009773 125.268477 
z
" style="fill:#666666;fill-opacity:0.545;"/>
   </g>
   <g id="PolyCollection_56">
    <path clip-path="url(#p13d2c266ab)" d="M 169.531591 125.123103 
L 169.531591 170.28 
L 171.053409 170.28 
L 171.053409 125.123103 
L 171.053409 125.123103 
L 169.531591 125.123103 
z
" style="fill:#666666;fill-opacity:0.555;"/>
   </g>
   <g id="PolyCollection_57">
    <path clip-path="url(#p13d2c266ab)" d="M 171.053409 127.503607 
L 171.053409 170.28 
L 172.575227 170.28 
L 172.575227 127.503607 
L 172.575227 127.503607 
L 171.053409 127.503607 
z
" style="fill:#666666;fill-opacity:0.565;"/>
   </g>
   <g id="PolyCollection_58">
    <path clip-path="url(#p13d2c266ab)" d="M 172.575227 128.357681 
L 172.575227 170.28 
L 174.097045 170.28 
L 174.097045 128.357681 
L 174.097045 128.357681 
L 172.575227 128.357681 
z
" style="fill:#666666;fill-opacity:0.575;"/>
   </g>
   <g id="PolyCollection_59">
    <path clip-path="url(#p13d2c266ab)" d="M 174.097045 129.084553 
L 174.097045 170.28 
L 175.618864 170.28 
L 175.618864 129.084553 
L 175.618864 129.084553 
L 174.097045 129.084553 
z
" style="fill:#666666;fill-opacity:0.585;"/>
   </g>
   <g id="PolyCollection_60">
    <path clip-path="url(#p13d2c266ab)" d="M 175.618864 129.366216 
L 175.618864 170.28 
L 177.140682 170.28 
L 177.140682 129.366216 
L 177.140682 129.366216 
L 175.618864 129.366216 
z
" style="fill:#666666;fill-opacity:0.595;"/>
   </g>
   <g id="PolyCollection_61">
    <path clip-path="url(#p13d2c266ab)" d="M 177.140682 128.675688 
L 177.140682 170.28 
L 178.6625 170.28 
L 178.6625 128.675688 
L 178.6625 128.675688 
L 177.140682 128.675688 
z
" style="fill:#666666;fill-opacity:0.605;"/>
   </g>
   <g id="PolyCollection_62">
    <path clip-path="url(#p13d2c266ab)" d="M 178.6625 129.675136 
L 178.6625 170.28 
L 180.184318 170.28 
L 180.184318 129.675136 
L 180.184318 129.675136 
L 178.6625 129.675136 
z
" style="fill:#666666;fill-opacity:0.615;"/>
   </g>
   <g id="PolyCollection_63">
    <path clip-path="url(#p13d2c266ab)" d="M 180.184318 127.867043 
L 180.184318 170.28 
L 181.706136 170.28 
L 181.706136 127.867043 
L 181.706136 127.867043 
L 180.184318 127.867043 
z
" style="fill:#666666;fill-opacity:0.625;"/>
   </g>
   <g id="PolyCollection_64">
    <path clip-path="url(#p13d2c266ab)" d="M 181.706136 128.103276 
L 181.706136 170.28 
L 183.227955 170.28 
L 183.227955 128.103276 
L 183.227955 128.103276 
L 181.706136 128.103276 
z
" style="fill:#666666;fill-opacity:0.635;"/>
   </g>
   <g id="PolyCollection_65">
    <path clip-path="url(#p13d2c266ab)" d="M 183.227955 126.004435 
L 183.227955 170.28 
L 184.749773 170.28 
L 184.749773 126.004435 
L 184.749773 126.004435 
L 183.227955 126.004435 
z
" style="fill:#666666;fill-opacity:0.645;"/>
   </g>
   <g id="PolyCollection_66">
    <path clip-path="url(#p13d2c266ab)" d="M 184.749773 124.459833 
L 184.749773 170.28 
L 186.271591 170.28 
L 186.271591 124.459833 
L 186.271591 124.459833 
L 184.749773 124.459833 
z
" style="fill:#666666;fill-opacity:0.655;"/>
   </g>
   <g id="PolyCollection_67">
    <path clip-path="url(#p13d2c266ab)" d="M 186.271591 121.715892 
L 186.271591 170.28 
L 187.793409 170.28 
L 187.793409 121.715892 
L 187.793409 121.715892 
L 186.271591 121.715892 
z
" style="fill:#666666;fill-opacity:0.665;"/>
   </g>
   <g id="PolyCollection_68">
    <path clip-path="url(#p13d2c266ab)" d="M 187.793409 120.153118 
L 187.793409 170.28 
L 189.315227 170.28 
L 189.315227 120.153118 
L 189.315227 120.153118 
L 187.793409 120.153118 
z
" style="fill:#666666;fill-opacity:0.675;"/>
   </g>
   <g id="PolyCollection_69">
    <path clip-path="url(#p13d2c266ab)" d="M 189.315227 119.571621 
L 189.315227 170.28 
L 190.837045 170.28 
L 190.837045 119.571621 
L 190.837045 119.571621 
L 189.315227 119.571621 
z
" style="fill:#666666;fill-opacity:0.685;"/>
   </g>
   <g id="PolyCollection_70">
    <path clip-path="url(#p13d2c266ab)" d="M 190.837045 115.183134 
L 190.837045 170.28 
L 192.358864 170.28 
L 192.358864 115.183134 
L 192.358864 115.183134 
L 190.837045 115.183134 
z
" style="fill:#666666;fill-opacity:0.695;"/>
   </g>
   <g id="PolyCollection_71">
    <path clip-path="url(#p13d2c266ab)" d="M 192.358864 110.740131 
L 192.358864 170.28 
L 193.880682 170.28 
L 193.880682 110.740131 
L 193.880682 110.740131 
L 192.358864 110.740131 
z
" style="fill:#666666;fill-opacity:0.705;"/>
   </g>
   <g id="PolyCollection_72">
    <path clip-path="url(#p13d2c266ab)" d="M 193.880682 108.64129 
L 193.880682 170.28 
L 195.4025 170.28 
L 195.4025 108.64129 
L 195.4025 108.64129 
L 193.880682 108.64129 
z
" style="fill:#666666;fill-opacity:0.715;"/>
   </g>
   <g id="PolyCollection_73">
    <path clip-path="url(#p13d2c266ab)" d="M 195.4025 102.126703 
L 195.4025 170.28 
L 196.924318 170.28 
L 196.924318 102.126703 
L 196.924318 102.126703 
L 195.4025 102.126703 
z
" style="fill:#666666;fill-opacity:0.725;"/>
   </g>
   <g id="PolyCollection_74">
    <path clip-path="url(#p13d2c266ab)" d="M 196.924318 97.601927 
L 196.924318 170.28 
L 198.446136 170.28 
L 198.446136 97.601927 
L 198.446136 97.601927 
L 196.924318 97.601927 
z
" style="fill:#666666;fill-opacity:0.735;"/>
   </g>
   <g id="PolyCollection_75">
    <path clip-path="url(#p13d2c266ab)" d="M 198.446136 93.131667 
L 198.446136 170.28 
L 199.967955 170.28 
L 199.967955 93.131667 
L 199.967955 93.131667 
L 198.446136 93.131667 
z
" style="fill:#666666;fill-opacity:0.745;"/>
   </g>
   <g id="PolyCollection_76">
    <path clip-path="url(#p13d2c266ab)" d="M 199.967955 84.381951 
L 199.967955 170.28 
L 201.489773 170.28 
L 201.489773 84.381951 
L 201.489773 84.381951 
L 199.967955 84.381951 
z
" style="fill:#666666;fill-opacity:0.755;"/>
   </g>
   <g id="PolyCollection_77">
    <path clip-path="url(#p13d2c266ab)" d="M 201.489773 81.292746 
L 201.489773 170.28 
L 203.011591 170.28 
L 203.011591 81.292746 
L 203.011591 81.292746 
L 201.489773 81.292746 
z
" style="fill:#666666;fill-opacity:0.765;"/>
   </g>
   <g id="PolyCollection_78">
    <path clip-path="url(#p13d2c266ab)" d="M 203.011591 76.050185 
L 203.011591 170.28 
L 204.533409 170.28 
L 204.533409 76.050185 
L 204.533409 76.050185 
L 203.011591 76.050185 
z
" style="fill:#666666;fill-opacity:0.775;"/>
   </g>
   <g id="PolyCollection_79">
    <path clip-path="url(#p13d2c266ab)" d="M 204.533409 72.106907 
L 204.533409 170.28 
L 206.055227 170.28 
L 206.055227 72.106907 
L 206.055227 72.106907 
L 204.533409 72.106907 
z
" style="fill:#666666;fill-opacity:0.785;"/>
   </g>
   <g id="PolyCollection_80">
    <path clip-path="url(#p13d2c266ab)" d="M 206.055227 64.138577 
L 206.055227 170.28 
L 207.577045 170.28 
L 207.577045 64.138577 
L 207.577045 64.138577 
L 206.055227 64.138577 
z
" style="fill:#666666;fill-opacity:0.795;"/>
   </g>
   <g id="PolyCollection_81">
    <path clip-path="url(#p13d2c266ab)" d="M 207.577045 57.66942 
L 207.577045 170.28 
L 209.098864 170.28 
L 209.098864 57.66942 
L 209.098864 57.66942 
L 207.577045 57.66942 
z
" style="fill:#666666;fill-opacity:0.805;"/>
   </g>
   <g id="PolyCollection_82">
    <path clip-path="url(#p13d2c266ab)" d="M 209.098864 52.108852 
L 209.098864 170.28 
L 210.620682 170.28 
L 210.620682 52.108852 
L 210.620682 52.108852 
L 209.098864 52.108852 
z
" style="fill:#666666;fill-opacity:0.815;"/>
   </g>
   <g id="PolyCollection_83">
    <path clip-path="url(#p13d2c266ab)" d="M 210.620682 44.794707 
L 210.620682 170.28 
L 212.1425 170.28 
L 212.1425 44.794707 
L 212.1425 44.794707 
L 210.620682 44.794707 
z
" style="fill:#666666;fill-opacity:0.825;"/>
   </g>
   <g id="PolyCollection_84">
    <path clip-path="url(#p13d2c266ab)" d="M 212.1425 38.952477 
L 212.1425 170.28 
L 213.664318 170.28 
L 213.664318 38.952477 
L 213.664318 38.952477 
L 212.1425 38.952477 
z
" style="fill:#666666;fill-opacity:0.835;"/>
   </g>
   <g id="PolyCollection_85">
    <path clip-path="url(#p13d2c266ab)" d="M 213.664318 34.881996 
L 213.664318 170.28 
L 215.186136 170.28 
L 215.186136 34.881996 
L 215.186136 34.881996 
L 213.664318 34.881996 
z
" style="fill:#666666;fill-opacity:0.845;"/>
   </g>
   <g id="PolyCollection_86">
    <path clip-path="url(#p13d2c266ab)" d="M 215.186136 29.385029 
L 215.186136 170.28 
L 216.707955 170.28 
L 216.707955 29.385029 
L 216.707955 29.385029 
L 215.186136 29.385029 
z
" style="fill:#666666;fill-opacity:0.855;"/>
   </g>
   <g id="PolyCollection_87">
    <path clip-path="url(#p13d2c266ab)" d="M 216.707955 22.815927 
L 216.707955 170.28 
L 218.229773 170.28 
L 218.229773 22.815927 
L 218.229773 22.815927 
L 216.707955 22.815927 
z
" style="fill:#666666;fill-opacity:0.865;"/>
   </g>
   <g id="PolyCollection_88">
    <path clip-path="url(#p13d2c266ab)" d="M 218.229773 18.436526 
L 218.229773 170.28 
L 219.751591 170.28 
L 219.751591 18.436526 
L 219.751591 18.436526 
L 218.229773 18.436526 
z
" style="fill:#666666;fill-opacity:0.875;"/>
   </g>
   <g id="PolyCollection_89">
    <path clip-path="url(#p13d2c266ab)" d="M 219.751591 17.05547 
L 219.751591 170.28 
L 221.273409 170.28 
L 221.273409 17.05547 
L 221.273409 17.05547 
L 219.751591 17.05547 
z
" style="fill:#666666;fill-opacity:0.885;"/>
   </g>
   <g id="PolyCollection_90">
    <path clip-path="url(#p13d2c266ab)" d="M 221.273409 15.301892 
L 221.273409 170.28 
L 222.795227 170.28 
L 222.795227 15.301892 
L 222.795227 15.301892 
L 221.273409 15.301892 
z
" style="fill:#666666;fill-opacity:0.895;"/>
   </g>
   <g id="PolyCollection_91">
    <path clip-path="url(#p13d2c266ab)" d="M 222.795227 14.965714 
L 222.795227 170.28 
L 224.317045 170.28 
L 224.317045 14.965714 
L 224.317045 14.965714 
L 222.795227 14.965714 
z
" style="fill:#666666;fill-opacity:0.905;"/>
   </g>
   <g id="PolyCollection_92">
    <path clip-path="url(#p13d2c266ab)" d="M 224.317045 16.573918 
L 224.317045 170.28 
L 225.838864 170.28 
L 225.838864 16.573918 
L 225.838864 16.573918 
L 224.317045 16.573918 
z
" style="fill:#666666;fill-opacity:0.915;"/>
   </g>
   <g id="PolyCollection_93">
    <path clip-path="url(#p13d2c266ab)" d="M 225.838864 22.343461 
L 225.838864 170.28 
L 227.360682 170.28 
L 227.360682 22.343461 
L 227.360682 22.343461 
L 225.838864 22.343461 
z
" style="fill:#666666;fill-opacity:0.925;"/>
   </g>
   <g id="PolyCollection_94">
    <path clip-path="url(#p13d2c266ab)" d="M 227.360682 27.722311 
L 227.360682 170.28 
L 228.8825 170.28 
L 228.8825 27.722311 
L 228.8825 27.722311 
L 227.360682 27.722311 
z
" style="fill:#666666;fill-opacity:0.935;"/>
   </g>
   <g id="PolyCollection_95">
    <path clip-path="url(#p13d2c266ab)" d="M 228.8825 38.879789 
L 228.8825 170.28 
L 230.404318 170.28 
L 230.404318 38.879789 
L 230.404318 38.879789 
L 228.8825 38.879789 
z
" style="fill:#666666;fill-opacity:0.945;"/>
   </g>
   <g id="PolyCollection_96">
    <path clip-path="url(#p13d2c266ab)" d="M 230.404318 51.636386 
L 230.404318 170.28 
L 231.926136 170.28 
L 231.926136 51.636386 
L 231.926136 51.636386 
L 230.404318 51.636386 
z
" style="fill:#666666;fill-opacity:0.955;"/>
   </g>
   <g id="PolyCollection_97">
    <path clip-path="url(#p13d2c266ab)" d="M 231.926136 68.808727 
L 231.926136 170.28 
L 233.447955 170.28 
L 233.447955 68.808727 
L 233.447955 68.808727 
L 231.926136 68.808727 
z
" style="fill:#666666;fill-opacity:0.965;"/>
   </g>
   <g id="PolyCollection_98">
    <path clip-path="url(#p13d2c266ab)" d="M 233.447955 92.250335 
L 233.447955 170.28 
L 234.969773 170.28 
L 234.969773 92.250335 
L 234.969773 92.250335 
L 233.447955 92.250335 
z
" style="fill:#666666;fill-opacity:0.975;"/>
   </g>
   <g id="PolyCollection_99">
    <path clip-path="url(#p13d2c266ab)" d="M 234.969773 117.018485 
L 234.969773 170.28 
L 236.491591 170.28 
L 236.491591 117.018485 
L 236.491591 117.018485 
L 234.969773 117.018485 
z
" style="fill:#666666;fill-opacity:0.985;"/>
   </g>
   <g id="PolyCollection_100">
    <path clip-path="url(#p13d2c266ab)" d="M 236.491591 151.826548 
L 236.491591 170.28 
L 238.013409 170.28 
L 238.013409 151.826548 
L 238.013409 151.826548 
L 236.491591 151.826548 
z
" style="fill:#666666;fill-opacity:0.995;"/>
   </g>
   <g id="matplotlib.axis_1">
    <g id="xtick_1">
     <g id="line2d_1">
      <defs>
       <path d="M 0 0 
L 0 3.5 
" id="mde57e51724" style="stroke:#000000;stroke-width:0.8;"/>
      </defs>
      <g>
       <use style="stroke:#000000;stroke-width:0.8;" x="85.831591" xlink:href="#mde57e51724" y="170.28"/>
      </g>
     </g>
     <g id="text_1">
      <!-- 0.0 -->
      <defs>
       <path d="M 31.78125 66.40625 
Q 24.171875 66.40625 20.328125 58.90625 
Q 16.5 51.421875 16.5 36.375 
Q 16.5 21.390625 20.328125 13.890625 
Q 24.171875 6.390625 31.78125 6.390625 
Q 39.453125 6.390625 43.28125 13.890625 
Q 47.125 21.390625 47.125 36.375 
Q 47.125 51.421875 43.28125 58.90625 
Q 39.453125 66.40625 31.78125 66.40625 
z
M 31.78125 74.21875 
Q 44.046875 74.21875 50.515625 64.515625 
Q 56.984375 54.828125 56.984375 36.375 
Q 56.984375 17.96875 50.515625 8.265625 
Q 44.046875 -1.421875 31.78125 -1.421875 
Q 19.53125 -1.421875 13.0625 8.265625 
Q 6.59375 17.96875 6.59375 36.375 
Q 6.59375 54.828125 13.0625 64.515625 
Q 19.53125 74.21875 31.78125 74.21875 
z
" id="DejaVuSans-48"/>
       <path d="M 10.6875 12.40625 
L 21 12.40625 
L 21 0 
L 10.6875 0 
z
" id="DejaVuSans-46"/>
      </defs>
      <g transform="translate(74.699403 187.917813)scale(0.14 -0.14)">
       <use xlink:href="#DejaVuSans-48"/>
       <use x="63.623047" xlink:href="#DejaVuSans-46"/>
       <use x="95.410156" xlink:href="#DejaVuSans-48"/>
      </g>
     </g>
    </g>
    <g id="xtick_2">
     <g id="line2d_2">
      <g>
       <use style="stroke:#000000;stroke-width:0.8;" x="161.9225" xlink:href="#mde57e51724" y="170.28"/>
      </g>
     </g>
     <g id="text_2">
      <!-- 0.5 -->
      <defs>
       <path d="M 10.796875 72.90625 
L 49.515625 72.90625 
L 49.515625 64.59375 
L 19.828125 64.59375 
L 19.828125 46.734375 
Q 21.96875 47.46875 24.109375 47.828125 
Q 26.265625 48.1875 28.421875 48.1875 
Q 40.625 48.1875 47.75 41.5 
Q 54.890625 34.8125 54.890625 23.390625 
Q 54.890625 11.625 47.5625 5.09375 
Q 40.234375 -1.421875 26.90625 -1.421875 
Q 22.3125 -1.421875 17.546875 -0.640625 
Q 12.796875 0.140625 7.71875 1.703125 
L 7.71875 11.625 
Q 12.109375 9.234375 16.796875 8.0625 
Q 21.484375 6.890625 26.703125 6.890625 
Q 35.15625 6.890625 40.078125 11.328125 
Q 45.015625 15.765625 45.015625 23.390625 
Q 45.015625 31 40.078125 35.4375 
Q 35.15625 39.890625 26.703125 39.890625 
Q 22.75 39.890625 18.8125 39.015625 
Q 14.890625 38.140625 10.796875 36.28125 
z
" id="DejaVuSans-53"/>
      </defs>
      <g transform="translate(150.790313 187.917813)scale(0.14 -0.14)">
       <use xlink:href="#DejaVuSans-48"/>
       <use x="63.623047" xlink:href="#DejaVuSans-46"/>
       <use x="95.410156" xlink:href="#DejaVuSans-53"/>
      </g>
     </g>
    </g>
    <g id="xtick_3">
     <g id="line2d_3">
      <g>
       <use style="stroke:#000000;stroke-width:0.8;" x="238.013409" xlink:href="#mde57e51724" y="170.28"/>
      </g>
     </g>
     <g id="text_3">
      <!-- 1.0 -->
      <defs>
       <path d="M 12.40625 8.296875 
L 28.515625 8.296875 
L 28.515625 63.921875 
L 10.984375 60.40625 
L 10.984375 69.390625 
L 28.421875 72.90625 
L 38.28125 72.90625 
L 38.28125 8.296875 
L 54.390625 8.296875 
L 54.390625 0 
L 12.40625 0 
z
" id="DejaVuSans-49"/>
      </defs>
      <g transform="translate(226.881222 187.917813)scale(0.14 -0.14)">
       <use xlink:href="#DejaVuSans-49"/>
       <use x="63.623047" xlink:href="#DejaVuSans-46"/>
       <use x="95.410156" xlink:href="#DejaVuSans-48"/>
      </g>
     </g>
    </g>
    <g id="text_4">
     <!-- $C(X)$ -->
     <defs>
      <path d="M 69.484375 67.28125 
L 67.484375 56.890625 
Q 62.796875 61.625 57.546875 63.921875 
Q 52.296875 66.21875 46.1875 66.21875 
Q 37.84375 66.21875 31.515625 62.203125 
Q 25.203125 58.203125 20.609375 50 
Q 17.671875 44.734375 16.125 38.84375 
Q 14.59375 32.953125 14.59375 27 
Q 14.59375 17.046875 19.75 11.8125 
Q 24.90625 6.59375 34.71875 6.59375 
Q 41.5 6.59375 47.75 8.765625 
Q 54 10.9375 59.90625 15.28125 
L 57.625 3.609375 
Q 51.8125 1.125 45.875 -0.140625 
Q 39.9375 -1.421875 33.984375 -1.421875 
Q 19.96875 -1.421875 12.078125 6.1875 
Q 4.203125 13.8125 4.203125 27.390625 
Q 4.203125 36.078125 7.203125 44.46875 
Q 10.203125 52.875 15.828125 59.8125 
Q 21.78125 67.1875 29.421875 70.703125 
Q 37.0625 74.21875 47.21875 74.21875 
Q 53.46875 74.21875 59.0625 72.484375 
Q 64.65625 70.75 69.484375 67.28125 
z
" id="DejaVuSans-Oblique-67"/>
      <path d="M 31 75.875 
Q 24.46875 64.65625 21.28125 53.65625 
Q 18.109375 42.671875 18.109375 31.390625 
Q 18.109375 20.125 21.3125 9.0625 
Q 24.515625 -2 31 -13.1875 
L 23.1875 -13.1875 
Q 15.875 -1.703125 12.234375 9.375 
Q 8.59375 20.453125 8.59375 31.390625 
Q 8.59375 42.28125 12.203125 53.3125 
Q 15.828125 64.359375 23.1875 75.875 
z
" id="DejaVuSans-40"/>
      <path d="M 13.71875 72.90625 
L 23.6875 72.90625 
L 36.1875 46.578125 
L 58.796875 72.90625 
L 70.3125 72.90625 
L 40.28125 38.09375 
L 58.40625 0 
L 48.484375 0 
L 33.796875 30.71875 
L 7.171875 0 
L -4.296875 0 
L 29.78125 39.203125 
z
" id="DejaVuSans-Oblique-88"/>
      <path d="M 8.015625 75.875 
L 15.828125 75.875 
Q 23.140625 64.359375 26.78125 53.3125 
Q 30.421875 42.28125 30.421875 31.390625 
Q 30.421875 20.453125 26.78125 9.375 
Q 23.140625 -1.703125 15.828125 -13.1875 
L 8.015625 -13.1875 
Q 14.5 -2 17.703125 9.0625 
Q 20.90625 20.125 20.90625 31.390625 
Q 20.90625 42.671875 17.703125 53.65625 
Q 14.5 64.65625 8.015625 75.875 
z
" id="DejaVuSans-41"/>
     </defs>
     <g transform="translate(144.5625 206.986875)scale(0.16 -0.16)">
      <use transform="translate(0 0.125)" xlink:href="#DejaVuSans-Oblique-67"/>
      <use transform="translate(69.824219 0.125)" xlink:href="#DejaVuSans-40"/>
      <use transform="translate(108.837891 0.125)" xlink:href="#DejaVuSans-Oblique-88"/>
      <use transform="translate(177.34375 0.125)" xlink:href="#DejaVuSans-41"/>
     </g>
    </g>
   </g>
   <g id="matplotlib.axis_2">
    <g id="ytick_1">
     <g id="line2d_4">
      <defs>
       <path d="M 0 0 
L -3.5 0 
" id="m5a6af4e35d" style="stroke:#000000;stroke-width:0.8;"/>
      </defs>
      <g>
       <use style="stroke:#000000;stroke-width:0.8;" x="78.2225" xlink:href="#m5a6af4e35d" y="170.28"/>
      </g>
     </g>
     <g id="text_5">
      <!-- 0 -->
      <g transform="translate(62.315 175.598906)scale(0.14 -0.14)">
       <use xlink:href="#DejaVuSans-48"/>
      </g>
     </g>
    </g>
    <g id="ytick_2">
     <g id="line2d_5">
      <g>
       <use style="stroke:#000000;stroke-width:0.8;" x="78.2225" xlink:href="#m5a6af4e35d" y="124.850526"/>
      </g>
     </g>
     <g id="text_6">
      <!-- 5000 -->
      <g transform="translate(35.5925 130.169432)scale(0.14 -0.14)">
       <use xlink:href="#DejaVuSans-53"/>
       <use x="63.623047" xlink:href="#DejaVuSans-48"/>
       <use x="127.246094" xlink:href="#DejaVuSans-48"/>
       <use x="190.869141" xlink:href="#DejaVuSans-48"/>
      </g>
     </g>
    </g>
    <g id="ytick_3">
     <g id="line2d_6">
      <g>
       <use style="stroke:#000000;stroke-width:0.8;" x="78.2225" xlink:href="#m5a6af4e35d" y="79.421052"/>
      </g>
     </g>
     <g id="text_7">
      <!-- 10000 -->
      <g transform="translate(26.685 84.739958)scale(0.14 -0.14)">
       <use xlink:href="#DejaVuSans-49"/>
       <use x="63.623047" xlink:href="#DejaVuSans-48"/>
       <use x="127.246094" xlink:href="#DejaVuSans-48"/>
       <use x="190.869141" xlink:href="#DejaVuSans-48"/>
       <use x="254.492188" xlink:href="#DejaVuSans-48"/>
      </g>
     </g>
    </g>
    <g id="ytick_4">
     <g id="line2d_7">
      <g>
       <use style="stroke:#000000;stroke-width:0.8;" x="78.2225" xlink:href="#m5a6af4e35d" y="33.991578"/>
      </g>
     </g>
     <g id="text_8">
      <!-- 15000 -->
      <g transform="translate(26.685 39.310484)scale(0.14 -0.14)">
       <use xlink:href="#DejaVuSans-49"/>
       <use x="63.623047" xlink:href="#DejaVuSans-53"/>
       <use x="127.246094" xlink:href="#DejaVuSans-48"/>
       <use x="190.869141" xlink:href="#DejaVuSans-48"/>
       <use x="254.492188" xlink:href="#DejaVuSans-48"/>
      </g>
     </g>
    </g>
    <g id="text_9">
     <!-- freq -->
     <defs>
      <path d="M 37.109375 75.984375 
L 37.109375 68.5 
L 28.515625 68.5 
Q 23.6875 68.5 21.796875 66.546875 
Q 19.921875 64.59375 19.921875 59.515625 
L 19.921875 54.6875 
L 34.71875 54.6875 
L 34.71875 47.703125 
L 19.921875 47.703125 
L 19.921875 0 
L 10.890625 0 
L 10.890625 47.703125 
L 2.296875 47.703125 
L 2.296875 54.6875 
L 10.890625 54.6875 
L 10.890625 58.5 
Q 10.890625 67.625 15.140625 71.796875 
Q 19.390625 75.984375 28.609375 75.984375 
z
" id="DejaVuSans-102"/>
      <path d="M 41.109375 46.296875 
Q 39.59375 47.171875 37.8125 47.578125 
Q 36.03125 48 33.890625 48 
Q 26.265625 48 22.1875 43.046875 
Q 18.109375 38.09375 18.109375 28.8125 
L 18.109375 0 
L 9.078125 0 
L 9.078125 54.6875 
L 18.109375 54.6875 
L 18.109375 46.1875 
Q 20.953125 51.171875 25.484375 53.578125 
Q 30.03125 56 36.53125 56 
Q 37.453125 56 38.578125 55.875 
Q 39.703125 55.765625 41.0625 55.515625 
z
" id="DejaVuSans-114"/>
      <path d="M 56.203125 29.59375 
L 56.203125 25.203125 
L 14.890625 25.203125 
Q 15.484375 15.921875 20.484375 11.0625 
Q 25.484375 6.203125 34.421875 6.203125 
Q 39.59375 6.203125 44.453125 7.46875 
Q 49.3125 8.734375 54.109375 11.28125 
L 54.109375 2.78125 
Q 49.265625 0.734375 44.1875 -0.34375 
Q 39.109375 -1.421875 33.890625 -1.421875 
Q 20.796875 -1.421875 13.15625 6.1875 
Q 5.515625 13.8125 5.515625 26.8125 
Q 5.515625 40.234375 12.765625 48.109375 
Q 20.015625 56 32.328125 56 
Q 43.359375 56 49.78125 48.890625 
Q 56.203125 41.796875 56.203125 29.59375 
z
M 47.21875 32.234375 
Q 47.125 39.59375 43.09375 43.984375 
Q 39.0625 48.390625 32.421875 48.390625 
Q 24.90625 48.390625 20.390625 44.140625 
Q 15.875 39.890625 15.1875 32.171875 
z
" id="DejaVuSans-101"/>
      <path d="M 14.796875 27.296875 
Q 14.796875 17.390625 18.875 11.75 
Q 22.953125 6.109375 30.078125 6.109375 
Q 37.203125 6.109375 41.296875 11.75 
Q 45.40625 17.390625 45.40625 27.296875 
Q 45.40625 37.203125 41.296875 42.84375 
Q 37.203125 48.484375 30.078125 48.484375 
Q 22.953125 48.484375 18.875 42.84375 
Q 14.796875 37.203125 14.796875 27.296875 
z
M 45.40625 8.203125 
Q 42.578125 3.328125 38.25 0.953125 
Q 33.9375 -1.421875 27.875 -1.421875 
Q 17.96875 -1.421875 11.734375 6.484375 
Q 5.515625 14.40625 5.515625 27.296875 
Q 5.515625 40.1875 11.734375 48.09375 
Q 17.96875 56 27.875 56 
Q 33.9375 56 38.25 53.625 
Q 42.578125 51.265625 45.40625 46.390625 
L 45.40625 54.6875 
L 54.390625 54.6875 
L 54.390625 -20.796875 
L 45.40625 -20.796875 
z
" id="DejaVuSans-113"/>
     </defs>
     <g transform="translate(19.3575 104.84375)rotate(-90)scale(0.16 -0.16)">
      <use xlink:href="#DejaVuSans-102"/>
      <use x="35.205078" xlink:href="#DejaVuSans-114"/>
      <use x="76.287109" xlink:href="#DejaVuSans-101"/>
      <use x="137.810547" xlink:href="#DejaVuSans-113"/>
     </g>
    </g>
   </g>
   <g id="patch_3">
    <path d="M 78.2225 170.28 
L 78.2225 7.2 
" style="fill:none;stroke:#000000;stroke-linecap:square;stroke-linejoin:miter;stroke-width:0.8;"/>
   </g>
   <g id="patch_4">
    <path d="M 78.2225 170.28 
L 245.6225 170.28 
" style="fill:none;stroke:#000000;stroke-linecap:square;stroke-linejoin:miter;stroke-width:0.8;"/>
   </g>
   <g id="line2d_8">
    <path clip-path="url(#p13d2c266ab)" d="M 86.5925 162.484302 
L 88.114318 147.628864 
L 89.636136 132.982402 
L 91.157955 120.443867 
L 92.679773 110.422125 
L 94.201591 97.847247 
L 95.723409 89.897089 
L 97.245227 82.637459 
L 98.767045 71.534495 
L 100.288864 66.937033 
L 101.810682 59.777347 
L 103.3325 52.84481 
L 104.854318 50.427962 
L 106.376136 45.394376 
L 107.897955 44.503958 
L 109.419773 41.787276 
L 110.941591 40.233588 
L 112.463409 37.489647 
L 113.985227 35.154573 
L 115.507045 35.790585 
L 117.028864 38.370979 
L 118.550682 39.070593 
L 120.0725 37.380617 
L 121.594318 39.279569 
L 123.116136 40.378962 
L 124.637955 40.924116 
L 126.159773 43.440909 
L 127.681591 45.639695 
L 129.203409 48.847016 
L 130.725227 49.682918 
L 132.247045 54.298553 
L 133.768864 59.277623 
L 135.290682 60.195299 
L 136.8125 62.548545 
L 138.334318 65.837639 
L 139.856136 70.053494 
L 141.377955 72.724748 
L 142.899773 75.841209 
L 144.421591 78.857727 
L 145.943409 81.874244 
L 147.465227 85.33597 
L 148.987045 89.306506 
L 150.508864 92.24125 
L 152.030682 95.575773 
L 153.5525 99.955174 
L 155.074318 102.608256 
L 156.596136 105.80649 
L 158.117955 107.387436 
L 159.639773 111.394316 
L 161.161591 113.82025 
L 162.683409 115.54657 
L 164.205227 119.30813 
L 165.727045 120.807303 
L 167.248864 122.515451 
L 168.770682 125.268477 
L 170.2925 125.123103 
L 171.814318 127.503607 
L 173.336136 128.357681 
L 174.857955 129.084553 
L 176.379773 129.366216 
L 177.901591 128.675688 
L 179.423409 129.675136 
L 180.945227 127.867043 
L 182.467045 128.103276 
L 183.988864 126.004435 
L 185.510682 124.459833 
L 187.0325 121.715892 
L 188.554318 120.153118 
L 190.076136 119.571621 
L 191.597955 115.183134 
L 193.119773 110.740131 
L 194.641591 108.64129 
L 196.163409 102.126703 
L 197.685227 97.601927 
L 199.207045 93.131667 
L 200.728864 84.381951 
L 202.250682 81.292746 
L 203.7725 76.050185 
L 205.294318 72.106907 
L 206.816136 64.138577 
L 208.337955 57.66942 
L 209.859773 52.108852 
L 211.381591 44.794707 
L 212.903409 38.952477 
L 214.425227 34.881996 
L 215.947045 29.385029 
L 217.468864 22.815927 
L 218.990682 18.436526 
L 220.5125 17.05547 
L 222.034318 15.301892 
L 223.556136 14.965714 
L 225.077955 16.573918 
L 226.599773 22.343461 
L 228.121591 27.722311 
L 229.643409 38.879789 
L 231.165227 51.636386 
L 232.687045 68.808727 
L 234.208864 92.250335 
L 235.730682 117.018485 
L 237.2525 151.826548 
" style="fill:none;stroke:#666666;stroke-linecap:square;stroke-width:2;"/>
   </g>
  </g>
 </g>
 <defs>
  <clipPath id="p13d2c266ab">
   <rect height="163.08" width="167.4" x="78.2225" y="7.2"/>
  </clipPath>
 </defs>
</svg>
