<?xml version="1.0" encoding="utf-8" standalone="no"?>
<!DOCTYPE svg PUBLIC "-//W3C//DTD SVG 1.1//EN"
  "http://www.w3.org/Graphics/SVG/1.1/DTD/svg11.dtd">
<!-- Created with matplotlib (https://matplotlib.org/) -->
<svg height="217.514375pt" version="1.1" viewBox="0 0 204.808097 217.514375" width="204.808097pt" xmlns="http://www.w3.org/2000/svg" xmlns:xlink="http://www.w3.org/1999/xlink">
 <defs>
  <style type="text/css">
*{stroke-linecap:butt;stroke-linejoin:round;}
  </style>
 </defs>
 <g id="figure_1">
  <g id="patch_1">
   <path d="M 0 217.514375 
L 204.808097 217.514375 
L 204.808097 0 
L 0 0 
z
" style="fill:#ffffff;"/>
  </g>
  <g id="axes_1">
   <g id="patch_2">
    <path d="M 26.685 170.28 
L 194.085 170.28 
L 194.085 7.2 
L 26.685 7.2 
z
" style="fill:#ffffff;"/>
   </g>
   <g id="PolyCollection_1">
    <path clip-path="url(#p3781bc4821)" d="M 34.294091 170.28 
L 34.294091 170.28 
L 35.815909 170.28 
L 35.815909 170.28 
L 35.815909 170.28 
L 34.294091 170.28 
z
" style="fill:#3d85c6;fill-opacity:0.005;"/>
   </g>
   <g id="PolyCollection_2">
    <path clip-path="url(#p3781bc4821)" d="M 35.815909 170.28 
L 35.815909 170.28 
L 37.337727 170.28 
L 37.337727 170.28 
L 37.337727 170.28 
L 35.815909 170.28 
z
" style="fill:#3d85c6;fill-opacity:0.015;"/>
   </g>
   <g id="PolyCollection_3">
    <path clip-path="url(#p3781bc4821)" d="M 37.337727 170.28 
L 37.337727 170.28 
L 38.859545 170.28 
L 38.859545 170.28 
L 38.859545 170.28 
L 37.337727 170.28 
z
" style="fill:#3d85c6;fill-opacity:0.025;"/>
   </g>
   <g id="PolyCollection_4">
    <path clip-path="url(#p3781bc4821)" d="M 38.859545 170.28 
L 38.859545 170.28 
L 40.381364 170.28 
L 40.381364 170.28 
L 40.381364 170.28 
L 38.859545 170.28 
z
" style="fill:#3d85c6;fill-opacity:0.035;"/>
   </g>
   <g id="PolyCollection_5">
    <path clip-path="url(#p3781bc4821)" d="M 40.381364 170.28 
L 40.381364 170.28 
L 41.903182 170.28 
L 41.903182 170.28 
L 41.903182 170.28 
L 40.381364 170.28 
z
" style="fill:#3d85c6;fill-opacity:0.045;"/>
   </g>
   <g id="PolyCollection_6">
    <path clip-path="url(#p3781bc4821)" d="M 41.903182 170.28 
L 41.903182 170.28 
L 43.425 170.28 
L 43.425 170.28 
L 43.425 170.28 
L 41.903182 170.28 
z
" style="fill:#3d85c6;fill-opacity:0.055;"/>
   </g>
   <g id="PolyCollection_7">
    <path clip-path="url(#p3781bc4821)" d="M 43.425 170.28 
L 43.425 170.28 
L 44.946818 170.28 
L 44.946818 170.28 
L 44.946818 170.28 
L 43.425 170.28 
z
" style="fill:#3d85c6;fill-opacity:0.065;"/>
   </g>
   <g id="PolyCollection_8">
    <path clip-path="url(#p3781bc4821)" d="M 44.946818 170.28 
L 44.946818 170.28 
L 46.468636 170.28 
L 46.468636 170.28 
L 46.468636 170.28 
L 44.946818 170.28 
z
" style="fill:#3d85c6;fill-opacity:0.075;"/>
   </g>
   <g id="PolyCollection_9">
    <path clip-path="url(#p3781bc4821)" d="M 46.468636 170.28 
L 46.468636 170.28 
L 47.990455 170.28 
L 47.990455 170.28 
L 47.990455 170.28 
L 46.468636 170.28 
z
" style="fill:#3d85c6;fill-opacity:0.085;"/>
   </g>
   <g id="PolyCollection_10">
    <path clip-path="url(#p3781bc4821)" d="M 47.990455 170.28 
L 47.990455 170.28 
L 49.512273 170.28 
L 49.512273 170.28 
L 49.512273 170.28 
L 47.990455 170.28 
z
" style="fill:#3d85c6;fill-opacity:0.095;"/>
   </g>
   <g id="PolyCollection_11">
    <path clip-path="url(#p3781bc4821)" d="M 49.512273 170.28 
L 49.512273 170.28 
L 51.034091 170.28 
L 51.034091 170.28 
L 51.034091 170.28 
L 49.512273 170.28 
z
" style="fill:#3d85c6;fill-opacity:0.105;"/>
   </g>
   <g id="PolyCollection_12">
    <path clip-path="url(#p3781bc4821)" d="M 51.034091 170.28 
L 51.034091 170.28 
L 52.555909 170.28 
L 52.555909 170.28 
L 52.555909 170.28 
L 51.034091 170.28 
z
" style="fill:#3d85c6;fill-opacity:0.115;"/>
   </g>
   <g id="PolyCollection_13">
    <path clip-path="url(#p3781bc4821)" d="M 52.555909 170.28 
L 52.555909 170.28 
L 54.077727 170.28 
L 54.077727 170.28 
L 54.077727 170.28 
L 52.555909 170.28 
z
" style="fill:#3d85c6;fill-opacity:0.125;"/>
   </g>
   <g id="PolyCollection_14">
    <path clip-path="url(#p3781bc4821)" d="M 54.077727 170.28 
L 54.077727 170.28 
L 55.599545 170.28 
L 55.599545 170.28 
L 55.599545 170.28 
L 54.077727 170.28 
z
" style="fill:#3d85c6;fill-opacity:0.135;"/>
   </g>
   <g id="PolyCollection_15">
    <path clip-path="url(#p3781bc4821)" d="M 55.599545 170.28 
L 55.599545 170.28 
L 57.121364 170.28 
L 57.121364 170.28 
L 57.121364 170.28 
L 55.599545 170.28 
z
" style="fill:#3d85c6;fill-opacity:0.145;"/>
   </g>
   <g id="PolyCollection_16">
    <path clip-path="url(#p3781bc4821)" d="M 57.121364 170.28 
L 57.121364 170.28 
L 58.643182 170.28 
L 58.643182 170.28 
L 58.643182 170.28 
L 57.121364 170.28 
z
" style="fill:#3d85c6;fill-opacity:0.155;"/>
   </g>
   <g id="PolyCollection_17">
    <path clip-path="url(#p3781bc4821)" d="M 58.643182 170.28 
L 58.643182 170.28 
L 60.165 170.28 
L 60.165 170.28 
L 60.165 170.28 
L 58.643182 170.28 
z
" style="fill:#3d85c6;fill-opacity:0.165;"/>
   </g>
   <g id="PolyCollection_18">
    <path clip-path="url(#p3781bc4821)" d="M 60.165 170.28 
L 60.165 170.28 
L 61.686818 170.28 
L 61.686818 170.28 
L 61.686818 170.28 
L 60.165 170.28 
z
" style="fill:#3d85c6;fill-opacity:0.175;"/>
   </g>
   <g id="PolyCollection_19">
    <path clip-path="url(#p3781bc4821)" d="M 61.686818 170.28 
L 61.686818 170.28 
L 63.208636 170.28 
L 63.208636 170.28 
L 63.208636 170.28 
L 61.686818 170.28 
z
" style="fill:#3d85c6;fill-opacity:0.185;"/>
   </g>
   <g id="PolyCollection_20">
    <path clip-path="url(#p3781bc4821)" d="M 63.208636 170.28 
L 63.208636 170.28 
L 64.730455 170.28 
L 64.730455 170.28 
L 64.730455 170.28 
L 63.208636 170.28 
z
" style="fill:#3d85c6;fill-opacity:0.195;"/>
   </g>
   <g id="PolyCollection_21">
    <path clip-path="url(#p3781bc4821)" d="M 64.730455 170.28 
L 64.730455 170.28 
L 66.252273 170.28 
L 66.252273 170.28 
L 66.252273 170.28 
L 64.730455 170.28 
z
" style="fill:#3d85c6;fill-opacity:0.205;"/>
   </g>
   <g id="PolyCollection_22">
    <path clip-path="url(#p3781bc4821)" d="M 66.252273 170.28 
L 66.252273 170.28 
L 67.774091 170.28 
L 67.774091 170.28 
L 67.774091 170.28 
L 66.252273 170.28 
z
" style="fill:#3d85c6;fill-opacity:0.215;"/>
   </g>
   <g id="PolyCollection_23">
    <path clip-path="url(#p3781bc4821)" d="M 67.774091 170.28 
L 67.774091 170.28 
L 69.295909 170.28 
L 69.295909 170.28 
L 69.295909 170.28 
L 67.774091 170.28 
z
" style="fill:#3d85c6;fill-opacity:0.225;"/>
   </g>
   <g id="PolyCollection_24">
    <path clip-path="url(#p3781bc4821)" d="M 69.295909 170.28 
L 69.295909 170.28 
L 70.817727 170.28 
L 70.817727 170.28 
L 70.817727 170.28 
L 69.295909 170.28 
z
" style="fill:#3d85c6;fill-opacity:0.235;"/>
   </g>
   <g id="PolyCollection_25">
    <path clip-path="url(#p3781bc4821)" d="M 70.817727 170.26181 
L 70.817727 170.28 
L 72.339545 170.28 
L 72.339545 170.26181 
L 72.339545 170.26181 
L 70.817727 170.26181 
z
" style="fill:#3d85c6;fill-opacity:0.245;"/>
   </g>
   <g id="PolyCollection_26">
    <path clip-path="url(#p3781bc4821)" d="M 72.339545 170.24362 
L 72.339545 170.28 
L 73.861364 170.28 
L 73.861364 170.24362 
L 73.861364 170.24362 
L 72.339545 170.24362 
z
" style="fill:#3d85c6;fill-opacity:0.255;"/>
   </g>
   <g id="PolyCollection_27">
    <path clip-path="url(#p3781bc4821)" d="M 73.861364 170.24362 
L 73.861364 170.28 
L 75.383182 170.28 
L 75.383182 170.24362 
L 75.383182 170.24362 
L 73.861364 170.24362 
z
" style="fill:#3d85c6;fill-opacity:0.265;"/>
   </g>
   <g id="PolyCollection_28">
    <path clip-path="url(#p3781bc4821)" d="M 75.383182 170.270905 
L 75.383182 170.28 
L 76.905 170.28 
L 76.905 170.270905 
L 76.905 170.270905 
L 75.383182 170.270905 
z
" style="fill:#3d85c6;fill-opacity:0.275;"/>
   </g>
   <g id="PolyCollection_29">
    <path clip-path="url(#p3781bc4821)" d="M 76.905 170.252715 
L 76.905 170.28 
L 78.426818 170.28 
L 78.426818 170.252715 
L 78.426818 170.252715 
L 76.905 170.252715 
z
" style="fill:#3d85c6;fill-opacity:0.285;"/>
   </g>
   <g id="PolyCollection_30">
    <path clip-path="url(#p3781bc4821)" d="M 78.426818 170.24362 
L 78.426818 170.28 
L 79.948636 170.28 
L 79.948636 170.24362 
L 79.948636 170.24362 
L 78.426818 170.24362 
z
" style="fill:#3d85c6;fill-opacity:0.295;"/>
   </g>
   <g id="PolyCollection_31">
    <path clip-path="url(#p3781bc4821)" d="M 79.948636 170.216335 
L 79.948636 170.28 
L 81.470455 170.28 
L 81.470455 170.216335 
L 81.470455 170.216335 
L 79.948636 170.216335 
z
" style="fill:#3d85c6;fill-opacity:0.305;"/>
   </g>
   <g id="PolyCollection_32">
    <path clip-path="url(#p3781bc4821)" d="M 81.470455 170.22543 
L 81.470455 170.28 
L 82.992273 170.28 
L 82.992273 170.22543 
L 82.992273 170.22543 
L 81.470455 170.22543 
z
" style="fill:#3d85c6;fill-opacity:0.315;"/>
   </g>
   <g id="PolyCollection_33">
    <path clip-path="url(#p3781bc4821)" d="M 82.992273 170.116291 
L 82.992273 170.28 
L 84.514091 170.28 
L 84.514091 170.116291 
L 84.514091 170.116291 
L 82.992273 170.116291 
z
" style="fill:#3d85c6;fill-opacity:0.325;"/>
   </g>
   <g id="PolyCollection_34">
    <path clip-path="url(#p3781bc4821)" d="M 84.514091 170.125386 
L 84.514091 170.28 
L 86.035909 170.28 
L 86.035909 170.125386 
L 86.035909 170.125386 
L 84.514091 170.125386 
z
" style="fill:#3d85c6;fill-opacity:0.335;"/>
   </g>
   <g id="PolyCollection_35">
    <path clip-path="url(#p3781bc4821)" d="M 86.035909 170.107196 
L 86.035909 170.28 
L 87.557727 170.28 
L 87.557727 170.107196 
L 87.557727 170.107196 
L 86.035909 170.107196 
z
" style="fill:#3d85c6;fill-opacity:0.345;"/>
   </g>
   <g id="PolyCollection_36">
    <path clip-path="url(#p3781bc4821)" d="M 87.557727 170.089006 
L 87.557727 170.28 
L 89.079545 170.28 
L 89.079545 170.089006 
L 89.079545 170.089006 
L 87.557727 170.089006 
z
" style="fill:#3d85c6;fill-opacity:0.355;"/>
   </g>
   <g id="PolyCollection_37">
    <path clip-path="url(#p3781bc4821)" d="M 89.079545 169.952582 
L 89.079545 170.28 
L 90.601364 170.28 
L 90.601364 169.952582 
L 90.601364 169.952582 
L 89.079545 169.952582 
z
" style="fill:#3d85c6;fill-opacity:0.365;"/>
   </g>
   <g id="PolyCollection_38">
    <path clip-path="url(#p3781bc4821)" d="M 90.601364 169.870728 
L 90.601364 170.28 
L 92.123182 170.28 
L 92.123182 169.870728 
L 92.123182 169.870728 
L 90.601364 169.870728 
z
" style="fill:#3d85c6;fill-opacity:0.375;"/>
   </g>
   <g id="PolyCollection_39">
    <path clip-path="url(#p3781bc4821)" d="M 92.123182 169.888918 
L 92.123182 170.28 
L 93.645 170.28 
L 93.645 169.888918 
L 93.645 169.888918 
L 92.123182 169.888918 
z
" style="fill:#3d85c6;fill-opacity:0.385;"/>
   </g>
   <g id="PolyCollection_40">
    <path clip-path="url(#p3781bc4821)" d="M 93.645 169.652449 
L 93.645 170.28 
L 95.166818 170.28 
L 95.166818 169.652449 
L 95.166818 169.652449 
L 93.645 169.652449 
z
" style="fill:#3d85c6;fill-opacity:0.395;"/>
   </g>
   <g id="PolyCollection_41">
    <path clip-path="url(#p3781bc4821)" d="M 95.166818 169.625164 
L 95.166818 170.28 
L 96.688636 170.28 
L 96.688636 169.625164 
L 96.688636 169.625164 
L 95.166818 169.625164 
z
" style="fill:#3d85c6;fill-opacity:0.405;"/>
   </g>
   <g id="PolyCollection_42">
    <path clip-path="url(#p3781bc4821)" d="M 96.688636 169.415981 
L 96.688636 170.28 
L 98.210455 170.28 
L 98.210455 169.415981 
L 98.210455 169.415981 
L 96.688636 169.415981 
z
" style="fill:#3d85c6;fill-opacity:0.415;"/>
   </g>
   <g id="PolyCollection_43">
    <path clip-path="url(#p3781bc4821)" d="M 98.210455 169.315936 
L 98.210455 170.28 
L 99.732273 170.28 
L 99.732273 169.315936 
L 99.732273 169.315936 
L 98.210455 169.315936 
z
" style="fill:#3d85c6;fill-opacity:0.425;"/>
   </g>
   <g id="PolyCollection_44">
    <path clip-path="url(#p3781bc4821)" d="M 99.732273 168.943044 
L 99.732273 170.28 
L 101.254091 170.28 
L 101.254091 168.943044 
L 101.254091 168.943044 
L 99.732273 168.943044 
z
" style="fill:#3d85c6;fill-opacity:0.435;"/>
   </g>
   <g id="PolyCollection_45">
    <path clip-path="url(#p3781bc4821)" d="M 101.254091 168.924854 
L 101.254091 170.28 
L 102.775909 170.28 
L 102.775909 168.924854 
L 102.775909 168.924854 
L 101.254091 168.924854 
z
" style="fill:#3d85c6;fill-opacity:0.445;"/>
   </g>
   <g id="PolyCollection_46">
    <path clip-path="url(#p3781bc4821)" d="M 102.775909 168.324588 
L 102.775909 170.28 
L 104.297727 170.28 
L 104.297727 168.324588 
L 104.297727 168.324588 
L 102.775909 168.324588 
z
" style="fill:#3d85c6;fill-opacity:0.455;"/>
   </g>
   <g id="PolyCollection_47">
    <path clip-path="url(#p3781bc4821)" d="M 104.297727 167.951695 
L 104.297727 170.28 
L 105.819545 170.28 
L 105.819545 167.951695 
L 105.819545 167.951695 
L 104.297727 167.951695 
z
" style="fill:#3d85c6;fill-opacity:0.465;"/>
   </g>
   <g id="PolyCollection_48">
    <path clip-path="url(#p3781bc4821)" d="M 105.819545 167.615183 
L 105.819545 170.28 
L 107.341364 170.28 
L 107.341364 167.615183 
L 107.341364 167.615183 
L 105.819545 167.615183 
z
" style="fill:#3d85c6;fill-opacity:0.475;"/>
   </g>
   <g id="PolyCollection_49">
    <path clip-path="url(#p3781bc4821)" d="M 107.341364 167.151341 
L 107.341364 170.28 
L 108.863182 170.28 
L 108.863182 167.151341 
L 108.863182 167.151341 
L 107.341364 167.151341 
z
" style="fill:#3d85c6;fill-opacity:0.485;"/>
   </g>
   <g id="PolyCollection_50">
    <path clip-path="url(#p3781bc4821)" d="M 108.863182 166.57836 
L 108.863182 170.28 
L 110.385 170.28 
L 110.385 166.57836 
L 110.385 166.57836 
L 108.863182 166.57836 
z
" style="fill:#3d85c6;fill-opacity:0.495;"/>
   </g>
   <g id="PolyCollection_51">
    <path clip-path="url(#p3781bc4821)" d="M 110.385 165.759815 
L 110.385 170.28 
L 111.906818 170.28 
L 111.906818 165.759815 
L 111.906818 165.759815 
L 110.385 165.759815 
z
" style="fill:#3d85c6;fill-opacity:0.505;"/>
   </g>
   <g id="PolyCollection_52">
    <path clip-path="url(#p3781bc4821)" d="M 111.906818 165.450587 
L 111.906818 170.28 
L 113.428636 170.28 
L 113.428636 165.450587 
L 113.428636 165.450587 
L 111.906818 165.450587 
z
" style="fill:#3d85c6;fill-opacity:0.515;"/>
   </g>
   <g id="PolyCollection_53">
    <path clip-path="url(#p3781bc4821)" d="M 113.428636 164.404669 
L 113.428636 170.28 
L 114.950455 170.28 
L 114.950455 164.404669 
L 114.950455 164.404669 
L 113.428636 164.404669 
z
" style="fill:#3d85c6;fill-opacity:0.525;"/>
   </g>
   <g id="PolyCollection_54">
    <path clip-path="url(#p3781bc4821)" d="M 114.950455 163.686169 
L 114.950455 170.28 
L 116.472273 170.28 
L 116.472273 163.686169 
L 116.472273 163.686169 
L 114.950455 163.686169 
z
" style="fill:#3d85c6;fill-opacity:0.535;"/>
   </g>
   <g id="PolyCollection_55">
    <path clip-path="url(#p3781bc4821)" d="M 116.472273 162.71301 
L 116.472273 170.28 
L 117.994091 170.28 
L 117.994091 162.71301 
L 117.994091 162.71301 
L 116.472273 162.71301 
z
" style="fill:#3d85c6;fill-opacity:0.545;"/>
   </g>
   <g id="PolyCollection_56">
    <path clip-path="url(#p3781bc4821)" d="M 117.994091 160.757598 
L 117.994091 170.28 
L 119.515909 170.28 
L 119.515909 160.757598 
L 119.515909 160.757598 
L 117.994091 160.757598 
z
" style="fill:#3d85c6;fill-opacity:0.555;"/>
   </g>
   <g id="PolyCollection_57">
    <path clip-path="url(#p3781bc4821)" d="M 119.515909 160.002718 
L 119.515909 170.28 
L 121.037727 170.28 
L 121.037727 160.002718 
L 121.037727 160.002718 
L 119.515909 160.002718 
z
" style="fill:#3d85c6;fill-opacity:0.565;"/>
   </g>
   <g id="PolyCollection_58">
    <path clip-path="url(#p3781bc4821)" d="M 121.037727 158.665762 
L 121.037727 170.28 
L 122.559545 170.28 
L 122.559545 158.665762 
L 122.559545 158.665762 
L 121.037727 158.665762 
z
" style="fill:#3d85c6;fill-opacity:0.575;"/>
   </g>
   <g id="PolyCollection_59">
    <path clip-path="url(#p3781bc4821)" d="M 122.559545 156.510261 
L 122.559545 170.28 
L 124.081364 170.28 
L 124.081364 156.510261 
L 124.081364 156.510261 
L 122.559545 156.510261 
z
" style="fill:#3d85c6;fill-opacity:0.585;"/>
   </g>
   <g id="PolyCollection_60">
    <path clip-path="url(#p3781bc4821)" d="M 124.081364 155.409774 
L 124.081364 170.28 
L 125.603182 170.28 
L 125.603182 155.409774 
L 125.603182 155.409774 
L 124.081364 155.409774 
z
" style="fill:#3d85c6;fill-opacity:0.595;"/>
   </g>
   <g id="PolyCollection_61">
    <path clip-path="url(#p3781bc4821)" d="M 125.603182 152.14469 
L 125.603182 170.28 
L 127.125 170.28 
L 127.125 152.14469 
L 127.125 152.14469 
L 125.603182 152.14469 
z
" style="fill:#3d85c6;fill-opacity:0.605;"/>
   </g>
   <g id="PolyCollection_62">
    <path clip-path="url(#p3781bc4821)" d="M 127.125 151.626279 
L 127.125 170.28 
L 128.646818 170.28 
L 128.646818 151.626279 
L 128.646818 151.626279 
L 127.125 151.626279 
z
" style="fill:#3d85c6;fill-opacity:0.615;"/>
   </g>
   <g id="PolyCollection_63">
    <path clip-path="url(#p3781bc4821)" d="M 128.646818 148.133822 
L 128.646818 170.28 
L 130.168636 170.28 
L 130.168636 148.133822 
L 130.168636 148.133822 
L 128.646818 148.133822 
z
" style="fill:#3d85c6;fill-opacity:0.625;"/>
   </g>
   <g id="PolyCollection_64">
    <path clip-path="url(#p3781bc4821)" d="M 130.168636 146.551302 
L 130.168636 170.28 
L 131.690455 170.28 
L 131.690455 146.551302 
L 131.690455 146.551302 
L 130.168636 146.551302 
z
" style="fill:#3d85c6;fill-opacity:0.635;"/>
   </g>
   <g id="PolyCollection_65">
    <path clip-path="url(#p3781bc4821)" d="M 131.690455 142.840567 
L 131.690455 170.28 
L 133.212273 170.28 
L 133.212273 142.840567 
L 133.212273 142.840567 
L 131.690455 142.840567 
z
" style="fill:#3d85c6;fill-opacity:0.645;"/>
   </g>
   <g id="PolyCollection_66">
    <path clip-path="url(#p3781bc4821)" d="M 133.212273 139.684623 
L 133.212273 170.28 
L 134.734091 170.28 
L 134.734091 139.684623 
L 134.734091 139.684623 
L 133.212273 139.684623 
z
" style="fill:#3d85c6;fill-opacity:0.655;"/>
   </g>
   <g id="PolyCollection_67">
    <path clip-path="url(#p3781bc4821)" d="M 134.734091 135.755609 
L 134.734091 170.28 
L 136.255909 170.28 
L 136.255909 135.755609 
L 136.255909 135.755609 
L 134.734091 135.755609 
z
" style="fill:#3d85c6;fill-opacity:0.665;"/>
   </g>
   <g id="PolyCollection_68">
    <path clip-path="url(#p3781bc4821)" d="M 136.255909 132.254057 
L 136.255909 170.28 
L 137.777727 170.28 
L 137.777727 132.254057 
L 137.777727 132.254057 
L 136.255909 132.254057 
z
" style="fill:#3d85c6;fill-opacity:0.675;"/>
   </g>
   <g id="PolyCollection_69">
    <path clip-path="url(#p3781bc4821)" d="M 137.777727 130.298645 
L 137.777727 170.28 
L 139.299545 170.28 
L 139.299545 130.298645 
L 139.299545 130.298645 
L 137.777727 130.298645 
z
" style="fill:#3d85c6;fill-opacity:0.685;"/>
   </g>
   <g id="PolyCollection_70">
    <path clip-path="url(#p3781bc4821)" d="M 139.299545 124.868966 
L 139.299545 170.28 
L 140.821364 170.28 
L 140.821364 124.868966 
L 140.821364 124.868966 
L 139.299545 124.868966 
z
" style="fill:#3d85c6;fill-opacity:0.695;"/>
   </g>
   <g id="PolyCollection_71">
    <path clip-path="url(#p3781bc4821)" d="M 140.821364 119.339243 
L 140.821364 170.28 
L 142.343182 170.28 
L 142.343182 119.339243 
L 142.343182 119.339243 
L 140.821364 119.339243 
z
" style="fill:#3d85c6;fill-opacity:0.705;"/>
   </g>
   <g id="PolyCollection_72">
    <path clip-path="url(#p3781bc4821)" d="M 142.343182 116.519811 
L 142.343182 170.28 
L 143.865 170.28 
L 143.865 116.519811 
L 143.865 116.519811 
L 142.343182 116.519811 
z
" style="fill:#3d85c6;fill-opacity:0.715;"/>
   </g>
   <g id="PolyCollection_73">
    <path clip-path="url(#p3781bc4821)" d="M 143.865 108.561739 
L 143.865 170.28 
L 145.386818 170.28 
L 145.386818 108.561739 
L 145.386818 108.561739 
L 143.865 108.561739 
z
" style="fill:#3d85c6;fill-opacity:0.725;"/>
   </g>
   <g id="PolyCollection_74">
    <path clip-path="url(#p3781bc4821)" d="M 145.386818 103.604997 
L 145.386818 170.28 
L 146.908636 170.28 
L 146.908636 103.604997 
L 146.908636 103.604997 
L 145.386818 103.604997 
z
" style="fill:#3d85c6;fill-opacity:0.735;"/>
   </g>
   <g id="PolyCollection_75">
    <path clip-path="url(#p3781bc4821)" d="M 146.908636 98.011609 
L 146.908636 170.28 
L 148.430455 170.28 
L 148.430455 98.011609 
L 148.430455 98.011609 
L 146.908636 98.011609 
z
" style="fill:#3d85c6;fill-opacity:0.745;"/>
   </g>
   <g id="PolyCollection_76">
    <path clip-path="url(#p3781bc4821)" d="M 148.430455 88.671106 
L 148.430455 170.28 
L 149.952273 170.28 
L 149.952273 88.671106 
L 149.952273 88.671106 
L 148.430455 88.671106 
z
" style="fill:#3d85c6;fill-opacity:0.755;"/>
   </g>
   <g id="PolyCollection_77">
    <path clip-path="url(#p3781bc4821)" d="M 149.952273 85.624301 
L 149.952273 170.28 
L 151.474091 170.28 
L 151.474091 85.624301 
L 151.474091 85.624301 
L 149.952273 85.624301 
z
" style="fill:#3d85c6;fill-opacity:0.765;"/>
   </g>
   <g id="PolyCollection_78">
    <path clip-path="url(#p3781bc4821)" d="M 151.474091 79.230558 
L 151.474091 170.28 
L 152.995909 170.28 
L 152.995909 79.230558 
L 152.995909 79.230558 
L 151.474091 79.230558 
z
" style="fill:#3d85c6;fill-opacity:0.775;"/>
   </g>
   <g id="PolyCollection_79">
    <path clip-path="url(#p3781bc4821)" d="M 152.995909 74.601234 
L 152.995909 170.28 
L 154.517727 170.28 
L 154.517727 74.601234 
L 154.517727 74.601234 
L 152.995909 74.601234 
z
" style="fill:#3d85c6;fill-opacity:0.785;"/>
   </g>
   <g id="PolyCollection_80">
    <path clip-path="url(#p3781bc4821)" d="M 154.517727 66.497643 
L 154.517727 170.28 
L 156.039545 170.28 
L 156.039545 66.497643 
L 156.039545 66.497643 
L 154.517727 66.497643 
z
" style="fill:#3d85c6;fill-opacity:0.795;"/>
   </g>
   <g id="PolyCollection_81">
    <path clip-path="url(#p3781bc4821)" d="M 156.039545 59.776482 
L 156.039545 170.28 
L 157.561364 170.28 
L 157.561364 59.776482 
L 157.561364 59.776482 
L 156.039545 59.776482 
z
" style="fill:#3d85c6;fill-opacity:0.805;"/>
   </g>
   <g id="PolyCollection_82">
    <path clip-path="url(#p3781bc4821)" d="M 157.561364 53.38274 
L 157.561364 170.28 
L 159.083182 170.28 
L 159.083182 53.38274 
L 159.083182 53.38274 
L 157.561364 53.38274 
z
" style="fill:#3d85c6;fill-opacity:0.815;"/>
   </g>
   <g id="PolyCollection_83">
    <path clip-path="url(#p3781bc4821)" d="M 159.083182 45.85213 
L 159.083182 170.28 
L 160.605 170.28 
L 160.605 45.85213 
L 160.605 45.85213 
L 159.083182 45.85213 
z
" style="fill:#3d85c6;fill-opacity:0.825;"/>
   </g>
   <g id="PolyCollection_84">
    <path clip-path="url(#p3781bc4821)" d="M 160.605 39.68576 
L 160.605 170.28 
L 162.126818 170.28 
L 162.126818 39.68576 
L 162.126818 39.68576 
L 160.605 39.68576 
z
" style="fill:#3d85c6;fill-opacity:0.835;"/>
   </g>
   <g id="PolyCollection_85">
    <path clip-path="url(#p3781bc4821)" d="M 162.126818 35.511183 
L 162.126818 170.28 
L 163.648636 170.28 
L 163.648636 35.511183 
L 163.648636 35.511183 
L 162.126818 35.511183 
z
" style="fill:#3d85c6;fill-opacity:0.845;"/>
   </g>
   <g id="PolyCollection_86">
    <path clip-path="url(#p3781bc4821)" d="M 163.648636 29.772276 
L 163.648636 170.28 
L 165.170455 170.28 
L 165.170455 29.772276 
L 165.170455 29.772276 
L 163.648636 29.772276 
z
" style="fill:#3d85c6;fill-opacity:0.855;"/>
   </g>
   <g id="PolyCollection_87">
    <path clip-path="url(#p3781bc4821)" d="M 165.170455 23.160255 
L 165.170455 170.28 
L 166.692273 170.28 
L 166.692273 23.160255 
L 166.692273 23.160255 
L 165.170455 23.160255 
z
" style="fill:#3d85c6;fill-opacity:0.865;"/>
   </g>
   <g id="PolyCollection_88">
    <path clip-path="url(#p3781bc4821)" d="M 166.692273 18.65826 
L 166.692273 170.28 
L 168.214091 170.28 
L 168.214091 18.65826 
L 168.214091 18.65826 
L 166.692273 18.65826 
z
" style="fill:#3d85c6;fill-opacity:0.875;"/>
   </g>
   <g id="PolyCollection_89">
    <path clip-path="url(#p3781bc4821)" d="M 168.214091 17.103025 
L 168.214091 170.28 
L 169.735909 170.28 
L 169.735909 17.103025 
L 169.735909 17.103025 
L 168.214091 17.103025 
z
" style="fill:#3d85c6;fill-opacity:0.885;"/>
   </g>
   <g id="PolyCollection_90">
    <path clip-path="url(#p3781bc4821)" d="M 169.735909 15.356797 
L 169.735909 170.28 
L 171.257727 170.28 
L 171.257727 15.356797 
L 171.257727 15.356797 
L 169.735909 15.356797 
z
" style="fill:#3d85c6;fill-opacity:0.895;"/>
   </g>
   <g id="PolyCollection_91">
    <path clip-path="url(#p3781bc4821)" d="M 171.257727 14.965714 
L 171.257727 170.28 
L 172.779545 170.28 
L 172.779545 14.965714 
L 172.779545 14.965714 
L 171.257727 14.965714 
z
" style="fill:#3d85c6;fill-opacity:0.905;"/>
   </g>
   <g id="PolyCollection_92">
    <path clip-path="url(#p3781bc4821)" d="M 172.779545 16.484569 
L 172.779545 170.28 
L 174.301364 170.28 
L 174.301364 16.484569 
L 174.301364 16.484569 
L 172.779545 16.484569 
z
" style="fill:#3d85c6;fill-opacity:0.915;"/>
   </g>
   <g id="PolyCollection_93">
    <path clip-path="url(#p3781bc4821)" d="M 174.301364 22.268951 
L 174.301364 170.28 
L 175.823182 170.28 
L 175.823182 22.268951 
L 175.823182 22.268951 
L 174.301364 22.268951 
z
" style="fill:#3d85c6;fill-opacity:0.925;"/>
   </g>
   <g id="PolyCollection_94">
    <path clip-path="url(#p3781bc4821)" d="M 175.823182 27.598586 
L 175.823182 170.28 
L 177.345 170.28 
L 177.345 27.598586 
L 177.345 27.598586 
L 175.823182 27.598586 
z
" style="fill:#3d85c6;fill-opacity:0.935;"/>
   </g>
   <g id="PolyCollection_95">
    <path clip-path="url(#p3781bc4821)" d="M 177.345 38.758077 
L 177.345 170.28 
L 178.866818 170.28 
L 178.866818 38.758077 
L 178.866818 38.758077 
L 177.345 38.758077 
z
" style="fill:#3d85c6;fill-opacity:0.945;"/>
   </g>
   <g id="PolyCollection_96">
    <path clip-path="url(#p3781bc4821)" d="M 178.866818 51.527372 
L 178.866818 170.28 
L 180.388636 170.28 
L 180.388636 51.527372 
L 180.388636 51.527372 
L 178.866818 51.527372 
z
" style="fill:#3d85c6;fill-opacity:0.955;"/>
   </g>
   <g id="PolyCollection_97">
    <path clip-path="url(#p3781bc4821)" d="M 180.388636 68.707713 
L 180.388636 170.28 
L 181.910455 170.28 
L 181.910455 68.707713 
L 181.910455 68.707713 
L 180.388636 68.707713 
z
" style="fill:#3d85c6;fill-opacity:0.965;"/>
   </g>
   <g id="PolyCollection_98">
    <path clip-path="url(#p3781bc4821)" d="M 181.910455 92.172658 
L 181.910455 170.28 
L 183.432273 170.28 
L 183.432273 92.172658 
L 183.432273 92.172658 
L 181.910455 92.172658 
z
" style="fill:#3d85c6;fill-opacity:0.975;"/>
   </g>
   <g id="PolyCollection_99">
    <path clip-path="url(#p3781bc4821)" d="M 183.432273 116.965463 
L 183.432273 170.28 
L 184.954091 170.28 
L 184.954091 116.965463 
L 184.954091 116.965463 
L 183.432273 116.965463 
z
" style="fill:#3d85c6;fill-opacity:0.985;"/>
   </g>
   <g id="PolyCollection_100">
    <path clip-path="url(#p3781bc4821)" d="M 184.954091 151.808177 
L 184.954091 170.28 
L 186.475909 170.28 
L 186.475909 151.808177 
L 186.475909 151.808177 
L 184.954091 151.808177 
z
" style="fill:#3d85c6;fill-opacity:0.995;"/>
   </g>
   <g id="PolyCollection_101">
    <path clip-path="url(#p3781bc4821)" d="M 34.294091 162.476542 
L 34.294091 170.28 
L 35.815909 170.28 
L 35.815909 162.476542 
L 35.815909 162.476542 
L 34.294091 162.476542 
z
" style="fill:#cc0000;fill-opacity:0.005;"/>
   </g>
   <g id="PolyCollection_102">
    <path clip-path="url(#p3781bc4821)" d="M 35.815909 147.606315 
L 35.815909 170.28 
L 37.337727 170.28 
L 37.337727 147.606315 
L 37.337727 147.606315 
L 35.815909 147.606315 
z
" style="fill:#cc0000;fill-opacity:0.015;"/>
   </g>
   <g id="PolyCollection_103">
    <path clip-path="url(#p3781bc4821)" d="M 37.337727 132.945272 
L 37.337727 170.28 
L 38.859545 170.28 
L 38.859545 132.945272 
L 38.859545 132.945272 
L 37.337727 132.945272 
z
" style="fill:#cc0000;fill-opacity:0.025;"/>
   </g>
   <g id="PolyCollection_104">
    <path clip-path="url(#p3781bc4821)" d="M 38.859545 120.394256 
L 38.859545 170.28 
L 40.381364 170.28 
L 40.381364 120.394256 
L 40.381364 120.394256 
L 38.859545 120.394256 
z
" style="fill:#cc0000;fill-opacity:0.035;"/>
   </g>
   <g id="PolyCollection_105">
    <path clip-path="url(#p3781bc4821)" d="M 40.381364 110.362537 
L 40.381364 170.28 
L 41.903182 170.28 
L 41.903182 110.362537 
L 41.903182 110.362537 
L 40.381364 110.362537 
z
" style="fill:#cc0000;fill-opacity:0.045;"/>
   </g>
   <g id="PolyCollection_106">
    <path clip-path="url(#p3781bc4821)" d="M 41.903182 97.77514 
L 41.903182 170.28 
L 43.425 170.28 
L 43.425 97.77514 
L 43.425 97.77514 
L 41.903182 97.77514 
z
" style="fill:#cc0000;fill-opacity:0.055;"/>
   </g>
   <g id="PolyCollection_107">
    <path clip-path="url(#p3781bc4821)" d="M 43.425 89.817068 
L 43.425 170.28 
L 44.946818 170.28 
L 44.946818 89.817068 
L 44.946818 89.817068 
L 43.425 89.817068 
z
" style="fill:#cc0000;fill-opacity:0.065;"/>
   </g>
   <g id="PolyCollection_108">
    <path clip-path="url(#p3781bc4821)" d="M 44.946818 82.550211 
L 44.946818 170.28 
L 46.468636 170.28 
L 46.468636 82.550211 
L 46.468636 82.550211 
L 44.946818 82.550211 
z
" style="fill:#cc0000;fill-opacity:0.075;"/>
   </g>
   <g id="PolyCollection_109">
    <path clip-path="url(#p3781bc4821)" d="M 46.468636 71.436195 
L 46.468636 170.28 
L 47.990455 170.28 
L 47.990455 71.436195 
L 47.990455 71.436195 
L 46.468636 71.436195 
z
" style="fill:#cc0000;fill-opacity:0.085;"/>
   </g>
   <g id="PolyCollection_110">
    <path clip-path="url(#p3781bc4821)" d="M 47.990455 66.834156 
L 47.990455 170.28 
L 49.512273 170.28 
L 49.512273 66.834156 
L 49.512273 66.834156 
L 47.990455 66.834156 
z
" style="fill:#cc0000;fill-opacity:0.095;"/>
   </g>
   <g id="PolyCollection_111">
    <path clip-path="url(#p3781bc4821)" d="M 49.512273 59.667343 
L 49.512273 170.28 
L 51.034091 170.28 
L 51.034091 59.667343 
L 51.034091 59.667343 
L 49.512273 59.667343 
z
" style="fill:#cc0000;fill-opacity:0.105;"/>
   </g>
   <g id="PolyCollection_112">
    <path clip-path="url(#p3781bc4821)" d="M 51.034091 52.727904 
L 51.034091 170.28 
L 52.555909 170.28 
L 52.555909 52.727904 
L 52.555909 52.727904 
L 51.034091 52.727904 
z
" style="fill:#cc0000;fill-opacity:0.115;"/>
   </g>
   <g id="PolyCollection_113">
    <path clip-path="url(#p3781bc4821)" d="M 52.555909 50.30865 
L 52.555909 170.28 
L 54.077727 170.28 
L 54.077727 50.30865 
L 54.077727 50.30865 
L 52.555909 50.30865 
z
" style="fill:#cc0000;fill-opacity:0.125;"/>
   </g>
   <g id="PolyCollection_114">
    <path clip-path="url(#p3781bc4821)" d="M 54.077727 45.270053 
L 54.077727 170.28 
L 55.599545 170.28 
L 55.599545 45.270053 
L 55.599545 45.270053 
L 54.077727 45.270053 
z
" style="fill:#cc0000;fill-opacity:0.135;"/>
   </g>
   <g id="PolyCollection_115">
    <path clip-path="url(#p3781bc4821)" d="M 55.599545 44.378749 
L 55.599545 170.28 
L 57.121364 170.28 
L 57.121364 44.378749 
L 57.121364 44.378749 
L 55.599545 44.378749 
z
" style="fill:#cc0000;fill-opacity:0.145;"/>
   </g>
   <g id="PolyCollection_116">
    <path clip-path="url(#p3781bc4821)" d="M 57.121364 41.659362 
L 57.121364 170.28 
L 58.643182 170.28 
L 58.643182 41.659362 
L 58.643182 41.659362 
L 57.121364 41.659362 
z
" style="fill:#cc0000;fill-opacity:0.155;"/>
   </g>
   <g id="PolyCollection_117">
    <path clip-path="url(#p3781bc4821)" d="M 58.643182 40.104128 
L 58.643182 170.28 
L 60.165 170.28 
L 60.165 40.104128 
L 60.165 40.104128 
L 58.643182 40.104128 
z
" style="fill:#cc0000;fill-opacity:0.165;"/>
   </g>
   <g id="PolyCollection_118">
    <path clip-path="url(#p3781bc4821)" d="M 60.165 37.357456 
L 60.165 170.28 
L 61.686818 170.28 
L 61.686818 37.357456 
L 61.686818 37.357456 
L 60.165 37.357456 
z
" style="fill:#cc0000;fill-opacity:0.175;"/>
   </g>
   <g id="PolyCollection_119">
    <path clip-path="url(#p3781bc4821)" d="M 61.686818 35.020056 
L 61.686818 170.28 
L 63.208636 170.28 
L 63.208636 35.020056 
L 63.208636 35.020056 
L 61.686818 35.020056 
z
" style="fill:#cc0000;fill-opacity:0.185;"/>
   </g>
   <g id="PolyCollection_120">
    <path clip-path="url(#p3781bc4821)" d="M 63.208636 35.656702 
L 63.208636 170.28 
L 64.730455 170.28 
L 64.730455 35.656702 
L 64.730455 35.656702 
L 63.208636 35.656702 
z
" style="fill:#cc0000;fill-opacity:0.195;"/>
   </g>
   <g id="PolyCollection_121">
    <path clip-path="url(#p3781bc4821)" d="M 64.730455 38.239665 
L 64.730455 170.28 
L 66.252273 170.28 
L 66.252273 38.239665 
L 66.252273 38.239665 
L 64.730455 38.239665 
z
" style="fill:#cc0000;fill-opacity:0.205;"/>
   </g>
   <g id="PolyCollection_122">
    <path clip-path="url(#p3781bc4821)" d="M 66.252273 38.939975 
L 66.252273 170.28 
L 67.774091 170.28 
L 67.774091 38.939975 
L 67.774091 38.939975 
L 66.252273 38.939975 
z
" style="fill:#cc0000;fill-opacity:0.215;"/>
   </g>
   <g id="PolyCollection_123">
    <path clip-path="url(#p3781bc4821)" d="M 67.774091 37.248317 
L 67.774091 170.28 
L 69.295909 170.28 
L 69.295909 37.248317 
L 69.295909 37.248317 
L 67.774091 37.248317 
z
" style="fill:#cc0000;fill-opacity:0.225;"/>
   </g>
   <g id="PolyCollection_124">
    <path clip-path="url(#p3781bc4821)" d="M 69.295909 39.149159 
L 69.295909 170.28 
L 70.817727 170.28 
L 70.817727 39.149159 
L 70.817727 39.149159 
L 69.295909 39.149159 
z
" style="fill:#cc0000;fill-opacity:0.235;"/>
   </g>
   <g id="PolyCollection_125">
    <path clip-path="url(#p3781bc4821)" d="M 70.817727 40.267837 
L 70.817727 170.28 
L 72.339545 170.28 
L 72.339545 40.267837 
L 72.339545 40.267837 
L 70.817727 40.267837 
z
" style="fill:#cc0000;fill-opacity:0.245;"/>
   </g>
   <g id="PolyCollection_126">
    <path clip-path="url(#p3781bc4821)" d="M 72.339545 40.831723 
L 72.339545 170.28 
L 73.861364 170.28 
L 73.861364 40.831723 
L 73.861364 40.831723 
L 72.339545 40.831723 
z
" style="fill:#cc0000;fill-opacity:0.255;"/>
   </g>
   <g id="PolyCollection_127">
    <path clip-path="url(#p3781bc4821)" d="M 73.861364 43.351021 
L 73.861364 170.28 
L 75.383182 170.28 
L 75.383182 43.351021 
L 75.383182 43.351021 
L 73.861364 43.351021 
z
" style="fill:#cc0000;fill-opacity:0.265;"/>
   </g>
   <g id="PolyCollection_128">
    <path clip-path="url(#p3781bc4821)" d="M 75.383182 45.524712 
L 75.383182 170.28 
L 76.905 170.28 
L 76.905 45.524712 
L 76.905 45.524712 
L 75.383182 45.524712 
z
" style="fill:#cc0000;fill-opacity:0.275;"/>
   </g>
   <g id="PolyCollection_129">
    <path clip-path="url(#p3781bc4821)" d="M 76.905 48.753415 
L 76.905 170.28 
L 78.426818 170.28 
L 78.426818 48.753415 
L 78.426818 48.753415 
L 76.905 48.753415 
z
" style="fill:#cc0000;fill-opacity:0.285;"/>
   </g>
   <g id="PolyCollection_130">
    <path clip-path="url(#p3781bc4821)" d="M 78.426818 49.599245 
L 78.426818 170.28 
L 79.948636 170.28 
L 79.948636 49.599245 
L 79.948636 49.599245 
L 78.426818 49.599245 
z
" style="fill:#cc0000;fill-opacity:0.295;"/>
   </g>
   <g id="PolyCollection_131">
    <path clip-path="url(#p3781bc4821)" d="M 79.948636 54.246759 
L 79.948636 170.28 
L 81.470455 170.28 
L 81.470455 54.246759 
L 81.470455 54.246759 
L 79.948636 54.246759 
z
" style="fill:#cc0000;fill-opacity:0.305;"/>
   </g>
   <g id="PolyCollection_132">
    <path clip-path="url(#p3781bc4821)" d="M 81.470455 59.221691 
L 81.470455 170.28 
L 82.992273 170.28 
L 82.992273 59.221691 
L 82.992273 59.221691 
L 81.470455 59.221691 
z
" style="fill:#cc0000;fill-opacity:0.315;"/>
   </g>
   <g id="PolyCollection_133">
    <path clip-path="url(#p3781bc4821)" d="M 82.992273 60.249419 
L 82.992273 170.28 
L 84.514091 170.28 
L 84.514091 60.249419 
L 84.514091 60.249419 
L 82.992273 60.249419 
z
" style="fill:#cc0000;fill-opacity:0.325;"/>
   </g>
   <g id="PolyCollection_134">
    <path clip-path="url(#p3781bc4821)" d="M 84.514091 62.595914 
L 84.514091 170.28 
L 86.035909 170.28 
L 86.035909 62.595914 
L 86.035909 62.595914 
L 84.514091 62.595914 
z
" style="fill:#cc0000;fill-opacity:0.335;"/>
   </g>
   <g id="PolyCollection_135">
    <path clip-path="url(#p3781bc4821)" d="M 86.035909 65.906472 
L 86.035909 170.28 
L 87.557727 170.28 
L 87.557727 65.906472 
L 87.557727 65.906472 
L 86.035909 65.906472 
z
" style="fill:#cc0000;fill-opacity:0.345;"/>
   </g>
   <g id="PolyCollection_136">
    <path clip-path="url(#p3781bc4821)" d="M 87.557727 70.144714 
L 87.557727 170.28 
L 89.079545 170.28 
L 89.079545 70.144714 
L 89.079545 70.144714 
L 87.557727 70.144714 
z
" style="fill:#cc0000;fill-opacity:0.355;"/>
   </g>
   <g id="PolyCollection_137">
    <path clip-path="url(#p3781bc4821)" d="M 89.079545 72.95505 
L 89.079545 170.28 
L 90.601364 170.28 
L 90.601364 72.95505 
L 90.601364 72.95505 
L 89.079545 72.95505 
z
" style="fill:#cc0000;fill-opacity:0.365;"/>
   </g>
   <g id="PolyCollection_138">
    <path clip-path="url(#p3781bc4821)" d="M 90.601364 76.156469 
L 90.601364 170.28 
L 92.123182 170.28 
L 92.123182 76.156469 
L 92.123182 76.156469 
L 90.601364 76.156469 
z
" style="fill:#cc0000;fill-opacity:0.375;"/>
   </g>
   <g id="PolyCollection_139">
    <path clip-path="url(#p3781bc4821)" d="M 92.123182 79.157799 
L 92.123182 170.28 
L 93.645 170.28 
L 93.645 79.157799 
L 93.645 79.157799 
L 92.123182 79.157799 
z
" style="fill:#cc0000;fill-opacity:0.385;"/>
   </g>
   <g id="PolyCollection_140">
    <path clip-path="url(#p3781bc4821)" d="M 93.645 82.413787 
L 93.645 170.28 
L 95.166818 170.28 
L 95.166818 82.413787 
L 95.166818 82.413787 
L 93.645 82.413787 
z
" style="fill:#cc0000;fill-opacity:0.395;"/>
   </g>
   <g id="PolyCollection_141">
    <path clip-path="url(#p3781bc4821)" d="M 95.166818 85.906244 
L 95.166818 170.28 
L 96.688636 170.28 
L 96.688636 85.906244 
L 96.688636 85.906244 
L 95.166818 85.906244 
z
" style="fill:#cc0000;fill-opacity:0.405;"/>
   </g>
   <g id="PolyCollection_142">
    <path clip-path="url(#p3781bc4821)" d="M 96.688636 90.089916 
L 96.688636 170.28 
L 98.210455 170.28 
L 98.210455 90.089916 
L 98.210455 90.089916 
L 96.688636 90.089916 
z
" style="fill:#cc0000;fill-opacity:0.415;"/>
   </g>
   <g id="PolyCollection_143">
    <path clip-path="url(#p3781bc4821)" d="M 98.210455 93.127626 
L 98.210455 170.28 
L 99.732273 170.28 
L 99.732273 93.127626 
L 99.732273 93.127626 
L 98.210455 93.127626 
z
" style="fill:#cc0000;fill-opacity:0.425;"/>
   </g>
   <g id="PolyCollection_144">
    <path clip-path="url(#p3781bc4821)" d="M 99.732273 96.838362 
L 99.732273 170.28 
L 101.254091 170.28 
L 101.254091 96.838362 
L 101.254091 96.838362 
L 99.732273 96.838362 
z
" style="fill:#cc0000;fill-opacity:0.435;"/>
   </g>
   <g id="PolyCollection_145">
    <path clip-path="url(#p3781bc4821)" d="M 101.254091 101.240313 
L 101.254091 170.28 
L 102.775909 170.28 
L 102.775909 101.240313 
L 102.775909 101.240313 
L 101.254091 101.240313 
z
" style="fill:#cc0000;fill-opacity:0.445;"/>
   </g>
   <g id="PolyCollection_146">
    <path clip-path="url(#p3781bc4821)" d="M 102.775909 104.496301 
L 102.775909 170.28 
L 104.297727 170.28 
L 104.297727 104.496301 
L 104.297727 104.496301 
L 102.775909 104.496301 
z
" style="fill:#cc0000;fill-opacity:0.455;"/>
   </g>
   <g id="PolyCollection_147">
    <path clip-path="url(#p3781bc4821)" d="M 104.297727 108.070612 
L 104.297727 170.28 
L 105.819545 170.28 
L 105.819545 108.070612 
L 105.819545 108.070612 
L 104.297727 108.070612 
z
" style="fill:#cc0000;fill-opacity:0.465;"/>
   </g>
   <g id="PolyCollection_148">
    <path clip-path="url(#p3781bc4821)" d="M 105.819545 109.989645 
L 105.819545 170.28 
L 107.341364 170.28 
L 107.341364 109.989645 
L 107.341364 109.989645 
L 105.819545 109.989645 
z
" style="fill:#cc0000;fill-opacity:0.475;"/>
   </g>
   <g id="PolyCollection_149">
    <path clip-path="url(#p3781bc4821)" d="M 107.341364 114.464355 
L 107.341364 170.28 
L 108.863182 170.28 
L 108.863182 114.464355 
L 108.863182 114.464355 
L 107.341364 114.464355 
z
" style="fill:#cc0000;fill-opacity:0.485;"/>
   </g>
   <g id="PolyCollection_150">
    <path clip-path="url(#p3781bc4821)" d="M 108.863182 117.465685 
L 108.863182 170.28 
L 110.385 170.28 
L 110.385 117.465685 
L 110.385 117.465685 
L 108.863182 117.465685 
z
" style="fill:#cc0000;fill-opacity:0.495;"/>
   </g>
   <g id="PolyCollection_151">
    <path clip-path="url(#p3781bc4821)" d="M 110.385 120.012268 
L 110.385 170.28 
L 111.906818 170.28 
L 111.906818 120.012268 
L 111.906818 120.012268 
L 110.385 120.012268 
z
" style="fill:#cc0000;fill-opacity:0.505;"/>
   </g>
   <g id="PolyCollection_152">
    <path clip-path="url(#p3781bc4821)" d="M 111.906818 124.086801 
L 111.906818 170.28 
L 113.428636 170.28 
L 113.428636 124.086801 
L 113.428636 124.086801 
L 111.906818 124.086801 
z
" style="fill:#cc0000;fill-opacity:0.515;"/>
   </g>
   <g id="PolyCollection_153">
    <path clip-path="url(#p3781bc4821)" d="M 113.428636 126.633384 
L 113.428636 170.28 
L 114.950455 170.28 
L 114.950455 126.633384 
L 114.950455 126.633384 
L 113.428636 126.633384 
z
" style="fill:#cc0000;fill-opacity:0.525;"/>
   </g>
   <g id="PolyCollection_154">
    <path clip-path="url(#p3781bc4821)" d="M 114.950455 129.061733 
L 114.950455 170.28 
L 116.472273 170.28 
L 116.472273 129.061733 
L 116.472273 129.061733 
L 114.950455 129.061733 
z
" style="fill:#cc0000;fill-opacity:0.535;"/>
   </g>
   <g id="PolyCollection_155">
    <path clip-path="url(#p3781bc4821)" d="M 116.472273 132.790658 
L 116.472273 170.28 
L 117.994091 170.28 
L 117.994091 132.790658 
L 117.994091 132.790658 
L 116.472273 132.790658 
z
" style="fill:#cc0000;fill-opacity:0.545;"/>
   </g>
   <g id="PolyCollection_156">
    <path clip-path="url(#p3781bc4821)" d="M 117.994091 134.600551 
L 117.994091 170.28 
L 119.515909 170.28 
L 119.515909 134.600551 
L 119.515909 134.600551 
L 117.994091 134.600551 
z
" style="fill:#cc0000;fill-opacity:0.555;"/>
   </g>
   <g id="PolyCollection_157">
    <path clip-path="url(#p3781bc4821)" d="M 119.515909 137.738306 
L 119.515909 170.28 
L 121.037727 170.28 
L 121.037727 137.738306 
L 121.037727 137.738306 
L 119.515909 137.738306 
z
" style="fill:#cc0000;fill-opacity:0.565;"/>
   </g>
   <g id="PolyCollection_158">
    <path clip-path="url(#p3781bc4821)" d="M 121.037727 139.930186 
L 121.037727 170.28 
L 122.559545 170.28 
L 122.559545 139.930186 
L 122.559545 139.930186 
L 121.037727 139.930186 
z
" style="fill:#cc0000;fill-opacity:0.575;"/>
   </g>
   <g id="PolyCollection_159">
    <path clip-path="url(#p3781bc4821)" d="M 122.559545 142.813282 
L 122.559545 170.28 
L 124.081364 170.28 
L 124.081364 142.813282 
L 124.081364 142.813282 
L 122.559545 142.813282 
z
" style="fill:#cc0000;fill-opacity:0.585;"/>
   </g>
   <g id="PolyCollection_160">
    <path clip-path="url(#p3781bc4821)" d="M 124.081364 144.195713 
L 124.081364 170.28 
L 125.603182 170.28 
L 125.603182 144.195713 
L 125.603182 144.195713 
L 124.081364 144.195713 
z
" style="fill:#cc0000;fill-opacity:0.595;"/>
   </g>
   <g id="PolyCollection_161">
    <path clip-path="url(#p3781bc4821)" d="M 125.603182 146.769581 
L 125.603182 170.28 
L 127.125 170.28 
L 127.125 146.769581 
L 127.125 146.769581 
L 125.603182 146.769581 
z
" style="fill:#cc0000;fill-opacity:0.605;"/>
   </g>
   <g id="PolyCollection_162">
    <path clip-path="url(#p3781bc4821)" d="M 127.125 148.288436 
L 127.125 170.28 
L 128.646818 170.28 
L 128.646818 148.288436 
L 128.646818 148.288436 
L 127.125 148.288436 
z
" style="fill:#cc0000;fill-opacity:0.615;"/>
   </g>
   <g id="PolyCollection_163">
    <path clip-path="url(#p3781bc4821)" d="M 128.646818 149.971 
L 128.646818 170.28 
L 130.168636 170.28 
L 130.168636 149.971 
L 130.168636 149.971 
L 128.646818 149.971 
z
" style="fill:#cc0000;fill-opacity:0.625;"/>
   </g>
   <g id="PolyCollection_164">
    <path clip-path="url(#p3781bc4821)" d="M 130.168636 151.789988 
L 130.168636 170.28 
L 131.690455 170.28 
L 131.690455 151.789988 
L 131.690455 151.789988 
L 130.168636 151.789988 
z
" style="fill:#cc0000;fill-opacity:0.635;"/>
   </g>
   <g id="PolyCollection_165">
    <path clip-path="url(#p3781bc4821)" d="M 131.690455 153.399792 
L 131.690455 170.28 
L 133.212273 170.28 
L 133.212273 153.399792 
L 133.212273 153.399792 
L 131.690455 153.399792 
z
" style="fill:#cc0000;fill-opacity:0.645;"/>
   </g>
   <g id="PolyCollection_166">
    <path clip-path="url(#p3781bc4821)" d="M 133.212273 155.009596 
L 133.212273 170.28 
L 134.734091 170.28 
L 134.734091 155.009596 
L 134.734091 155.009596 
L 133.212273 155.009596 
z
" style="fill:#cc0000;fill-opacity:0.655;"/>
   </g>
   <g id="PolyCollection_167">
    <path clip-path="url(#p3781bc4821)" d="M 134.734091 156.191938 
L 134.734091 170.28 
L 136.255909 170.28 
L 136.255909 156.191938 
L 136.255909 156.191938 
L 134.734091 156.191938 
z
" style="fill:#cc0000;fill-opacity:0.665;"/>
   </g>
   <g id="PolyCollection_168">
    <path clip-path="url(#p3781bc4821)" d="M 136.255909 158.129161 
L 136.255909 170.28 
L 137.777727 170.28 
L 137.777727 158.129161 
L 137.777727 158.129161 
L 136.255909 158.129161 
z
" style="fill:#cc0000;fill-opacity:0.675;"/>
   </g>
   <g id="PolyCollection_169">
    <path clip-path="url(#p3781bc4821)" d="M 137.777727 159.502496 
L 137.777727 170.28 
L 139.299545 170.28 
L 139.299545 159.502496 
L 139.299545 159.502496 
L 137.777727 159.502496 
z
" style="fill:#cc0000;fill-opacity:0.685;"/>
   </g>
   <g id="PolyCollection_170">
    <path clip-path="url(#p3781bc4821)" d="M 139.299545 160.53932 
L 139.299545 170.28 
L 140.821364 170.28 
L 140.821364 160.53932 
L 140.821364 160.53932 
L 139.299545 160.53932 
z
" style="fill:#cc0000;fill-opacity:0.695;"/>
   </g>
   <g id="PolyCollection_171">
    <path clip-path="url(#p3781bc4821)" d="M 140.821364 161.621617 
L 140.821364 170.28 
L 142.343182 170.28 
L 142.343182 161.621617 
L 142.343182 161.621617 
L 140.821364 161.621617 
z
" style="fill:#cc0000;fill-opacity:0.705;"/>
   </g>
   <g id="PolyCollection_172">
    <path clip-path="url(#p3781bc4821)" d="M 142.343182 162.340118 
L 142.343182 170.28 
L 143.865 170.28 
L 143.865 162.340118 
L 143.865 162.340118 
L 142.343182 162.340118 
z
" style="fill:#cc0000;fill-opacity:0.715;"/>
   </g>
   <g id="PolyCollection_173">
    <path clip-path="url(#p3781bc4821)" d="M 143.865 163.777118 
L 143.865 170.28 
L 145.386818 170.28 
L 145.386818 163.777118 
L 145.386818 163.777118 
L 143.865 163.777118 
z
" style="fill:#cc0000;fill-opacity:0.725;"/>
   </g>
   <g id="PolyCollection_174">
    <path clip-path="url(#p3781bc4821)" d="M 145.386818 164.20458 
L 145.386818 170.28 
L 146.908636 170.28 
L 146.908636 164.20458 
L 146.908636 164.20458 
L 145.386818 164.20458 
z
" style="fill:#cc0000;fill-opacity:0.735;"/>
   </g>
   <g id="PolyCollection_175">
    <path clip-path="url(#p3781bc4821)" d="M 146.908636 165.323258 
L 146.908636 170.28 
L 148.430455 170.28 
L 148.430455 165.323258 
L 148.430455 165.323258 
L 146.908636 165.323258 
z
" style="fill:#cc0000;fill-opacity:0.745;"/>
   </g>
   <g id="PolyCollection_176">
    <path clip-path="url(#p3781bc4821)" d="M 148.430455 165.905334 
L 148.430455 170.28 
L 149.952273 170.28 
L 149.952273 165.905334 
L 149.952273 165.905334 
L 148.430455 165.905334 
z
" style="fill:#cc0000;fill-opacity:0.755;"/>
   </g>
   <g id="PolyCollection_177">
    <path clip-path="url(#p3781bc4821)" d="M 149.952273 165.859859 
L 149.952273 170.28 
L 151.474091 170.28 
L 151.474091 165.859859 
L 151.474091 165.859859 
L 149.952273 165.859859 
z
" style="fill:#cc0000;fill-opacity:0.765;"/>
   </g>
   <g id="PolyCollection_178">
    <path clip-path="url(#p3781bc4821)" d="M 151.474091 167.005822 
L 151.474091 170.28 
L 152.995909 170.28 
L 152.995909 167.005822 
L 152.995909 167.005822 
L 151.474091 167.005822 
z
" style="fill:#cc0000;fill-opacity:0.775;"/>
   </g>
   <g id="PolyCollection_179">
    <path clip-path="url(#p3781bc4821)" d="M 152.995909 167.687942 
L 152.995909 170.28 
L 154.517727 170.28 
L 154.517727 167.687942 
L 154.517727 167.687942 
L 152.995909 167.687942 
z
" style="fill:#cc0000;fill-opacity:0.785;"/>
   </g>
   <g id="PolyCollection_180">
    <path clip-path="url(#p3781bc4821)" d="M 154.517727 167.815271 
L 154.517727 170.28 
L 156.039545 170.28 
L 156.039545 167.815271 
L 156.039545 167.815271 
L 154.517727 167.815271 
z
" style="fill:#cc0000;fill-opacity:0.795;"/>
   </g>
   <g id="PolyCollection_181">
    <path clip-path="url(#p3781bc4821)" d="M 156.039545 168.060835 
L 156.039545 170.28 
L 157.561364 170.28 
L 157.561364 168.060835 
L 157.561364 168.060835 
L 156.039545 168.060835 
z
" style="fill:#cc0000;fill-opacity:0.805;"/>
   </g>
   <g id="PolyCollection_182">
    <path clip-path="url(#p3781bc4821)" d="M 157.561364 168.888474 
L 157.561364 170.28 
L 159.083182 170.28 
L 159.083182 168.888474 
L 159.083182 168.888474 
L 157.561364 168.888474 
z
" style="fill:#cc0000;fill-opacity:0.815;"/>
   </g>
   <g id="PolyCollection_183">
    <path clip-path="url(#p3781bc4821)" d="M 159.083182 169.097658 
L 159.083182 170.28 
L 160.605 170.28 
L 160.605 169.097658 
L 160.605 169.097658 
L 159.083182 169.097658 
z
" style="fill:#cc0000;fill-opacity:0.825;"/>
   </g>
   <g id="PolyCollection_184">
    <path clip-path="url(#p3781bc4821)" d="M 160.605 169.415981 
L 160.605 170.28 
L 162.126818 170.28 
L 162.126818 169.415981 
L 162.126818 169.415981 
L 160.605 169.415981 
z
" style="fill:#cc0000;fill-opacity:0.835;"/>
   </g>
   <g id="PolyCollection_185">
    <path clip-path="url(#p3781bc4821)" d="M 162.126818 169.516025 
L 162.126818 170.28 
L 163.648636 170.28 
L 163.648636 169.516025 
L 163.648636 169.516025 
L 162.126818 169.516025 
z
" style="fill:#cc0000;fill-opacity:0.845;"/>
   </g>
   <g id="PolyCollection_186">
    <path clip-path="url(#p3781bc4821)" d="M 163.648636 169.752493 
L 163.648636 170.28 
L 165.170455 170.28 
L 165.170455 169.752493 
L 165.170455 169.752493 
L 163.648636 169.752493 
z
" style="fill:#cc0000;fill-opacity:0.855;"/>
   </g>
   <g id="PolyCollection_187">
    <path clip-path="url(#p3781bc4821)" d="M 165.170455 169.788873 
L 165.170455 170.28 
L 166.692273 170.28 
L 166.692273 169.788873 
L 166.692273 169.788873 
L 165.170455 169.788873 
z
" style="fill:#cc0000;fill-opacity:0.865;"/>
   </g>
   <g id="PolyCollection_188">
    <path clip-path="url(#p3781bc4821)" d="M 166.692273 169.907107 
L 166.692273 170.28 
L 168.214091 170.28 
L 168.214091 169.907107 
L 168.214091 169.907107 
L 166.692273 169.907107 
z
" style="fill:#cc0000;fill-opacity:0.875;"/>
   </g>
   <g id="PolyCollection_189">
    <path clip-path="url(#p3781bc4821)" d="M 168.214091 170.079911 
L 168.214091 170.28 
L 169.735909 170.28 
L 169.735909 170.079911 
L 169.735909 170.079911 
L 168.214091 170.079911 
z
" style="fill:#cc0000;fill-opacity:0.885;"/>
   </g>
   <g id="PolyCollection_190">
    <path clip-path="url(#p3781bc4821)" d="M 169.735909 170.070816 
L 169.735909 170.28 
L 171.257727 170.28 
L 171.257727 170.070816 
L 171.257727 170.070816 
L 169.735909 170.070816 
z
" style="fill:#cc0000;fill-opacity:0.895;"/>
   </g>
   <g id="PolyCollection_191">
    <path clip-path="url(#p3781bc4821)" d="M 171.257727 170.125386 
L 171.257727 170.28 
L 172.779545 170.28 
L 172.779545 170.125386 
L 172.779545 170.125386 
L 171.257727 170.125386 
z
" style="fill:#cc0000;fill-opacity:0.905;"/>
   </g>
   <g id="PolyCollection_192">
    <path clip-path="url(#p3781bc4821)" d="M 172.779545 170.216335 
L 172.779545 170.28 
L 174.301364 170.28 
L 174.301364 170.216335 
L 174.301364 170.216335 
L 172.779545 170.216335 
z
" style="fill:#cc0000;fill-opacity:0.915;"/>
   </g>
   <g id="PolyCollection_193">
    <path clip-path="url(#p3781bc4821)" d="M 174.301364 170.20724 
L 174.301364 170.28 
L 175.823182 170.28 
L 175.823182 170.20724 
L 175.823182 170.20724 
L 174.301364 170.20724 
z
" style="fill:#cc0000;fill-opacity:0.925;"/>
   </g>
   <g id="PolyCollection_194">
    <path clip-path="url(#p3781bc4821)" d="M 175.823182 170.26181 
L 175.823182 170.28 
L 177.345 170.28 
L 177.345 170.26181 
L 177.345 170.26181 
L 175.823182 170.26181 
z
" style="fill:#cc0000;fill-opacity:0.935;"/>
   </g>
   <g id="PolyCollection_195">
    <path clip-path="url(#p3781bc4821)" d="M 177.345 170.270905 
L 177.345 170.28 
L 178.866818 170.28 
L 178.866818 170.270905 
L 178.866818 170.270905 
L 177.345 170.270905 
z
" style="fill:#cc0000;fill-opacity:0.945;"/>
   </g>
   <g id="PolyCollection_196">
    <path clip-path="url(#p3781bc4821)" d="M 178.866818 170.270905 
L 178.866818 170.28 
L 180.388636 170.28 
L 180.388636 170.270905 
L 180.388636 170.270905 
L 178.866818 170.270905 
z
" style="fill:#cc0000;fill-opacity:0.955;"/>
   </g>
   <g id="PolyCollection_197">
    <path clip-path="url(#p3781bc4821)" d="M 180.388636 170.28 
L 180.388636 170.28 
L 181.910455 170.28 
L 181.910455 170.28 
L 181.910455 170.28 
L 180.388636 170.28 
z
" style="fill:#cc0000;fill-opacity:0.965;"/>
   </g>
   <g id="PolyCollection_198">
    <path clip-path="url(#p3781bc4821)" d="M 181.910455 170.28 
L 181.910455 170.28 
L 183.432273 170.28 
L 183.432273 170.28 
L 183.432273 170.28 
L 181.910455 170.28 
z
" style="fill:#cc0000;fill-opacity:0.975;"/>
   </g>
   <g id="PolyCollection_199">
    <path clip-path="url(#p3781bc4821)" d="M 183.432273 170.28 
L 183.432273 170.28 
L 184.954091 170.28 
L 184.954091 170.28 
L 184.954091 170.28 
L 183.432273 170.28 
z
" style="fill:#cc0000;fill-opacity:0.985;"/>
   </g>
   <g id="PolyCollection_200">
    <path clip-path="url(#p3781bc4821)" d="M 184.954091 170.28 
L 184.954091 170.28 
L 186.475909 170.28 
L 186.475909 170.28 
L 186.475909 170.28 
L 184.954091 170.28 
z
" style="fill:#cc0000;fill-opacity:0.995;"/>
   </g>
   <g id="matplotlib.axis_1">
    <g id="xtick_1">
     <g id="line2d_1">
      <defs>
       <path d="M 0 0 
L 0 3.5 
" id="m103f856530" style="stroke:#000000;stroke-width:0.8;"/>
      </defs>
      <g>
       <use style="stroke:#000000;stroke-width:0.8;" x="34.294091" xlink:href="#m103f856530" y="170.28"/>
      </g>
     </g>
     <g id="text_1">
      <!-- 0.0 -->
      <defs>
       <path d="M 31.78125 66.40625 
Q 24.171875 66.40625 20.328125 58.90625 
Q 16.5 51.421875 16.5 36.375 
Q 16.5 21.390625 20.328125 13.890625 
Q 24.171875 6.390625 31.78125 6.390625 
Q 39.453125 6.390625 43.28125 13.890625 
Q 47.125 21.390625 47.125 36.375 
Q 47.125 51.421875 43.28125 58.90625 
Q 39.453125 66.40625 31.78125 66.40625 
z
M 31.78125 74.21875 
Q 44.046875 74.21875 50.515625 64.515625 
Q 56.984375 54.828125 56.984375 36.375 
Q 56.984375 17.96875 50.515625 8.265625 
Q 44.046875 -1.421875 31.78125 -1.421875 
Q 19.53125 -1.421875 13.0625 8.265625 
Q 6.59375 17.96875 6.59375 36.375 
Q 6.59375 54.828125 13.0625 64.515625 
Q 19.53125 74.21875 31.78125 74.21875 
z
" id="DejaVuSans-48"/>
       <path d="M 10.6875 12.40625 
L 21 12.40625 
L 21 0 
L 10.6875 0 
z
" id="DejaVuSans-46"/>
      </defs>
      <g transform="translate(23.161903 187.917813)scale(0.14 -0.14)">
       <use xlink:href="#DejaVuSans-48"/>
       <use x="63.623047" xlink:href="#DejaVuSans-46"/>
       <use x="95.410156" xlink:href="#DejaVuSans-48"/>
      </g>
     </g>
    </g>
    <g id="xtick_2">
     <g id="line2d_2">
      <g>
       <use style="stroke:#000000;stroke-width:0.8;" x="110.385" xlink:href="#m103f856530" y="170.28"/>
      </g>
     </g>
     <g id="text_2">
      <!-- 0.5 -->
      <defs>
       <path d="M 10.796875 72.90625 
L 49.515625 72.90625 
L 49.515625 64.59375 
L 19.828125 64.59375 
L 19.828125 46.734375 
Q 21.96875 47.46875 24.109375 47.828125 
Q 26.265625 48.1875 28.421875 48.1875 
Q 40.625 48.1875 47.75 41.5 
Q 54.890625 34.8125 54.890625 23.390625 
Q 54.890625 11.625 47.5625 5.09375 
Q 40.234375 -1.421875 26.90625 -1.421875 
Q 22.3125 -1.421875 17.546875 -0.640625 
Q 12.796875 0.140625 7.71875 1.703125 
L 7.71875 11.625 
Q 12.109375 9.234375 16.796875 8.0625 
Q 21.484375 6.890625 26.703125 6.890625 
Q 35.15625 6.890625 40.078125 11.328125 
Q 45.015625 15.765625 45.015625 23.390625 
Q 45.015625 31 40.078125 35.4375 
Q 35.15625 39.890625 26.703125 39.890625 
Q 22.75 39.890625 18.8125 39.015625 
Q 14.890625 38.140625 10.796875 36.28125 
z
" id="DejaVuSans-53"/>
      </defs>
      <g transform="translate(99.252813 187.917813)scale(0.14 -0.14)">
       <use xlink:href="#DejaVuSans-48"/>
       <use x="63.623047" xlink:href="#DejaVuSans-46"/>
       <use x="95.410156" xlink:href="#DejaVuSans-53"/>
      </g>
     </g>
    </g>
    <g id="xtick_3">
     <g id="line2d_3">
      <g>
       <use style="stroke:#000000;stroke-width:0.8;" x="186.475909" xlink:href="#m103f856530" y="170.28"/>
      </g>
     </g>
     <g id="text_3">
      <!-- 1.0 -->
      <defs>
       <path d="M 12.40625 8.296875 
L 28.515625 8.296875 
L 28.515625 63.921875 
L 10.984375 60.40625 
L 10.984375 69.390625 
L 28.421875 72.90625 
L 38.28125 72.90625 
L 38.28125 8.296875 
L 54.390625 8.296875 
L 54.390625 0 
L 12.40625 0 
z
" id="DejaVuSans-49"/>
      </defs>
      <g transform="translate(175.343722 187.917813)scale(0.14 -0.14)">
       <use xlink:href="#DejaVuSans-49"/>
       <use x="63.623047" xlink:href="#DejaVuSans-46"/>
       <use x="95.410156" xlink:href="#DejaVuSans-48"/>
      </g>
     </g>
    </g>
    <g id="text_4">
     <!-- $C(X)$ -->
     <defs>
      <path d="M 69.484375 67.28125 
L 67.484375 56.890625 
Q 62.796875 61.625 57.546875 63.921875 
Q 52.296875 66.21875 46.1875 66.21875 
Q 37.84375 66.21875 31.515625 62.203125 
Q 25.203125 58.203125 20.609375 50 
Q 17.671875 44.734375 16.125 38.84375 
Q 14.59375 32.953125 14.59375 27 
Q 14.59375 17.046875 19.75 11.8125 
Q 24.90625 6.59375 34.71875 6.59375 
Q 41.5 6.59375 47.75 8.765625 
Q 54 10.9375 59.90625 15.28125 
L 57.625 3.609375 
Q 51.8125 1.125 45.875 -0.140625 
Q 39.9375 -1.421875 33.984375 -1.421875 
Q 19.96875 -1.421875 12.078125 6.1875 
Q 4.203125 13.8125 4.203125 27.390625 
Q 4.203125 36.078125 7.203125 44.46875 
Q 10.203125 52.875 15.828125 59.8125 
Q 21.78125 67.1875 29.421875 70.703125 
Q 37.0625 74.21875 47.21875 74.21875 
Q 53.46875 74.21875 59.0625 72.484375 
Q 64.65625 70.75 69.484375 67.28125 
z
" id="DejaVuSans-Oblique-67"/>
      <path d="M 31 75.875 
Q 24.46875 64.65625 21.28125 53.65625 
Q 18.109375 42.671875 18.109375 31.390625 
Q 18.109375 20.125 21.3125 9.0625 
Q 24.515625 -2 31 -13.1875 
L 23.1875 -13.1875 
Q 15.875 -1.703125 12.234375 9.375 
Q 8.59375 20.453125 8.59375 31.390625 
Q 8.59375 42.28125 12.203125 53.3125 
Q 15.828125 64.359375 23.1875 75.875 
z
" id="DejaVuSans-40"/>
      <path d="M 13.71875 72.90625 
L 23.6875 72.90625 
L 36.1875 46.578125 
L 58.796875 72.90625 
L 70.3125 72.90625 
L 40.28125 38.09375 
L 58.40625 0 
L 48.484375 0 
L 33.796875 30.71875 
L 7.171875 0 
L -4.296875 0 
L 29.78125 39.203125 
z
" id="DejaVuSans-Oblique-88"/>
      <path d="M 8.015625 75.875 
L 15.828125 75.875 
Q 23.140625 64.359375 26.78125 53.3125 
Q 30.421875 42.28125 30.421875 31.390625 
Q 30.421875 20.453125 26.78125 9.375 
Q 23.140625 -1.703125 15.828125 -13.1875 
L 8.015625 -13.1875 
Q 14.5 -2 17.703125 9.0625 
Q 20.90625 20.125 20.90625 31.390625 
Q 20.90625 42.671875 17.703125 53.65625 
Q 14.5 64.65625 8.015625 75.875 
z
" id="DejaVuSans-41"/>
     </defs>
     <g transform="translate(93.025 206.986875)scale(0.16 -0.16)">
      <use transform="translate(0 0.125)" xlink:href="#DejaVuSans-Oblique-67"/>
      <use transform="translate(69.824219 0.125)" xlink:href="#DejaVuSans-40"/>
      <use transform="translate(108.837891 0.125)" xlink:href="#DejaVuSans-Oblique-88"/>
      <use transform="translate(177.34375 0.125)" xlink:href="#DejaVuSans-41"/>
     </g>
    </g>
   </g>
   <g id="matplotlib.axis_2">
    <g id="text_5">
     <!-- density -->
     <defs>
      <path d="M 45.40625 46.390625 
L 45.40625 75.984375 
L 54.390625 75.984375 
L 54.390625 0 
L 45.40625 0 
L 45.40625 8.203125 
Q 42.578125 3.328125 38.25 0.953125 
Q 33.9375 -1.421875 27.875 -1.421875 
Q 17.96875 -1.421875 11.734375 6.484375 
Q 5.515625 14.40625 5.515625 27.296875 
Q 5.515625 40.1875 11.734375 48.09375 
Q 17.96875 56 27.875 56 
Q 33.9375 56 38.25 53.625 
Q 42.578125 51.265625 45.40625 46.390625 
z
M 14.796875 27.296875 
Q 14.796875 17.390625 18.875 11.75 
Q 22.953125 6.109375 30.078125 6.109375 
Q 37.203125 6.109375 41.296875 11.75 
Q 45.40625 17.390625 45.40625 27.296875 
Q 45.40625 37.203125 41.296875 42.84375 
Q 37.203125 48.484375 30.078125 48.484375 
Q 22.953125 48.484375 18.875 42.84375 
Q 14.796875 37.203125 14.796875 27.296875 
z
" id="DejaVuSans-100"/>
      <path d="M 56.203125 29.59375 
L 56.203125 25.203125 
L 14.890625 25.203125 
Q 15.484375 15.921875 20.484375 11.0625 
Q 25.484375 6.203125 34.421875 6.203125 
Q 39.59375 6.203125 44.453125 7.46875 
Q 49.3125 8.734375 54.109375 11.28125 
L 54.109375 2.78125 
Q 49.265625 0.734375 44.1875 -0.34375 
Q 39.109375 -1.421875 33.890625 -1.421875 
Q 20.796875 -1.421875 13.15625 6.1875 
Q 5.515625 13.8125 5.515625 26.8125 
Q 5.515625 40.234375 12.765625 48.109375 
Q 20.015625 56 32.328125 56 
Q 43.359375 56 49.78125 48.890625 
Q 56.203125 41.796875 56.203125 29.59375 
z
M 47.21875 32.234375 
Q 47.125 39.59375 43.09375 43.984375 
Q 39.0625 48.390625 32.421875 48.390625 
Q 24.90625 48.390625 20.390625 44.140625 
Q 15.875 39.890625 15.1875 32.171875 
z
" id="DejaVuSans-101"/>
      <path d="M 54.890625 33.015625 
L 54.890625 0 
L 45.90625 0 
L 45.90625 32.71875 
Q 45.90625 40.484375 42.875 44.328125 
Q 39.84375 48.1875 33.796875 48.1875 
Q 26.515625 48.1875 22.3125 43.546875 
Q 18.109375 38.921875 18.109375 30.90625 
L 18.109375 0 
L 9.078125 0 
L 9.078125 54.6875 
L 18.109375 54.6875 
L 18.109375 46.1875 
Q 21.34375 51.125 25.703125 53.5625 
Q 30.078125 56 35.796875 56 
Q 45.21875 56 50.046875 50.171875 
Q 54.890625 44.34375 54.890625 33.015625 
z
" id="DejaVuSans-110"/>
      <path d="M 44.28125 53.078125 
L 44.28125 44.578125 
Q 40.484375 46.53125 36.375 47.5 
Q 32.28125 48.484375 27.875 48.484375 
Q 21.1875 48.484375 17.84375 46.4375 
Q 14.5 44.390625 14.5 40.28125 
Q 14.5 37.15625 16.890625 35.375 
Q 19.28125 33.59375 26.515625 31.984375 
L 29.59375 31.296875 
Q 39.15625 29.25 43.1875 25.515625 
Q 47.21875 21.78125 47.21875 15.09375 
Q 47.21875 7.46875 41.1875 3.015625 
Q 35.15625 -1.421875 24.609375 -1.421875 
Q 20.21875 -1.421875 15.453125 -0.5625 
Q 10.6875 0.296875 5.421875 2 
L 5.421875 11.28125 
Q 10.40625 8.6875 15.234375 7.390625 
Q 20.0625 6.109375 24.8125 6.109375 
Q 31.15625 6.109375 34.5625 8.28125 
Q 37.984375 10.453125 37.984375 14.40625 
Q 37.984375 18.0625 35.515625 20.015625 
Q 33.0625 21.96875 24.703125 23.78125 
L 21.578125 24.515625 
Q 13.234375 26.265625 9.515625 29.90625 
Q 5.8125 33.546875 5.8125 39.890625 
Q 5.8125 47.609375 11.28125 51.796875 
Q 16.75 56 26.8125 56 
Q 31.78125 56 36.171875 55.265625 
Q 40.578125 54.546875 44.28125 53.078125 
z
" id="DejaVuSans-115"/>
      <path d="M 9.421875 54.6875 
L 18.40625 54.6875 
L 18.40625 0 
L 9.421875 0 
z
M 9.421875 75.984375 
L 18.40625 75.984375 
L 18.40625 64.59375 
L 9.421875 64.59375 
z
" id="DejaVuSans-105"/>
      <path d="M 18.3125 70.21875 
L 18.3125 54.6875 
L 36.8125 54.6875 
L 36.8125 47.703125 
L 18.3125 47.703125 
L 18.3125 18.015625 
Q 18.3125 11.328125 20.140625 9.421875 
Q 21.96875 7.515625 27.59375 7.515625 
L 36.8125 7.515625 
L 36.8125 0 
L 27.59375 0 
Q 17.1875 0 13.234375 3.875 
Q 9.28125 7.765625 9.28125 18.015625 
L 9.28125 47.703125 
L 2.6875 47.703125 
L 2.6875 54.6875 
L 9.28125 54.6875 
L 9.28125 70.21875 
z
" id="DejaVuSans-116"/>
      <path d="M 32.171875 -5.078125 
Q 28.375 -14.84375 24.75 -17.8125 
Q 21.140625 -20.796875 15.09375 -20.796875 
L 7.90625 -20.796875 
L 7.90625 -13.28125 
L 13.1875 -13.28125 
Q 16.890625 -13.28125 18.9375 -11.515625 
Q 21 -9.765625 23.484375 -3.21875 
L 25.09375 0.875 
L 2.984375 54.6875 
L 12.5 54.6875 
L 29.59375 11.921875 
L 46.6875 54.6875 
L 56.203125 54.6875 
z
" id="DejaVuSans-121"/>
     </defs>
     <g transform="translate(19.3575 118.0725)rotate(-90)scale(0.16 -0.16)">
      <use xlink:href="#DejaVuSans-100"/>
      <use x="63.476562" xlink:href="#DejaVuSans-101"/>
      <use x="125" xlink:href="#DejaVuSans-110"/>
      <use x="188.378906" xlink:href="#DejaVuSans-115"/>
      <use x="240.478516" xlink:href="#DejaVuSans-105"/>
      <use x="268.261719" xlink:href="#DejaVuSans-116"/>
      <use x="307.470703" xlink:href="#DejaVuSans-121"/>
     </g>
    </g>
   </g>
   <g id="patch_3">
    <path d="M 26.685 170.28 
L 26.685 7.2 
" style="fill:none;stroke:#000000;stroke-linecap:square;stroke-linejoin:miter;stroke-width:0.8;"/>
   </g>
   <g id="patch_4">
    <path d="M 26.685 170.28 
L 194.085 170.28 
" style="fill:none;stroke:#000000;stroke-linecap:square;stroke-linejoin:miter;stroke-width:0.8;"/>
   </g>
   <g id="line2d_4">
    <path clip-path="url(#p3781bc4821)" d="M 35.055 170.28 
L 36.576818 170.28 
L 38.098636 170.28 
L 39.620455 170.28 
L 41.142273 170.28 
L 42.664091 170.28 
L 44.185909 170.28 
L 45.707727 170.28 
L 47.229545 170.28 
L 48.751364 170.28 
L 50.273182 170.28 
L 51.795 170.28 
L 53.316818 170.28 
L 54.838636 170.28 
L 56.360455 170.28 
L 57.882273 170.28 
L 59.404091 170.28 
L 60.925909 170.28 
L 62.447727 170.28 
L 63.969545 170.28 
L 65.491364 170.28 
L 67.013182 170.28 
L 68.535 170.28 
L 70.056818 170.28 
L 71.578636 170.26181 
L 73.100455 170.24362 
L 74.622273 170.24362 
L 76.144091 170.270905 
L 77.665909 170.252715 
L 79.187727 170.24362 
L 80.709545 170.216335 
L 82.231364 170.22543 
L 83.753182 170.116291 
L 85.275 170.125386 
L 86.796818 170.107196 
L 88.318636 170.089006 
L 89.840455 169.952582 
L 91.362273 169.870728 
L 92.884091 169.888918 
L 94.405909 169.652449 
L 95.927727 169.625164 
L 97.449545 169.415981 
L 98.971364 169.315936 
L 100.493182 168.943044 
L 102.015 168.924854 
L 103.536818 168.324588 
L 105.058636 167.951695 
L 106.580455 167.615183 
L 108.102273 167.151341 
L 109.624091 166.57836 
L 111.145909 165.759815 
L 112.667727 165.450587 
L 114.189545 164.404669 
L 115.711364 163.686169 
L 117.233182 162.71301 
L 118.755 160.757598 
L 120.276818 160.002718 
L 121.798636 158.665762 
L 123.320455 156.510261 
L 124.842273 155.409774 
L 126.364091 152.14469 
L 127.885909 151.626279 
L 129.407727 148.133822 
L 130.929545 146.551302 
L 132.451364 142.840567 
L 133.973182 139.684623 
L 135.495 135.755609 
L 137.016818 132.254057 
L 138.538636 130.298645 
L 140.060455 124.868966 
L 141.582273 119.339243 
L 143.104091 116.519811 
L 144.625909 108.561739 
L 146.147727 103.604997 
L 147.669545 98.011609 
L 149.191364 88.671106 
L 150.713182 85.624301 
L 152.235 79.230558 
L 153.756818 74.601234 
L 155.278636 66.497643 
L 156.800455 59.776482 
L 158.322273 53.38274 
L 159.844091 45.85213 
L 161.365909 39.68576 
L 162.887727 35.511183 
L 164.409545 29.772276 
L 165.931364 23.160255 
L 167.453182 18.65826 
L 168.975 17.103025 
L 170.496818 15.356797 
L 172.018636 14.965714 
L 173.540455 16.484569 
L 175.062273 22.268951 
L 176.584091 27.598586 
L 178.105909 38.758077 
L 179.627727 51.527372 
L 181.149545 68.707713 
L 182.671364 92.172658 
L 184.193182 116.965463 
L 185.715 151.808177 
" style="fill:none;stroke:#3d85c6;stroke-linecap:square;stroke-width:2;"/>
   </g>
   <g id="line2d_5">
    <path clip-path="url(#p3781bc4821)" d="M 35.055 162.476542 
L 36.576818 147.606315 
L 38.098636 132.945272 
L 39.620455 120.394256 
L 41.142273 110.362537 
L 42.664091 97.77514 
L 44.185909 89.817068 
L 45.707727 82.550211 
L 47.229545 71.436195 
L 48.751364 66.834156 
L 50.273182 59.667343 
L 51.795 52.727904 
L 53.316818 50.30865 
L 54.838636 45.270053 
L 56.360455 44.378749 
L 57.882273 41.659362 
L 59.404091 40.104128 
L 60.925909 37.357456 
L 62.447727 35.020056 
L 63.969545 35.656702 
L 65.491364 38.239665 
L 67.013182 38.939975 
L 68.535 37.248317 
L 70.056818 39.149159 
L 71.578636 40.267837 
L 73.100455 40.831723 
L 74.622273 43.351021 
L 76.144091 45.524712 
L 77.665909 48.753415 
L 79.187727 49.599245 
L 80.709545 54.246759 
L 82.231364 59.221691 
L 83.753182 60.249419 
L 85.275 62.595914 
L 86.796818 65.906472 
L 88.318636 70.144714 
L 89.840455 72.95505 
L 91.362273 76.156469 
L 92.884091 79.157799 
L 94.405909 82.413787 
L 95.927727 85.906244 
L 97.449545 90.089916 
L 98.971364 93.127626 
L 100.493182 96.838362 
L 102.015 101.240313 
L 103.536818 104.496301 
L 105.058636 108.070612 
L 106.580455 109.989645 
L 108.102273 114.464355 
L 109.624091 117.465685 
L 111.145909 120.012268 
L 112.667727 124.086801 
L 114.189545 126.633384 
L 115.711364 129.061733 
L 117.233182 132.790658 
L 118.755 134.600551 
L 120.276818 137.738306 
L 121.798636 139.930186 
L 123.320455 142.813282 
L 124.842273 144.195713 
L 126.364091 146.769581 
L 127.885909 148.288436 
L 129.407727 149.971 
L 130.929545 151.789988 
L 132.451364 153.399792 
L 133.973182 155.009596 
L 135.495 156.191938 
L 137.016818 158.129161 
L 138.538636 159.502496 
L 140.060455 160.53932 
L 141.582273 161.621617 
L 143.104091 162.340118 
L 144.625909 163.777118 
L 146.147727 164.20458 
L 147.669545 165.323258 
L 149.191364 165.905334 
L 150.713182 165.859859 
L 152.235 167.005822 
L 153.756818 167.687942 
L 155.278636 167.815271 
L 156.800455 168.060835 
L 158.322273 168.888474 
L 159.844091 169.097658 
L 161.365909 169.415981 
L 162.887727 169.516025 
L 164.409545 169.752493 
L 165.931364 169.788873 
L 167.453182 169.907107 
L 168.975 170.079911 
L 170.496818 170.070816 
L 172.018636 170.125386 
L 173.540455 170.216335 
L 175.062273 170.20724 
L 176.584091 170.26181 
L 178.105909 170.270905 
L 179.627727 170.270905 
L 181.149545 170.28 
L 182.671364 170.28 
L 184.193182 170.28 
L 185.715 170.28 
" style="fill:none;stroke:#cc0000;stroke-linecap:square;stroke-width:2;"/>
   </g>
  </g>
 </g>
 <defs>
  <clipPath id="p3781bc4821">
   <rect height="163.08" width="167.4" x="26.685" y="7.2"/>
  </clipPath>
 </defs>
</svg>
