<?xml version="1.0" encoding="utf-8" standalone="no"?>
<!DOCTYPE svg PUBLIC "-//W3C//DTD SVG 1.1//EN"
  "http://www.w3.org/Graphics/SVG/1.1/DTD/svg11.dtd">
<!-- Created with matplotlib (https://matplotlib.org/) -->
<svg height="217.514375pt" version="1.1" viewBox="0 0 234.747472 217.514375" width="234.747472pt" xmlns="http://www.w3.org/2000/svg" xmlns:xlink="http://www.w3.org/1999/xlink">
 <defs>
  <style type="text/css">
*{stroke-linecap:butt;stroke-linejoin:round;}
  </style>
 </defs>
 <g id="figure_1">
  <g id="patch_1">
   <path d="M 0 217.514375 
L 234.747472 217.514375 
L 234.747472 0 
L 0 0 
z
" style="fill:#ffffff;"/>
  </g>
  <g id="axes_1">
   <g id="patch_2">
    <path d="M 56.624375 170.28 
L 224.024375 170.28 
L 224.024375 7.2 
L 56.624375 7.2 
z
" style="fill:#ffffff;"/>
   </g>
   <g id="PolyCollection_1">
    <path clip-path="url(#pa9fc9b2c19)" d="M 64.233466 170.28 
L 64.233466 170.28 
L 79.451648 170.28 
L 79.451648 170.28 
L 79.451648 170.28 
L 64.233466 170.28 
z
" style="fill:#3d85c6;fill-opacity:0.05;"/>
   </g>
   <g id="PolyCollection_2">
    <path clip-path="url(#pa9fc9b2c19)" d="M 64.233466 14.965714 
L 64.233466 170.28 
L 79.451648 170.28 
L 79.451648 14.965714 
L 79.451648 14.965714 
L 64.233466 14.965714 
z
" style="fill:#cc0000;fill-opacity:0.05;"/>
   </g>
   <g id="PolyCollection_3">
    <path clip-path="url(#pa9fc9b2c19)" d="M 79.451648 153.022857 
L 79.451648 170.28 
L 94.66983 170.28 
L 94.66983 153.022857 
L 94.66983 153.022857 
L 79.451648 153.022857 
z
" style="fill:#3d85c6;fill-opacity:0.15;"/>
   </g>
   <g id="PolyCollection_4">
    <path clip-path="url(#pa9fc9b2c19)" d="M 79.451648 14.965714 
L 79.451648 153.022857 
L 94.66983 153.022857 
L 94.66983 14.965714 
L 94.66983 14.965714 
L 79.451648 14.965714 
z
" style="fill:#cc0000;fill-opacity:0.15;"/>
   </g>
   <g id="PolyCollection_5">
    <path clip-path="url(#pa9fc9b2c19)" d="M 94.66983 135.765714 
L 94.66983 170.28 
L 109.888011 170.28 
L 109.888011 135.765714 
L 109.888011 135.765714 
L 94.66983 135.765714 
z
" style="fill:#3d85c6;fill-opacity:0.25;"/>
   </g>
   <g id="PolyCollection_6">
    <path clip-path="url(#pa9fc9b2c19)" d="M 94.66983 14.965714 
L 94.66983 135.765714 
L 109.888011 135.765714 
L 109.888011 14.965714 
L 109.888011 14.965714 
L 94.66983 14.965714 
z
" style="fill:#cc0000;fill-opacity:0.25;"/>
   </g>
   <g id="PolyCollection_7">
    <path clip-path="url(#pa9fc9b2c19)" d="M 109.888011 118.508571 
L 109.888011 170.28 
L 125.106193 170.28 
L 125.106193 118.508571 
L 125.106193 118.508571 
L 109.888011 118.508571 
z
" style="fill:#3d85c6;fill-opacity:0.35;"/>
   </g>
   <g id="PolyCollection_8">
    <path clip-path="url(#pa9fc9b2c19)" d="M 109.888011 14.965714 
L 109.888011 118.508571 
L 125.106193 118.508571 
L 125.106193 14.965714 
L 125.106193 14.965714 
L 109.888011 14.965714 
z
" style="fill:#cc0000;fill-opacity:0.35;"/>
   </g>
   <g id="PolyCollection_9">
    <path clip-path="url(#pa9fc9b2c19)" d="M 125.106193 101.251429 
L 125.106193 170.28 
L 140.324375 170.28 
L 140.324375 101.251429 
L 140.324375 101.251429 
L 125.106193 101.251429 
z
" style="fill:#3d85c6;fill-opacity:0.45;"/>
   </g>
   <g id="PolyCollection_10">
    <path clip-path="url(#pa9fc9b2c19)" d="M 125.106193 14.965714 
L 125.106193 101.251429 
L 140.324375 101.251429 
L 140.324375 14.965714 
L 140.324375 14.965714 
L 125.106193 14.965714 
z
" style="fill:#cc0000;fill-opacity:0.45;"/>
   </g>
   <g id="PolyCollection_11">
    <path clip-path="url(#pa9fc9b2c19)" d="M 140.324375 83.994286 
L 140.324375 170.28 
L 155.542557 170.28 
L 155.542557 83.994286 
L 155.542557 83.994286 
L 140.324375 83.994286 
z
" style="fill:#3d85c6;fill-opacity:0.55;"/>
   </g>
   <g id="PolyCollection_12">
    <path clip-path="url(#pa9fc9b2c19)" d="M 140.324375 14.965714 
L 140.324375 83.994286 
L 155.542557 83.994286 
L 155.542557 14.965714 
L 155.542557 14.965714 
L 140.324375 14.965714 
z
" style="fill:#cc0000;fill-opacity:0.55;"/>
   </g>
   <g id="PolyCollection_13">
    <path clip-path="url(#pa9fc9b2c19)" d="M 155.542557 66.737143 
L 155.542557 170.28 
L 170.760739 170.28 
L 170.760739 66.737143 
L 170.760739 66.737143 
L 155.542557 66.737143 
z
" style="fill:#3d85c6;fill-opacity:0.65;"/>
   </g>
   <g id="PolyCollection_14">
    <path clip-path="url(#pa9fc9b2c19)" d="M 155.542557 14.965714 
L 155.542557 66.737143 
L 170.760739 66.737143 
L 170.760739 14.965714 
L 170.760739 14.965714 
L 155.542557 14.965714 
z
" style="fill:#cc0000;fill-opacity:0.65;"/>
   </g>
   <g id="PolyCollection_15">
    <path clip-path="url(#pa9fc9b2c19)" d="M 170.760739 49.48 
L 170.760739 170.28 
L 185.97892 170.28 
L 185.97892 49.48 
L 185.97892 49.48 
L 170.760739 49.48 
z
" style="fill:#3d85c6;fill-opacity:0.75;"/>
   </g>
   <g id="PolyCollection_16">
    <path clip-path="url(#pa9fc9b2c19)" d="M 170.760739 14.965714 
L 170.760739 49.48 
L 185.97892 49.48 
L 185.97892 14.965714 
L 185.97892 14.965714 
L 170.760739 14.965714 
z
" style="fill:#cc0000;fill-opacity:0.75;"/>
   </g>
   <g id="PolyCollection_17">
    <path clip-path="url(#pa9fc9b2c19)" d="M 185.97892 32.222857 
L 185.97892 170.28 
L 201.197102 170.28 
L 201.197102 32.222857 
L 201.197102 32.222857 
L 185.97892 32.222857 
z
" style="fill:#3d85c6;fill-opacity:0.85;"/>
   </g>
   <g id="PolyCollection_18">
    <path clip-path="url(#pa9fc9b2c19)" d="M 185.97892 14.965714 
L 185.97892 32.222857 
L 201.197102 32.222857 
L 201.197102 14.965714 
L 201.197102 14.965714 
L 185.97892 14.965714 
z
" style="fill:#cc0000;fill-opacity:0.85;"/>
   </g>
   <g id="PolyCollection_19">
    <path clip-path="url(#pa9fc9b2c19)" d="M 201.197102 14.965714 
L 201.197102 170.28 
L 216.415284 170.28 
L 216.415284 14.965714 
L 216.415284 14.965714 
L 201.197102 14.965714 
z
" style="fill:#3d85c6;fill-opacity:0.95;"/>
   </g>
   <g id="PolyCollection_20">
    <path clip-path="url(#pa9fc9b2c19)" d="M 201.197102 14.965714 
L 201.197102 14.965714 
L 216.415284 14.965714 
L 216.415284 14.965714 
L 216.415284 14.965714 
L 201.197102 14.965714 
z
" style="fill:#cc0000;fill-opacity:0.95;"/>
   </g>
   <g id="matplotlib.axis_1">
    <g id="xtick_1">
     <g id="line2d_1">
      <defs>
       <path d="M 0 0 
L 0 3.5 
" id="m35dbbfd0a8" style="stroke:#000000;stroke-width:0.8;"/>
      </defs>
      <g>
       <use style="stroke:#000000;stroke-width:0.8;" x="64.233466" xlink:href="#m35dbbfd0a8" y="170.28"/>
      </g>
     </g>
     <g id="text_1">
      <!-- 0.0 -->
      <defs>
       <path d="M 31.78125 66.40625 
Q 24.171875 66.40625 20.328125 58.90625 
Q 16.5 51.421875 16.5 36.375 
Q 16.5 21.390625 20.328125 13.890625 
Q 24.171875 6.390625 31.78125 6.390625 
Q 39.453125 6.390625 43.28125 13.890625 
Q 47.125 21.390625 47.125 36.375 
Q 47.125 51.421875 43.28125 58.90625 
Q 39.453125 66.40625 31.78125 66.40625 
z
M 31.78125 74.21875 
Q 44.046875 74.21875 50.515625 64.515625 
Q 56.984375 54.828125 56.984375 36.375 
Q 56.984375 17.96875 50.515625 8.265625 
Q 44.046875 -1.421875 31.78125 -1.421875 
Q 19.53125 -1.421875 13.0625 8.265625 
Q 6.59375 17.96875 6.59375 36.375 
Q 6.59375 54.828125 13.0625 64.515625 
Q 19.53125 74.21875 31.78125 74.21875 
z
" id="DejaVuSans-48"/>
       <path d="M 10.6875 12.40625 
L 21 12.40625 
L 21 0 
L 10.6875 0 
z
" id="DejaVuSans-46"/>
      </defs>
      <g transform="translate(53.101278 187.917813)scale(0.14 -0.14)">
       <use xlink:href="#DejaVuSans-48"/>
       <use x="63.623047" xlink:href="#DejaVuSans-46"/>
       <use x="95.410156" xlink:href="#DejaVuSans-48"/>
      </g>
     </g>
    </g>
    <g id="xtick_2">
     <g id="line2d_2">
      <g>
       <use style="stroke:#000000;stroke-width:0.8;" x="140.324375" xlink:href="#m35dbbfd0a8" y="170.28"/>
      </g>
     </g>
     <g id="text_2">
      <!-- 0.5 -->
      <defs>
       <path d="M 10.796875 72.90625 
L 49.515625 72.90625 
L 49.515625 64.59375 
L 19.828125 64.59375 
L 19.828125 46.734375 
Q 21.96875 47.46875 24.109375 47.828125 
Q 26.265625 48.1875 28.421875 48.1875 
Q 40.625 48.1875 47.75 41.5 
Q 54.890625 34.8125 54.890625 23.390625 
Q 54.890625 11.625 47.5625 5.09375 
Q 40.234375 -1.421875 26.90625 -1.421875 
Q 22.3125 -1.421875 17.546875 -0.640625 
Q 12.796875 0.140625 7.71875 1.703125 
L 7.71875 11.625 
Q 12.109375 9.234375 16.796875 8.0625 
Q 21.484375 6.890625 26.703125 6.890625 
Q 35.15625 6.890625 40.078125 11.328125 
Q 45.015625 15.765625 45.015625 23.390625 
Q 45.015625 31 40.078125 35.4375 
Q 35.15625 39.890625 26.703125 39.890625 
Q 22.75 39.890625 18.8125 39.015625 
Q 14.890625 38.140625 10.796875 36.28125 
z
" id="DejaVuSans-53"/>
      </defs>
      <g transform="translate(129.192188 187.917813)scale(0.14 -0.14)">
       <use xlink:href="#DejaVuSans-48"/>
       <use x="63.623047" xlink:href="#DejaVuSans-46"/>
       <use x="95.410156" xlink:href="#DejaVuSans-53"/>
      </g>
     </g>
    </g>
    <g id="xtick_3">
     <g id="line2d_3">
      <g>
       <use style="stroke:#000000;stroke-width:0.8;" x="216.415284" xlink:href="#m35dbbfd0a8" y="170.28"/>
      </g>
     </g>
     <g id="text_3">
      <!-- 1.0 -->
      <defs>
       <path d="M 12.40625 8.296875 
L 28.515625 8.296875 
L 28.515625 63.921875 
L 10.984375 60.40625 
L 10.984375 69.390625 
L 28.421875 72.90625 
L 38.28125 72.90625 
L 38.28125 8.296875 
L 54.390625 8.296875 
L 54.390625 0 
L 12.40625 0 
z
" id="DejaVuSans-49"/>
      </defs>
      <g transform="translate(205.283097 187.917813)scale(0.14 -0.14)">
       <use xlink:href="#DejaVuSans-49"/>
       <use x="63.623047" xlink:href="#DejaVuSans-46"/>
       <use x="95.410156" xlink:href="#DejaVuSans-48"/>
      </g>
     </g>
    </g>
    <g id="text_4">
     <!-- $C(X)$ -->
     <defs>
      <path d="M 69.484375 67.28125 
L 67.484375 56.890625 
Q 62.796875 61.625 57.546875 63.921875 
Q 52.296875 66.21875 46.1875 66.21875 
Q 37.84375 66.21875 31.515625 62.203125 
Q 25.203125 58.203125 20.609375 50 
Q 17.671875 44.734375 16.125 38.84375 
Q 14.59375 32.953125 14.59375 27 
Q 14.59375 17.046875 19.75 11.8125 
Q 24.90625 6.59375 34.71875 6.59375 
Q 41.5 6.59375 47.75 8.765625 
Q 54 10.9375 59.90625 15.28125 
L 57.625 3.609375 
Q 51.8125 1.125 45.875 -0.140625 
Q 39.9375 -1.421875 33.984375 -1.421875 
Q 19.96875 -1.421875 12.078125 6.1875 
Q 4.203125 13.8125 4.203125 27.390625 
Q 4.203125 36.078125 7.203125 44.46875 
Q 10.203125 52.875 15.828125 59.8125 
Q 21.78125 67.1875 29.421875 70.703125 
Q 37.0625 74.21875 47.21875 74.21875 
Q 53.46875 74.21875 59.0625 72.484375 
Q 64.65625 70.75 69.484375 67.28125 
z
" id="DejaVuSans-Oblique-67"/>
      <path d="M 31 75.875 
Q 24.46875 64.65625 21.28125 53.65625 
Q 18.109375 42.671875 18.109375 31.390625 
Q 18.109375 20.125 21.3125 9.0625 
Q 24.515625 -2 31 -13.1875 
L 23.1875 -13.1875 
Q 15.875 -1.703125 12.234375 9.375 
Q 8.59375 20.453125 8.59375 31.390625 
Q 8.59375 42.28125 12.203125 53.3125 
Q 15.828125 64.359375 23.1875 75.875 
z
" id="DejaVuSans-40"/>
      <path d="M 13.71875 72.90625 
L 23.6875 72.90625 
L 36.1875 46.578125 
L 58.796875 72.90625 
L 70.3125 72.90625 
L 40.28125 38.09375 
L 58.40625 0 
L 48.484375 0 
L 33.796875 30.71875 
L 7.171875 0 
L -4.296875 0 
L 29.78125 39.203125 
z
" id="DejaVuSans-Oblique-88"/>
      <path d="M 8.015625 75.875 
L 15.828125 75.875 
Q 23.140625 64.359375 26.78125 53.3125 
Q 30.421875 42.28125 30.421875 31.390625 
Q 30.421875 20.453125 26.78125 9.375 
Q 23.140625 -1.703125 15.828125 -13.1875 
L 8.015625 -13.1875 
Q 14.5 -2 17.703125 9.0625 
Q 20.90625 20.125 20.90625 31.390625 
Q 20.90625 42.671875 17.703125 53.65625 
Q 14.5 64.65625 8.015625 75.875 
z
" id="DejaVuSans-41"/>
     </defs>
     <g transform="translate(122.964375 206.986875)scale(0.16 -0.16)">
      <use transform="translate(0 0.125)" xlink:href="#DejaVuSans-Oblique-67"/>
      <use transform="translate(69.824219 0.125)" xlink:href="#DejaVuSans-40"/>
      <use transform="translate(108.837891 0.125)" xlink:href="#DejaVuSans-Oblique-88"/>
      <use transform="translate(177.34375 0.125)" xlink:href="#DejaVuSans-41"/>
     </g>
    </g>
   </g>
   <g id="matplotlib.axis_2">
    <g id="ytick_1">
     <g id="line2d_4">
      <defs>
       <path d="M 0 0 
L -3.5 0 
" id="mdba52d44d1" style="stroke:#000000;stroke-width:0.8;"/>
      </defs>
      <g>
       <use style="stroke:#000000;stroke-width:0.8;" x="56.624375" xlink:href="#mdba52d44d1" y="170.28"/>
      </g>
     </g>
     <g id="text_5">
      <!-- 0.0 -->
      <g transform="translate(27.36 175.598906)scale(0.14 -0.14)">
       <use xlink:href="#DejaVuSans-48"/>
       <use x="63.623047" xlink:href="#DejaVuSans-46"/>
       <use x="95.410156" xlink:href="#DejaVuSans-48"/>
      </g>
     </g>
    </g>
    <g id="ytick_2">
     <g id="line2d_5">
      <g>
       <use style="stroke:#000000;stroke-width:0.8;" x="56.624375" xlink:href="#mdba52d44d1" y="92.622857"/>
      </g>
     </g>
     <g id="text_6">
      <!-- 0.5 -->
      <g transform="translate(27.36 97.941763)scale(0.14 -0.14)">
       <use xlink:href="#DejaVuSans-48"/>
       <use x="63.623047" xlink:href="#DejaVuSans-46"/>
       <use x="95.410156" xlink:href="#DejaVuSans-53"/>
      </g>
     </g>
    </g>
    <g id="ytick_3">
     <g id="line2d_6">
      <g>
       <use style="stroke:#000000;stroke-width:0.8;" x="56.624375" xlink:href="#mdba52d44d1" y="14.965714"/>
      </g>
     </g>
     <g id="text_7">
      <!-- 1.0 -->
      <g transform="translate(27.36 20.284621)scale(0.14 -0.14)">
       <use xlink:href="#DejaVuSans-49"/>
       <use x="63.623047" xlink:href="#DejaVuSans-46"/>
       <use x="95.410156" xlink:href="#DejaVuSans-48"/>
      </g>
     </g>
    </g>
    <g id="text_8">
     <!-- $P(GT=1|C(X))$ -->
     <defs>
      <path d="M 16.890625 72.90625 
L 39.703125 72.90625 
Q 49.65625 72.90625 54.875 68.265625 
Q 60.109375 63.625 60.109375 54.6875 
Q 60.109375 42.671875 52.390625 35.984375 
Q 44.671875 29.296875 30.71875 29.296875 
L 18.3125 29.296875 
L 12.59375 0 
L 2.6875 0 
z
M 25.203125 64.796875 
L 19.921875 37.40625 
L 32.328125 37.40625 
Q 40.71875 37.40625 45.203125 41.703125 
Q 49.703125 46 49.703125 54 
Q 49.703125 59.125 46.65625 61.953125 
Q 43.609375 64.796875 38.09375 64.796875 
z
" id="DejaVuSans-Oblique-80"/>
      <path d="M 54.59375 10.890625 
L 58.40625 29.984375 
L 42.1875 29.984375 
L 43.703125 38.09375 
L 69.578125 38.09375 
L 63.28125 6 
Q 56.78125 2.4375 49.109375 0.5 
Q 41.453125 -1.421875 33.6875 -1.421875 
Q 19.96875 -1.421875 12.234375 6.1875 
Q 4.5 13.8125 4.5 27.390625 
Q 4.5 38.671875 9.203125 48.84375 
Q 13.921875 59.03125 22.21875 65.828125 
Q 27.4375 70.0625 33.640625 72.140625 
Q 39.84375 74.21875 47.40625 74.21875 
Q 54.25 74.21875 60.515625 72.484375 
Q 66.796875 70.75 72.515625 67.28125 
L 70.515625 56.78125 
Q 66.109375 61.375 60.203125 63.796875 
Q 54.296875 66.21875 47.609375 66.21875 
Q 39.84375 66.21875 33.9375 63.25 
Q 28.03125 60.296875 23.390625 54.109375 
Q 19.4375 48.828125 17.15625 41.671875 
Q 14.890625 34.515625 14.890625 27.09375 
Q 14.890625 16.890625 20.109375 11.734375 
Q 25.34375 6.59375 35.6875 6.59375 
Q 40.875 6.59375 45.703125 7.6875 
Q 50.53125 8.796875 54.59375 10.890625 
z
" id="DejaVuSans-Oblique-71"/>
      <path d="M 5.90625 72.90625 
L 67.578125 72.90625 
L 66.015625 64.59375 
L 39.984375 64.59375 
L 27.484375 0 
L 17.578125 0 
L 30.078125 64.59375 
L 4.296875 64.59375 
z
" id="DejaVuSans-Oblique-84"/>
      <path d="M 10.59375 45.40625 
L 73.1875 45.40625 
L 73.1875 37.203125 
L 10.59375 37.203125 
z
M 10.59375 25.484375 
L 73.1875 25.484375 
L 73.1875 17.1875 
L 10.59375 17.1875 
z
" id="DejaVuSans-61"/>
      <path d="M 21 76.421875 
L 21 -23.578125 
L 12.703125 -23.578125 
L 12.703125 76.421875 
z
" id="DejaVuSans-124"/>
     </defs>
     <g transform="translate(19.52 145.86)rotate(-90)scale(0.16 -0.16)">
      <use transform="translate(0 0.578125)" xlink:href="#DejaVuSans-Oblique-80"/>
      <use transform="translate(60.302734 0.578125)" xlink:href="#DejaVuSans-40"/>
      <use transform="translate(99.316406 0.578125)" xlink:href="#DejaVuSans-Oblique-71"/>
      <use transform="translate(176.806641 0.578125)" xlink:href="#DejaVuSans-Oblique-84"/>
      <use transform="translate(257.373047 0.578125)" xlink:href="#DejaVuSans-61"/>
      <use transform="translate(360.644531 0.578125)" xlink:href="#DejaVuSans-49"/>
      <use transform="translate(424.267578 0.578125)" xlink:href="#DejaVuSans-124"/>
      <use transform="translate(457.958984 0.578125)" xlink:href="#DejaVuSans-Oblique-67"/>
      <use transform="translate(527.783203 0.578125)" xlink:href="#DejaVuSans-40"/>
      <use transform="translate(566.796875 0.578125)" xlink:href="#DejaVuSans-Oblique-88"/>
      <use transform="translate(635.302734 0.578125)" xlink:href="#DejaVuSans-41"/>
      <use transform="translate(674.316406 0.578125)" xlink:href="#DejaVuSans-41"/>
     </g>
    </g>
   </g>
   <g id="patch_3">
    <path d="M 56.624375 170.28 
L 56.624375 7.2 
" style="fill:none;stroke:#000000;stroke-linecap:square;stroke-linejoin:miter;stroke-width:0.8;"/>
   </g>
   <g id="patch_4">
    <path d="M 56.624375 170.28 
L 224.024375 170.28 
" style="fill:none;stroke:#000000;stroke-linecap:square;stroke-linejoin:miter;stroke-width:0.8;"/>
   </g>
   <g id="line2d_7">
    <path clip-path="url(#pa9fc9b2c19)" d="M 71.842557 170.28 
L 87.060739 153.022857 
L 102.27892 135.765714 
L 117.497102 118.508571 
L 132.715284 101.251429 
L 147.933466 83.994286 
L 163.151648 66.737143 
L 178.36983 49.48 
L 193.588011 32.222857 
L 208.806193 14.965714 
" style="fill:none;stroke:#000000;stroke-linecap:square;stroke-width:2;"/>
   </g>
  </g>
 </g>
 <defs>
  <clipPath id="pa9fc9b2c19">
   <rect height="163.08" width="167.4" x="56.624375" y="7.2"/>
  </clipPath>
 </defs>
</svg>
