<?xml version="1.0" encoding="utf-8" standalone="no"?>
<!DOCTYPE svg PUBLIC "-//W3C//DTD SVG 1.1//EN"
  "http://www.w3.org/Graphics/SVG/1.1/DTD/svg11.dtd">
<!-- Created with matplotlib (https://matplotlib.org/) -->
<svg height="217.514375pt" version="1.1" viewBox="0 0 238.530597 217.514375" width="238.530597pt" xmlns="http://www.w3.org/2000/svg" xmlns:xlink="http://www.w3.org/1999/xlink">
 <defs>
  <style type="text/css">
*{stroke-linecap:butt;stroke-linejoin:round;}
  </style>
 </defs>
 <g id="figure_1">
  <g id="patch_1">
   <path d="M 0 217.514375 
L 238.530597 217.514375 
L 238.530597 0 
L 0 0 
z
" style="fill:#ffffff;"/>
  </g>
  <g id="axes_1">
   <g id="patch_2">
    <path d="M 60.4075 170.28 
L 227.8075 170.28 
L 227.8075 7.2 
L 60.4075 7.2 
z
" style="fill:#ffffff;"/>
   </g>
   <g id="PolyCollection_1">
    <path clip-path="url(#p5c8b13bba9)" d="M 68.016591 170.28 
L 68.016591 170.28 
L 83.234773 170.28 
L 83.234773 170.28 
L 83.234773 170.28 
L 68.016591 170.28 
z
" style="fill:#3d85c6;fill-opacity:0.05;"/>
   </g>
   <g id="PolyCollection_2">
    <path clip-path="url(#p5c8b13bba9)" d="M 83.234773 170.28 
L 83.234773 170.28 
L 98.452955 170.28 
L 98.452955 170.28 
L 98.452955 170.28 
L 83.234773 170.28 
z
" style="fill:#3d85c6;fill-opacity:0.15;"/>
   </g>
   <g id="PolyCollection_3">
    <path clip-path="url(#p5c8b13bba9)" d="M 98.452955 170.28 
L 98.452955 170.28 
L 113.671136 170.28 
L 113.671136 170.28 
L 113.671136 170.28 
L 98.452955 170.28 
z
" style="fill:#3d85c6;fill-opacity:0.25;"/>
   </g>
   <g id="PolyCollection_4">
    <path clip-path="url(#p5c8b13bba9)" d="M 113.671136 169.969371 
L 113.671136 170.28 
L 128.889318 170.28 
L 128.889318 169.969371 
L 128.889318 169.969371 
L 113.671136 169.969371 
z
" style="fill:#3d85c6;fill-opacity:0.35;"/>
   </g>
   <g id="PolyCollection_5">
    <path clip-path="url(#p5c8b13bba9)" d="M 128.889318 166.863086 
L 128.889318 170.28 
L 144.1075 170.28 
L 144.1075 166.863086 
L 144.1075 166.863086 
L 128.889318 166.863086 
z
" style="fill:#3d85c6;fill-opacity:0.45;"/>
   </g>
   <g id="PolyCollection_6">
    <path clip-path="url(#p5c8b13bba9)" d="M 144.1075 160.339886 
L 144.1075 170.28 
L 159.325682 170.28 
L 159.325682 160.339886 
L 159.325682 160.339886 
L 144.1075 160.339886 
z
" style="fill:#3d85c6;fill-opacity:0.55;"/>
   </g>
   <g id="PolyCollection_7">
    <path clip-path="url(#p5c8b13bba9)" d="M 159.325682 114.677486 
L 159.325682 170.28 
L 174.543864 170.28 
L 174.543864 114.677486 
L 174.543864 114.677486 
L 159.325682 114.677486 
z
" style="fill:#3d85c6;fill-opacity:0.65;"/>
   </g>
   <g id="PolyCollection_8">
    <path clip-path="url(#p5c8b13bba9)" d="M 174.543864 39.505371 
L 174.543864 170.28 
L 189.762045 170.28 
L 189.762045 39.505371 
L 189.762045 39.505371 
L 174.543864 39.505371 
z
" style="fill:#3d85c6;fill-opacity:0.75;"/>
   </g>
   <g id="PolyCollection_9">
    <path clip-path="url(#p5c8b13bba9)" d="M 189.762045 17.140114 
L 189.762045 170.28 
L 204.980227 170.28 
L 204.980227 17.140114 
L 204.980227 17.140114 
L 189.762045 17.140114 
z
" style="fill:#3d85c6;fill-opacity:0.85;"/>
   </g>
   <g id="PolyCollection_10">
    <path clip-path="url(#p5c8b13bba9)" d="M 204.980227 14.965714 
L 204.980227 170.28 
L 220.198409 170.28 
L 220.198409 14.965714 
L 220.198409 14.965714 
L 204.980227 14.965714 
z
" style="fill:#3d85c6;fill-opacity:0.95;"/>
   </g>
   <g id="PolyCollection_11">
    <path clip-path="url(#p5c8b13bba9)" d="M 68.016591 14.965714 
L 68.016591 170.28 
L 83.234773 170.28 
L 83.234773 14.965714 
L 83.234773 14.965714 
L 68.016591 14.965714 
z
" style="fill:#cc0000;fill-opacity:0.05;"/>
   </g>
   <g id="PolyCollection_12">
    <path clip-path="url(#p5c8b13bba9)" d="M 83.234773 14.965714 
L 83.234773 170.28 
L 98.452955 170.28 
L 98.452955 14.965714 
L 98.452955 14.965714 
L 83.234773 14.965714 
z
" style="fill:#cc0000;fill-opacity:0.15;"/>
   </g>
   <g id="PolyCollection_13">
    <path clip-path="url(#p5c8b13bba9)" d="M 98.452955 14.965714 
L 98.452955 170.28 
L 113.671136 170.28 
L 113.671136 14.965714 
L 113.671136 14.965714 
L 98.452955 14.965714 
z
" style="fill:#cc0000;fill-opacity:0.25;"/>
   </g>
   <g id="PolyCollection_14">
    <path clip-path="url(#p5c8b13bba9)" d="M 113.671136 14.965714 
L 113.671136 169.969371 
L 128.889318 169.969371 
L 128.889318 14.965714 
L 128.889318 14.965714 
L 113.671136 14.965714 
z
" style="fill:#cc0000;fill-opacity:0.35;"/>
   </g>
   <g id="PolyCollection_15">
    <path clip-path="url(#p5c8b13bba9)" d="M 128.889318 14.965714 
L 128.889318 166.863086 
L 144.1075 166.863086 
L 144.1075 14.965714 
L 144.1075 14.965714 
L 128.889318 14.965714 
z
" style="fill:#cc0000;fill-opacity:0.45;"/>
   </g>
   <g id="PolyCollection_16">
    <path clip-path="url(#p5c8b13bba9)" d="M 144.1075 14.965714 
L 144.1075 160.339886 
L 159.325682 160.339886 
L 159.325682 14.965714 
L 159.325682 14.965714 
L 144.1075 14.965714 
z
" style="fill:#cc0000;fill-opacity:0.55;"/>
   </g>
   <g id="PolyCollection_17">
    <path clip-path="url(#p5c8b13bba9)" d="M 159.325682 14.965714 
L 159.325682 114.677486 
L 174.543864 114.677486 
L 174.543864 14.965714 
L 174.543864 14.965714 
L 159.325682 14.965714 
z
" style="fill:#cc0000;fill-opacity:0.65;"/>
   </g>
   <g id="PolyCollection_18">
    <path clip-path="url(#p5c8b13bba9)" d="M 174.543864 14.965714 
L 174.543864 39.505371 
L 189.762045 39.505371 
L 189.762045 14.965714 
L 189.762045 14.965714 
L 174.543864 14.965714 
z
" style="fill:#cc0000;fill-opacity:0.75;"/>
   </g>
   <g id="PolyCollection_19">
    <path clip-path="url(#p5c8b13bba9)" d="M 189.762045 14.965714 
L 189.762045 17.140114 
L 204.980227 17.140114 
L 204.980227 14.965714 
L 204.980227 14.965714 
L 189.762045 14.965714 
z
" style="fill:#cc0000;fill-opacity:0.85;"/>
   </g>
   <g id="PolyCollection_20">
    <path clip-path="url(#p5c8b13bba9)" d="M 204.980227 14.965714 
L 204.980227 14.965714 
L 220.198409 14.965714 
L 220.198409 14.965714 
L 220.198409 14.965714 
L 204.980227 14.965714 
z
" style="fill:#cc0000;fill-opacity:0.95;"/>
   </g>
   <g id="matplotlib.axis_1">
    <g id="xtick_1">
     <g id="line2d_1">
      <defs>
       <path d="M 0 0 
L 0 3.5 
" id="m52caf73313" style="stroke:#000000;stroke-width:0.8;"/>
      </defs>
      <g>
       <use style="stroke:#000000;stroke-width:0.8;" x="68.016591" xlink:href="#m52caf73313" y="170.28"/>
      </g>
     </g>
     <g id="text_1">
      <!-- 0.0 -->
      <defs>
       <path d="M 31.78125 66.40625 
Q 24.171875 66.40625 20.328125 58.90625 
Q 16.5 51.421875 16.5 36.375 
Q 16.5 21.390625 20.328125 13.890625 
Q 24.171875 6.390625 31.78125 6.390625 
Q 39.453125 6.390625 43.28125 13.890625 
Q 47.125 21.390625 47.125 36.375 
Q 47.125 51.421875 43.28125 58.90625 
Q 39.453125 66.40625 31.78125 66.40625 
z
M 31.78125 74.21875 
Q 44.046875 74.21875 50.515625 64.515625 
Q 56.984375 54.828125 56.984375 36.375 
Q 56.984375 17.96875 50.515625 8.265625 
Q 44.046875 -1.421875 31.78125 -1.421875 
Q 19.53125 -1.421875 13.0625 8.265625 
Q 6.59375 17.96875 6.59375 36.375 
Q 6.59375 54.828125 13.0625 64.515625 
Q 19.53125 74.21875 31.78125 74.21875 
z
" id="DejaVuSans-48"/>
       <path d="M 10.6875 12.40625 
L 21 12.40625 
L 21 0 
L 10.6875 0 
z
" id="DejaVuSans-46"/>
      </defs>
      <g transform="translate(56.884403 187.917813)scale(0.14 -0.14)">
       <use xlink:href="#DejaVuSans-48"/>
       <use x="63.623047" xlink:href="#DejaVuSans-46"/>
       <use x="95.410156" xlink:href="#DejaVuSans-48"/>
      </g>
     </g>
    </g>
    <g id="xtick_2">
     <g id="line2d_2">
      <g>
       <use style="stroke:#000000;stroke-width:0.8;" x="144.1075" xlink:href="#m52caf73313" y="170.28"/>
      </g>
     </g>
     <g id="text_2">
      <!-- 0.5 -->
      <defs>
       <path d="M 10.796875 72.90625 
L 49.515625 72.90625 
L 49.515625 64.59375 
L 19.828125 64.59375 
L 19.828125 46.734375 
Q 21.96875 47.46875 24.109375 47.828125 
Q 26.265625 48.1875 28.421875 48.1875 
Q 40.625 48.1875 47.75 41.5 
Q 54.890625 34.8125 54.890625 23.390625 
Q 54.890625 11.625 47.5625 5.09375 
Q 40.234375 -1.421875 26.90625 -1.421875 
Q 22.3125 -1.421875 17.546875 -0.640625 
Q 12.796875 0.140625 7.71875 1.703125 
L 7.71875 11.625 
Q 12.109375 9.234375 16.796875 8.0625 
Q 21.484375 6.890625 26.703125 6.890625 
Q 35.15625 6.890625 40.078125 11.328125 
Q 45.015625 15.765625 45.015625 23.390625 
Q 45.015625 31 40.078125 35.4375 
Q 35.15625 39.890625 26.703125 39.890625 
Q 22.75 39.890625 18.8125 39.015625 
Q 14.890625 38.140625 10.796875 36.28125 
z
" id="DejaVuSans-53"/>
      </defs>
      <g transform="translate(132.975313 187.917813)scale(0.14 -0.14)">
       <use xlink:href="#DejaVuSans-48"/>
       <use x="63.623047" xlink:href="#DejaVuSans-46"/>
       <use x="95.410156" xlink:href="#DejaVuSans-53"/>
      </g>
     </g>
    </g>
    <g id="xtick_3">
     <g id="line2d_3">
      <g>
       <use style="stroke:#000000;stroke-width:0.8;" x="220.198409" xlink:href="#m52caf73313" y="170.28"/>
      </g>
     </g>
     <g id="text_3">
      <!-- 1.0 -->
      <defs>
       <path d="M 12.40625 8.296875 
L 28.515625 8.296875 
L 28.515625 63.921875 
L 10.984375 60.40625 
L 10.984375 69.390625 
L 28.421875 72.90625 
L 38.28125 72.90625 
L 38.28125 8.296875 
L 54.390625 8.296875 
L 54.390625 0 
L 12.40625 0 
z
" id="DejaVuSans-49"/>
      </defs>
      <g transform="translate(209.066222 187.917813)scale(0.14 -0.14)">
       <use xlink:href="#DejaVuSans-49"/>
       <use x="63.623047" xlink:href="#DejaVuSans-46"/>
       <use x="95.410156" xlink:href="#DejaVuSans-48"/>
      </g>
     </g>
    </g>
    <g id="text_4">
     <!-- $C(X)$ -->
     <defs>
      <path d="M 69.484375 67.28125 
L 67.484375 56.890625 
Q 62.796875 61.625 57.546875 63.921875 
Q 52.296875 66.21875 46.1875 66.21875 
Q 37.84375 66.21875 31.515625 62.203125 
Q 25.203125 58.203125 20.609375 50 
Q 17.671875 44.734375 16.125 38.84375 
Q 14.59375 32.953125 14.59375 27 
Q 14.59375 17.046875 19.75 11.8125 
Q 24.90625 6.59375 34.71875 6.59375 
Q 41.5 6.59375 47.75 8.765625 
Q 54 10.9375 59.90625 15.28125 
L 57.625 3.609375 
Q 51.8125 1.125 45.875 -0.140625 
Q 39.9375 -1.421875 33.984375 -1.421875 
Q 19.96875 -1.421875 12.078125 6.1875 
Q 4.203125 13.8125 4.203125 27.390625 
Q 4.203125 36.078125 7.203125 44.46875 
Q 10.203125 52.875 15.828125 59.8125 
Q 21.78125 67.1875 29.421875 70.703125 
Q 37.0625 74.21875 47.21875 74.21875 
Q 53.46875 74.21875 59.0625 72.484375 
Q 64.65625 70.75 69.484375 67.28125 
z
" id="DejaVuSans-Oblique-67"/>
      <path d="M 31 75.875 
Q 24.46875 64.65625 21.28125 53.65625 
Q 18.109375 42.671875 18.109375 31.390625 
Q 18.109375 20.125 21.3125 9.0625 
Q 24.515625 -2 31 -13.1875 
L 23.1875 -13.1875 
Q 15.875 -1.703125 12.234375 9.375 
Q 8.59375 20.453125 8.59375 31.390625 
Q 8.59375 42.28125 12.203125 53.3125 
Q 15.828125 64.359375 23.1875 75.875 
z
" id="DejaVuSans-40"/>
      <path d="M 13.71875 72.90625 
L 23.6875 72.90625 
L 36.1875 46.578125 
L 58.796875 72.90625 
L 70.3125 72.90625 
L 40.28125 38.09375 
L 58.40625 0 
L 48.484375 0 
L 33.796875 30.71875 
L 7.171875 0 
L -4.296875 0 
L 29.78125 39.203125 
z
" id="DejaVuSans-Oblique-88"/>
      <path d="M 8.015625 75.875 
L 15.828125 75.875 
Q 23.140625 64.359375 26.78125 53.3125 
Q 30.421875 42.28125 30.421875 31.390625 
Q 30.421875 20.453125 26.78125 9.375 
Q 23.140625 -1.703125 15.828125 -13.1875 
L 8.015625 -13.1875 
Q 14.5 -2 17.703125 9.0625 
Q 20.90625 20.125 20.90625 31.390625 
Q 20.90625 42.671875 17.703125 53.65625 
Q 14.5 64.65625 8.015625 75.875 
z
" id="DejaVuSans-41"/>
     </defs>
     <g transform="translate(126.7475 206.986875)scale(0.16 -0.16)">
      <use transform="translate(0 0.125)" xlink:href="#DejaVuSans-Oblique-67"/>
      <use transform="translate(69.824219 0.125)" xlink:href="#DejaVuSans-40"/>
      <use transform="translate(108.837891 0.125)" xlink:href="#DejaVuSans-Oblique-88"/>
      <use transform="translate(177.34375 0.125)" xlink:href="#DejaVuSans-41"/>
     </g>
    </g>
   </g>
   <g id="matplotlib.axis_2">
    <g id="ytick_1">
     <g id="line2d_4">
      <defs>
       <path d="M 0 0 
L -3.5 0 
" id="m684c3dd7ce" style="stroke:#000000;stroke-width:0.8;"/>
      </defs>
      <g>
       <use style="stroke:#000000;stroke-width:0.8;" x="60.4075" xlink:href="#m684c3dd7ce" y="170.28"/>
      </g>
     </g>
     <g id="text_5">
      <!-- 0 -->
      <g transform="translate(44.5 175.598906)scale(0.14 -0.14)">
       <use xlink:href="#DejaVuSans-48"/>
      </g>
     </g>
    </g>
    <g id="ytick_2">
     <g id="line2d_5">
      <g>
       <use style="stroke:#000000;stroke-width:0.8;" x="60.4075" xlink:href="#m684c3dd7ce" y="108.154286"/>
      </g>
     </g>
     <g id="text_6">
      <!-- 200 -->
      <defs>
       <path d="M 19.1875 8.296875 
L 53.609375 8.296875 
L 53.609375 0 
L 7.328125 0 
L 7.328125 8.296875 
Q 12.9375 14.109375 22.625 23.890625 
Q 32.328125 33.6875 34.8125 36.53125 
Q 39.546875 41.84375 41.421875 45.53125 
Q 43.3125 49.21875 43.3125 52.78125 
Q 43.3125 58.59375 39.234375 62.25 
Q 35.15625 65.921875 28.609375 65.921875 
Q 23.96875 65.921875 18.8125 64.3125 
Q 13.671875 62.703125 7.8125 59.421875 
L 7.8125 69.390625 
Q 13.765625 71.78125 18.9375 73 
Q 24.125 74.21875 28.421875 74.21875 
Q 39.75 74.21875 46.484375 68.546875 
Q 53.21875 62.890625 53.21875 53.421875 
Q 53.21875 48.921875 51.53125 44.890625 
Q 49.859375 40.875 45.40625 35.40625 
Q 44.1875 33.984375 37.640625 27.21875 
Q 31.109375 20.453125 19.1875 8.296875 
z
" id="DejaVuSans-50"/>
      </defs>
      <g transform="translate(26.685 113.473192)scale(0.14 -0.14)">
       <use xlink:href="#DejaVuSans-50"/>
       <use x="63.623047" xlink:href="#DejaVuSans-48"/>
       <use x="127.246094" xlink:href="#DejaVuSans-48"/>
      </g>
     </g>
    </g>
    <g id="ytick_3">
     <g id="line2d_6">
      <g>
       <use style="stroke:#000000;stroke-width:0.8;" x="60.4075" xlink:href="#m684c3dd7ce" y="46.028571"/>
      </g>
     </g>
     <g id="text_7">
      <!-- 400 -->
      <defs>
       <path d="M 37.796875 64.3125 
L 12.890625 25.390625 
L 37.796875 25.390625 
z
M 35.203125 72.90625 
L 47.609375 72.90625 
L 47.609375 25.390625 
L 58.015625 25.390625 
L 58.015625 17.1875 
L 47.609375 17.1875 
L 47.609375 0 
L 37.796875 0 
L 37.796875 17.1875 
L 4.890625 17.1875 
L 4.890625 26.703125 
z
" id="DejaVuSans-52"/>
      </defs>
      <g transform="translate(26.685 51.347478)scale(0.14 -0.14)">
       <use xlink:href="#DejaVuSans-52"/>
       <use x="63.623047" xlink:href="#DejaVuSans-48"/>
       <use x="127.246094" xlink:href="#DejaVuSans-48"/>
      </g>
     </g>
    </g>
    <g id="text_8">
     <!-- freq -->
     <defs>
      <path d="M 37.109375 75.984375 
L 37.109375 68.5 
L 28.515625 68.5 
Q 23.6875 68.5 21.796875 66.546875 
Q 19.921875 64.59375 19.921875 59.515625 
L 19.921875 54.6875 
L 34.71875 54.6875 
L 34.71875 47.703125 
L 19.921875 47.703125 
L 19.921875 0 
L 10.890625 0 
L 10.890625 47.703125 
L 2.296875 47.703125 
L 2.296875 54.6875 
L 10.890625 54.6875 
L 10.890625 58.5 
Q 10.890625 67.625 15.140625 71.796875 
Q 19.390625 75.984375 28.609375 75.984375 
z
" id="DejaVuSans-102"/>
      <path d="M 41.109375 46.296875 
Q 39.59375 47.171875 37.8125 47.578125 
Q 36.03125 48 33.890625 48 
Q 26.265625 48 22.1875 43.046875 
Q 18.109375 38.09375 18.109375 28.8125 
L 18.109375 0 
L 9.078125 0 
L 9.078125 54.6875 
L 18.109375 54.6875 
L 18.109375 46.1875 
Q 20.953125 51.171875 25.484375 53.578125 
Q 30.03125 56 36.53125 56 
Q 37.453125 56 38.578125 55.875 
Q 39.703125 55.765625 41.0625 55.515625 
z
" id="DejaVuSans-114"/>
      <path d="M 56.203125 29.59375 
L 56.203125 25.203125 
L 14.890625 25.203125 
Q 15.484375 15.921875 20.484375 11.0625 
Q 25.484375 6.203125 34.421875 6.203125 
Q 39.59375 6.203125 44.453125 7.46875 
Q 49.3125 8.734375 54.109375 11.28125 
L 54.109375 2.78125 
Q 49.265625 0.734375 44.1875 -0.34375 
Q 39.109375 -1.421875 33.890625 -1.421875 
Q 20.796875 -1.421875 13.15625 6.1875 
Q 5.515625 13.8125 5.515625 26.8125 
Q 5.515625 40.234375 12.765625 48.109375 
Q 20.015625 56 32.328125 56 
Q 43.359375 56 49.78125 48.890625 
Q 56.203125 41.796875 56.203125 29.59375 
z
M 47.21875 32.234375 
Q 47.125 39.59375 43.09375 43.984375 
Q 39.0625 48.390625 32.421875 48.390625 
Q 24.90625 48.390625 20.390625 44.140625 
Q 15.875 39.890625 15.1875 32.171875 
z
" id="DejaVuSans-101"/>
      <path d="M 14.796875 27.296875 
Q 14.796875 17.390625 18.875 11.75 
Q 22.953125 6.109375 30.078125 6.109375 
Q 37.203125 6.109375 41.296875 11.75 
Q 45.40625 17.390625 45.40625 27.296875 
Q 45.40625 37.203125 41.296875 42.84375 
Q 37.203125 48.484375 30.078125 48.484375 
Q 22.953125 48.484375 18.875 42.84375 
Q 14.796875 37.203125 14.796875 27.296875 
z
M 45.40625 8.203125 
Q 42.578125 3.328125 38.25 0.953125 
Q 33.9375 -1.421875 27.875 -1.421875 
Q 17.96875 -1.421875 11.734375 6.484375 
Q 5.515625 14.40625 5.515625 27.296875 
Q 5.515625 40.1875 11.734375 48.09375 
Q 17.96875 56 27.875 56 
Q 33.9375 56 38.25 53.625 
Q 42.578125 51.265625 45.40625 46.390625 
L 45.40625 54.6875 
L 54.390625 54.6875 
L 54.390625 -20.796875 
L 45.40625 -20.796875 
z
" id="DejaVuSans-113"/>
     </defs>
     <g transform="translate(19.3575 104.84375)rotate(-90)scale(0.16 -0.16)">
      <use xlink:href="#DejaVuSans-102"/>
      <use x="35.205078" xlink:href="#DejaVuSans-114"/>
      <use x="76.287109" xlink:href="#DejaVuSans-101"/>
      <use x="137.810547" xlink:href="#DejaVuSans-113"/>
     </g>
    </g>
   </g>
   <g id="patch_3">
    <path d="M 60.4075 170.28 
L 60.4075 7.2 
" style="fill:none;stroke:#000000;stroke-linecap:square;stroke-linejoin:miter;stroke-width:0.8;"/>
   </g>
   <g id="patch_4">
    <path d="M 60.4075 170.28 
L 227.8075 170.28 
" style="fill:none;stroke:#000000;stroke-linecap:square;stroke-linejoin:miter;stroke-width:0.8;"/>
   </g>
   <g id="line2d_7">
    <path clip-path="url(#p5c8b13bba9)" d="M 75.625682 170.28 
L 90.843864 170.28 
L 106.062045 170.28 
L 121.280227 169.969371 
L 136.498409 166.863086 
L 151.716591 160.339886 
L 166.934773 114.677486 
L 182.152955 39.505371 
L 197.371136 17.140114 
L 212.589318 14.965714 
" style="fill:none;stroke:#3d85c6;stroke-linecap:square;stroke-width:2;"/>
   </g>
   <g id="line2d_8">
    <path clip-path="url(#p5c8b13bba9)" d="M 75.625682 14.965714 
L 90.843864 14.965714 
L 106.062045 14.965714 
L 121.280227 14.965714 
L 136.498409 14.965714 
L 151.716591 14.965714 
L 166.934773 14.965714 
L 182.152955 14.965714 
L 197.371136 14.965714 
L 212.589318 14.965714 
" style="fill:none;stroke:#cc0000;stroke-linecap:square;stroke-width:2;"/>
   </g>
  </g>
 </g>
 <defs>
  <clipPath id="p5c8b13bba9">
   <rect height="163.08" width="167.4" x="60.4075" y="7.2"/>
  </clipPath>
 </defs>
</svg>
