<?xml version="1.0" encoding="utf-8" standalone="no"?>
<!DOCTYPE svg PUBLIC "-//W3C//DTD SVG 1.1//EN"
  "http://www.w3.org/Graphics/SVG/1.1/DTD/svg11.dtd">
<!-- Created with matplotlib (https://matplotlib.org/) -->
<svg height="217.514375pt" version="1.1" viewBox="0 0 256.345597 217.514375" width="256.345597pt" xmlns="http://www.w3.org/2000/svg" xmlns:xlink="http://www.w3.org/1999/xlink">
 <defs>
  <style type="text/css">
*{stroke-linecap:butt;stroke-linejoin:round;}
  </style>
 </defs>
 <g id="figure_1">
  <g id="patch_1">
   <path d="M -0 217.514375 
L 256.345597 217.514375 
L 256.345597 0 
L -0 0 
z
" style="fill:#ffffff;"/>
  </g>
  <g id="axes_1">
   <g id="patch_2">
    <path d="M 78.2225 170.28 
L 245.6225 170.28 
L 245.6225 7.2 
L 78.2225 7.2 
z
" style="fill:#ffffff;"/>
   </g>
   <g id="PolyCollection_1">
    <path clip-path="url(#pcb4c9a2217)" d="M 85.831591 167.913435 
L 85.831591 170.28 
L 87.353409 170.28 
L 87.353409 167.913435 
L 87.353409 167.913435 
L 85.831591 167.913435 
z
" style="fill:#666666;fill-opacity:0.005;"/>
   </g>
   <g id="PolyCollection_2">
    <path clip-path="url(#pcb4c9a2217)" d="M 87.353409 163.679624 
L 87.353409 170.28 
L 88.875227 170.28 
L 88.875227 163.679624 
L 88.875227 163.679624 
L 87.353409 163.679624 
z
" style="fill:#666666;fill-opacity:0.015;"/>
   </g>
   <g id="PolyCollection_3">
    <path clip-path="url(#pcb4c9a2217)" d="M 88.875227 159.487423 
L 88.875227 170.28 
L 90.397045 170.28 
L 90.397045 159.487423 
L 90.397045 159.487423 
L 88.875227 159.487423 
z
" style="fill:#666666;fill-opacity:0.025;"/>
   </g>
   <g id="PolyCollection_4">
    <path clip-path="url(#pcb4c9a2217)" d="M 90.397045 156.080609 
L 90.397045 170.28 
L 91.918864 170.28 
L 91.918864 156.080609 
L 91.918864 156.080609 
L 90.397045 156.080609 
z
" style="fill:#666666;fill-opacity:0.035;"/>
   </g>
   <g id="PolyCollection_5">
    <path clip-path="url(#pcb4c9a2217)" d="M 91.918864 152.710205 
L 91.918864 170.28 
L 93.440682 170.28 
L 93.440682 152.710205 
L 93.440682 152.710205 
L 91.918864 152.710205 
z
" style="fill:#666666;fill-opacity:0.045;"/>
   </g>
   <g id="PolyCollection_6">
    <path clip-path="url(#pcb4c9a2217)" d="M 93.440682 150.406055 
L 93.440682 170.28 
L 94.9625 170.28 
L 94.9625 150.406055 
L 94.9625 150.406055 
L 93.440682 150.406055 
z
" style="fill:#666666;fill-opacity:0.055;"/>
   </g>
   <g id="PolyCollection_7">
    <path clip-path="url(#pcb4c9a2217)" d="M 94.9625 146.759984 
L 94.9625 170.28 
L 96.484318 170.28 
L 96.484318 146.759984 
L 96.484318 146.759984 
L 94.9625 146.759984 
z
" style="fill:#666666;fill-opacity:0.065;"/>
   </g>
   <g id="PolyCollection_8">
    <path clip-path="url(#pcb4c9a2217)" d="M 96.484318 144.544255 
L 96.484318 170.28 
L 98.006136 170.28 
L 98.006136 144.544255 
L 98.006136 144.544255 
L 96.484318 144.544255 
z
" style="fill:#666666;fill-opacity:0.075;"/>
   </g>
   <g id="PolyCollection_9">
    <path clip-path="url(#pcb4c9a2217)" d="M 98.006136 142.526173 
L 98.006136 170.28 
L 99.527955 170.28 
L 99.527955 142.526173 
L 99.527955 142.526173 
L 98.006136 142.526173 
z
" style="fill:#666666;fill-opacity:0.085;"/>
   </g>
   <g id="PolyCollection_10">
    <path clip-path="url(#pcb4c9a2217)" d="M 99.527955 140.404066 
L 99.527955 170.28 
L 101.049773 170.28 
L 101.049773 140.404066 
L 101.049773 140.404066 
L 99.527955 140.404066 
z
" style="fill:#666666;fill-opacity:0.095;"/>
   </g>
   <g id="PolyCollection_11">
    <path clip-path="url(#pcb4c9a2217)" d="M 101.049773 138.318368 
L 101.049773 170.28 
L 102.571591 170.28 
L 102.571591 138.318368 
L 102.571591 138.318368 
L 101.049773 138.318368 
z
" style="fill:#666666;fill-opacity:0.105;"/>
   </g>
   <g id="PolyCollection_12">
    <path clip-path="url(#pcb4c9a2217)" d="M 102.571591 137.272919 
L 102.571591 170.28 
L 104.093409 170.28 
L 104.093409 137.272919 
L 104.093409 137.272919 
L 102.571591 137.272919 
z
" style="fill:#666666;fill-opacity:0.115;"/>
   </g>
   <g id="PolyCollection_13">
    <path clip-path="url(#pcb4c9a2217)" d="M 104.093409 135.275642 
L 104.093409 170.28 
L 105.615227 170.28 
L 105.615227 135.275642 
L 105.615227 135.275642 
L 104.093409 135.275642 
z
" style="fill:#666666;fill-opacity:0.125;"/>
   </g>
   <g id="PolyCollection_14">
    <path clip-path="url(#pcb4c9a2217)" d="M 105.615227 135.104001 
L 105.615227 170.28 
L 107.137045 170.28 
L 107.137045 135.104001 
L 107.137045 135.104001 
L 105.615227 135.104001 
z
" style="fill:#666666;fill-opacity:0.135;"/>
   </g>
   <g id="PolyCollection_15">
    <path clip-path="url(#pcb4c9a2217)" d="M 107.137045 133.923319 
L 107.137045 170.28 
L 108.658864 170.28 
L 108.658864 133.923319 
L 108.658864 133.923319 
L 107.137045 133.923319 
z
" style="fill:#666666;fill-opacity:0.145;"/>
   </g>
   <g id="PolyCollection_16">
    <path clip-path="url(#pcb4c9a2217)" d="M 108.658864 133.897313 
L 108.658864 170.28 
L 110.180682 170.28 
L 110.180682 133.897313 
L 110.180682 133.897313 
L 108.658864 133.897313 
z
" style="fill:#666666;fill-opacity:0.155;"/>
   </g>
   <g id="PolyCollection_17">
    <path clip-path="url(#pcb4c9a2217)" d="M 110.180682 133.590439 
L 110.180682 170.28 
L 111.7025 170.28 
L 111.7025 133.590439 
L 111.7025 133.590439 
L 110.180682 133.590439 
z
" style="fill:#666666;fill-opacity:0.165;"/>
   </g>
   <g id="PolyCollection_18">
    <path clip-path="url(#pcb4c9a2217)" d="M 111.7025 132.92468 
L 111.7025 170.28 
L 113.224318 170.28 
L 113.224318 132.92468 
L 113.224318 132.92468 
L 111.7025 132.92468 
z
" style="fill:#666666;fill-opacity:0.175;"/>
   </g>
   <g id="PolyCollection_19">
    <path clip-path="url(#pcb4c9a2217)" d="M 113.224318 132.258921 
L 113.224318 170.28 
L 114.746136 170.28 
L 114.746136 132.258921 
L 114.746136 132.258921 
L 113.224318 132.258921 
z
" style="fill:#666666;fill-opacity:0.185;"/>
   </g>
   <g id="PolyCollection_20">
    <path clip-path="url(#pcb4c9a2217)" d="M 114.746136 132.186104 
L 114.746136 170.28 
L 116.267955 170.28 
L 116.267955 132.186104 
L 116.267955 132.186104 
L 114.746136 132.186104 
z
" style="fill:#666666;fill-opacity:0.195;"/>
   </g>
   <g id="PolyCollection_21">
    <path clip-path="url(#pcb4c9a2217)" d="M 116.267955 130.969013 
L 116.267955 170.28 
L 117.789773 170.28 
L 117.789773 130.969013 
L 117.789773 130.969013 
L 116.267955 130.969013 
z
" style="fill:#666666;fill-opacity:0.205;"/>
   </g>
   <g id="PolyCollection_22">
    <path clip-path="url(#pcb4c9a2217)" d="M 117.789773 131.681584 
L 117.789773 170.28 
L 119.311591 170.28 
L 119.311591 131.681584 
L 119.311591 131.681584 
L 117.789773 131.681584 
z
" style="fill:#666666;fill-opacity:0.215;"/>
   </g>
   <g id="PolyCollection_23">
    <path clip-path="url(#pcb4c9a2217)" d="M 119.311591 131.967652 
L 119.311591 170.28 
L 120.833409 170.28 
L 120.833409 131.967652 
L 120.833409 131.967652 
L 119.311591 131.967652 
z
" style="fill:#666666;fill-opacity:0.225;"/>
   </g>
   <g id="PolyCollection_24">
    <path clip-path="url(#pcb4c9a2217)" d="M 120.833409 133.039108 
L 120.833409 170.28 
L 122.355227 170.28 
L 122.355227 133.039108 
L 122.355227 133.039108 
L 120.833409 133.039108 
z
" style="fill:#666666;fill-opacity:0.235;"/>
   </g>
   <g id="PolyCollection_25">
    <path clip-path="url(#pcb4c9a2217)" d="M 122.355227 132.300531 
L 122.355227 170.28 
L 123.877045 170.28 
L 123.877045 132.300531 
L 123.877045 132.300531 
L 122.355227 132.300531 
z
" style="fill:#666666;fill-opacity:0.245;"/>
   </g>
   <g id="PolyCollection_26">
    <path clip-path="url(#pcb4c9a2217)" d="M 123.877045 133.397993 
L 123.877045 170.28 
L 125.398864 170.28 
L 125.398864 133.397993 
L 125.398864 133.397993 
L 123.877045 133.397993 
z
" style="fill:#666666;fill-opacity:0.255;"/>
   </g>
   <g id="PolyCollection_27">
    <path clip-path="url(#pcb4c9a2217)" d="M 125.398864 133.990935 
L 125.398864 170.28 
L 126.920682 170.28 
L 126.920682 133.990935 
L 126.920682 133.990935 
L 125.398864 133.990935 
z
" style="fill:#666666;fill-opacity:0.265;"/>
   </g>
   <g id="PolyCollection_28">
    <path clip-path="url(#pcb4c9a2217)" d="M 126.920682 134.687901 
L 126.920682 170.28 
L 128.4425 170.28 
L 128.4425 134.687901 
L 128.4425 134.687901 
L 126.920682 134.687901 
z
" style="fill:#666666;fill-opacity:0.275;"/>
   </g>
   <g id="PolyCollection_29">
    <path clip-path="url(#pcb4c9a2217)" d="M 128.4425 135.358862 
L 128.4425 170.28 
L 129.964318 170.28 
L 129.964318 135.358862 
L 129.964318 135.358862 
L 128.4425 135.358862 
z
" style="fill:#666666;fill-opacity:0.285;"/>
   </g>
   <g id="PolyCollection_30">
    <path clip-path="url(#pcb4c9a2217)" d="M 129.964318 136.081834 
L 129.964318 170.28 
L 131.486136 170.28 
L 131.486136 136.081834 
L 131.486136 136.081834 
L 129.964318 136.081834 
z
" style="fill:#666666;fill-opacity:0.295;"/>
   </g>
   <g id="PolyCollection_31">
    <path clip-path="url(#pcb4c9a2217)" d="M 131.486136 137.428956 
L 131.486136 170.28 
L 133.007955 170.28 
L 133.007955 137.428956 
L 133.007955 137.428956 
L 131.486136 137.428956 
z
" style="fill:#666666;fill-opacity:0.305;"/>
   </g>
   <g id="PolyCollection_32">
    <path clip-path="url(#pcb4c9a2217)" d="M 133.007955 138.750071 
L 133.007955 170.28 
L 134.529773 170.28 
L 134.529773 138.750071 
L 134.529773 138.750071 
L 133.007955 138.750071 
z
" style="fill:#666666;fill-opacity:0.315;"/>
   </g>
   <g id="PolyCollection_33">
    <path clip-path="url(#pcb4c9a2217)" d="M 134.529773 138.594034 
L 134.529773 170.28 
L 136.051591 170.28 
L 136.051591 138.594034 
L 136.051591 138.594034 
L 134.529773 138.594034 
z
" style="fill:#666666;fill-opacity:0.325;"/>
   </g>
   <g id="PolyCollection_34">
    <path clip-path="url(#pcb4c9a2217)" d="M 136.051591 139.769515 
L 136.051591 170.28 
L 137.573409 170.28 
L 137.573409 139.769515 
L 137.573409 139.769515 
L 136.051591 139.769515 
z
" style="fill:#666666;fill-opacity:0.335;"/>
   </g>
   <g id="PolyCollection_35">
    <path clip-path="url(#pcb4c9a2217)" d="M 137.573409 139.727905 
L 137.573409 170.28 
L 139.095227 170.28 
L 139.095227 139.727905 
L 139.095227 139.727905 
L 137.573409 139.727905 
z
" style="fill:#666666;fill-opacity:0.345;"/>
   </g>
   <g id="PolyCollection_36">
    <path clip-path="url(#pcb4c9a2217)" d="M 139.095227 141.246667 
L 139.095227 170.28 
L 140.617045 170.28 
L 140.617045 141.246667 
L 140.617045 141.246667 
L 139.095227 141.246667 
z
" style="fill:#666666;fill-opacity:0.355;"/>
   </g>
   <g id="PolyCollection_37">
    <path clip-path="url(#pcb4c9a2217)" d="M 140.617045 143.202334 
L 140.617045 170.28 
L 142.138864 170.28 
L 142.138864 143.202334 
L 142.138864 143.202334 
L 140.617045 143.202334 
z
" style="fill:#666666;fill-opacity:0.365;"/>
   </g>
   <g id="PolyCollection_38">
    <path clip-path="url(#pcb4c9a2217)" d="M 142.138864 143.0567 
L 142.138864 170.28 
L 143.660682 170.28 
L 143.660682 143.0567 
L 143.660682 143.0567 
L 142.138864 143.0567 
z
" style="fill:#666666;fill-opacity:0.375;"/>
   </g>
   <g id="PolyCollection_39">
    <path clip-path="url(#pcb4c9a2217)" d="M 143.660682 144.549456 
L 143.660682 170.28 
L 145.1825 170.28 
L 145.1825 144.549456 
L 145.1825 144.549456 
L 143.660682 144.549456 
z
" style="fill:#666666;fill-opacity:0.385;"/>
   </g>
   <g id="PolyCollection_40">
    <path clip-path="url(#pcb4c9a2217)" d="M 145.1825 144.643078 
L 145.1825 170.28 
L 146.704318 170.28 
L 146.704318 144.643078 
L 146.704318 144.643078 
L 145.1825 144.643078 
z
" style="fill:#666666;fill-opacity:0.395;"/>
   </g>
   <g id="PolyCollection_41">
    <path clip-path="url(#pcb4c9a2217)" d="M 146.704318 146.416702 
L 146.704318 170.28 
L 148.226136 170.28 
L 148.226136 146.416702 
L 148.226136 146.416702 
L 146.704318 146.416702 
z
" style="fill:#666666;fill-opacity:0.405;"/>
   </g>
   <g id="PolyCollection_42">
    <path clip-path="url(#pcb4c9a2217)" d="M 148.226136 146.718374 
L 148.226136 170.28 
L 149.747955 170.28 
L 149.747955 146.718374 
L 149.747955 146.718374 
L 148.226136 146.718374 
z
" style="fill:#666666;fill-opacity:0.415;"/>
   </g>
   <g id="PolyCollection_43">
    <path clip-path="url(#pcb4c9a2217)" d="M 149.747955 147.758622 
L 149.747955 170.28 
L 151.269773 170.28 
L 151.269773 147.758622 
L 151.269773 147.758622 
L 149.747955 147.758622 
z
" style="fill:#666666;fill-opacity:0.425;"/>
   </g>
   <g id="PolyCollection_44">
    <path clip-path="url(#pcb4c9a2217)" d="M 151.269773 148.330759 
L 151.269773 170.28 
L 152.791591 170.28 
L 152.791591 148.330759 
L 152.791591 148.330759 
L 151.269773 148.330759 
z
" style="fill:#666666;fill-opacity:0.435;"/>
   </g>
   <g id="PolyCollection_45">
    <path clip-path="url(#pcb4c9a2217)" d="M 152.791591 149.25658 
L 152.791591 170.28 
L 154.313409 170.28 
L 154.313409 149.25658 
L 154.313409 149.25658 
L 152.791591 149.25658 
z
" style="fill:#666666;fill-opacity:0.445;"/>
   </g>
   <g id="PolyCollection_46">
    <path clip-path="url(#pcb4c9a2217)" d="M 154.313409 149.714289 
L 154.313409 170.28 
L 155.835227 170.28 
L 155.835227 149.714289 
L 155.835227 149.714289 
L 154.313409 149.714289 
z
" style="fill:#666666;fill-opacity:0.455;"/>
   </g>
   <g id="PolyCollection_47">
    <path clip-path="url(#pcb4c9a2217)" d="M 155.835227 151.025002 
L 155.835227 170.28 
L 157.357045 170.28 
L 157.357045 151.025002 
L 157.357045 151.025002 
L 155.835227 151.025002 
z
" style="fill:#666666;fill-opacity:0.465;"/>
   </g>
   <g id="PolyCollection_48">
    <path clip-path="url(#pcb4c9a2217)" d="M 157.357045 150.380048 
L 157.357045 170.28 
L 158.878864 170.28 
L 158.878864 150.380048 
L 158.878864 150.380048 
L 157.357045 150.380048 
z
" style="fill:#666666;fill-opacity:0.475;"/>
   </g>
   <g id="PolyCollection_49">
    <path clip-path="url(#pcb4c9a2217)" d="M 158.878864 151.071813 
L 158.878864 170.28 
L 160.400682 170.28 
L 160.400682 151.071813 
L 160.400682 151.071813 
L 158.878864 151.071813 
z
" style="fill:#666666;fill-opacity:0.485;"/>
   </g>
   <g id="PolyCollection_50">
    <path clip-path="url(#pcb4c9a2217)" d="M 160.400682 150.998996 
L 160.400682 170.28 
L 161.9225 170.28 
L 161.9225 150.998996 
L 161.9225 150.998996 
L 160.400682 150.998996 
z
" style="fill:#666666;fill-opacity:0.495;"/>
   </g>
   <g id="PolyCollection_51">
    <path clip-path="url(#pcb4c9a2217)" d="M 161.9225 151.47751 
L 161.9225 170.28 
L 163.444318 170.28 
L 163.444318 151.47751 
L 163.444318 151.47751 
L 161.9225 151.47751 
z
" style="fill:#666666;fill-opacity:0.505;"/>
   </g>
   <g id="PolyCollection_52">
    <path clip-path="url(#pcb4c9a2217)" d="M 163.444318 151.956025 
L 163.444318 170.28 
L 164.966136 170.28 
L 164.966136 151.956025 
L 164.966136 151.956025 
L 163.444318 151.956025 
z
" style="fill:#666666;fill-opacity:0.515;"/>
   </g>
   <g id="PolyCollection_53">
    <path clip-path="url(#pcb4c9a2217)" d="M 164.966136 151.72717 
L 164.966136 170.28 
L 166.487955 170.28 
L 166.487955 151.72717 
L 166.487955 151.72717 
L 164.966136 151.72717 
z
" style="fill:#666666;fill-opacity:0.525;"/>
   </g>
   <g id="PolyCollection_54">
    <path clip-path="url(#pcb4c9a2217)" d="M 166.487955 151.784384 
L 166.487955 170.28 
L 168.009773 170.28 
L 168.009773 151.784384 
L 168.009773 151.784384 
L 166.487955 151.784384 
z
" style="fill:#666666;fill-opacity:0.535;"/>
   </g>
   <g id="PolyCollection_55">
    <path clip-path="url(#pcb4c9a2217)" d="M 168.009773 151.524322 
L 168.009773 170.28 
L 169.531591 170.28 
L 169.531591 151.524322 
L 169.531591 151.524322 
L 168.009773 151.524322 
z
" style="fill:#666666;fill-opacity:0.545;"/>
   </g>
   <g id="PolyCollection_56">
    <path clip-path="url(#pcb4c9a2217)" d="M 169.531591 150.884569 
L 169.531591 170.28 
L 171.053409 170.28 
L 171.053409 150.884569 
L 171.053409 150.884569 
L 169.531591 150.884569 
z
" style="fill:#666666;fill-opacity:0.555;"/>
   </g>
   <g id="PolyCollection_57">
    <path clip-path="url(#pcb4c9a2217)" d="M 171.053409 150.458067 
L 171.053409 170.28 
L 172.575227 170.28 
L 172.575227 150.458067 
L 172.575227 150.458067 
L 171.053409 150.458067 
z
" style="fill:#666666;fill-opacity:0.565;"/>
   </g>
   <g id="PolyCollection_58">
    <path clip-path="url(#pcb4c9a2217)" d="M 172.575227 149.901534 
L 172.575227 170.28 
L 174.097045 170.28 
L 174.097045 149.901534 
L 174.097045 149.901534 
L 172.575227 149.901534 
z
" style="fill:#666666;fill-opacity:0.575;"/>
   </g>
   <g id="PolyCollection_59">
    <path clip-path="url(#pcb4c9a2217)" d="M 174.097045 148.554412 
L 174.097045 170.28 
L 175.618864 170.28 
L 175.618864 148.554412 
L 175.618864 148.554412 
L 174.097045 148.554412 
z
" style="fill:#666666;fill-opacity:0.585;"/>
   </g>
   <g id="PolyCollection_60">
    <path clip-path="url(#pcb4c9a2217)" d="M 175.618864 147.91466 
L 175.618864 170.28 
L 177.140682 170.28 
L 177.140682 147.91466 
L 177.140682 147.91466 
L 175.618864 147.91466 
z
" style="fill:#666666;fill-opacity:0.595;"/>
   </g>
   <g id="PolyCollection_61">
    <path clip-path="url(#pcb4c9a2217)" d="M 177.140682 145.802955 
L 177.140682 170.28 
L 178.6625 170.28 
L 178.6625 145.802955 
L 178.6625 145.802955 
L 177.140682 145.802955 
z
" style="fill:#666666;fill-opacity:0.605;"/>
   </g>
   <g id="PolyCollection_62">
    <path clip-path="url(#pcb4c9a2217)" d="M 178.6625 144.294595 
L 178.6625 170.28 
L 180.184318 170.28 
L 180.184318 144.294595 
L 180.184318 144.294595 
L 178.6625 144.294595 
z
" style="fill:#666666;fill-opacity:0.615;"/>
   </g>
   <g id="PolyCollection_63">
    <path clip-path="url(#pcb4c9a2217)" d="M 180.184318 142.182891 
L 180.184318 170.28 
L 181.706136 170.28 
L 181.706136 142.182891 
L 181.706136 142.182891 
L 180.184318 142.182891 
z
" style="fill:#666666;fill-opacity:0.625;"/>
   </g>
   <g id="PolyCollection_64">
    <path clip-path="url(#pcb4c9a2217)" d="M 181.706136 140.773354 
L 181.706136 170.28 
L 183.227955 170.28 
L 183.227955 140.773354 
L 183.227955 140.773354 
L 181.706136 140.773354 
z
" style="fill:#666666;fill-opacity:0.635;"/>
   </g>
   <g id="PolyCollection_65">
    <path clip-path="url(#pcb4c9a2217)" d="M 183.227955 138.063507 
L 183.227955 170.28 
L 184.749773 170.28 
L 184.749773 138.063507 
L 184.749773 138.063507 
L 183.227955 138.063507 
z
" style="fill:#666666;fill-opacity:0.645;"/>
   </g>
   <g id="PolyCollection_66">
    <path clip-path="url(#pcb4c9a2217)" d="M 184.749773 135.842577 
L 184.749773 170.28 
L 186.271591 170.28 
L 186.271591 135.842577 
L 186.271591 135.842577 
L 184.749773 135.842577 
z
" style="fill:#666666;fill-opacity:0.655;"/>
   </g>
   <g id="PolyCollection_67">
    <path clip-path="url(#pcb4c9a2217)" d="M 186.271591 132.929882 
L 186.271591 170.28 
L 187.793409 170.28 
L 187.793409 132.929882 
L 187.793409 132.929882 
L 186.271591 132.929882 
z
" style="fill:#666666;fill-opacity:0.665;"/>
   </g>
   <g id="PolyCollection_68">
    <path clip-path="url(#pcb4c9a2217)" d="M 187.793409 129.257805 
L 187.793409 170.28 
L 189.315227 170.28 
L 189.315227 129.257805 
L 189.315227 129.257805 
L 187.793409 129.257805 
z
" style="fill:#666666;fill-opacity:0.675;"/>
   </g>
   <g id="PolyCollection_69">
    <path clip-path="url(#pcb4c9a2217)" d="M 189.315227 125.34127 
L 189.315227 170.28 
L 190.837045 170.28 
L 190.837045 125.34127 
L 190.837045 125.34127 
L 189.315227 125.34127 
z
" style="fill:#666666;fill-opacity:0.685;"/>
   </g>
   <g id="PolyCollection_70">
    <path clip-path="url(#pcb4c9a2217)" d="M 190.837045 121.003434 
L 190.837045 170.28 
L 192.358864 170.28 
L 192.358864 121.003434 
L 192.358864 121.003434 
L 190.837045 121.003434 
z
" style="fill:#666666;fill-opacity:0.695;"/>
   </g>
   <g id="PolyCollection_71">
    <path clip-path="url(#pcb4c9a2217)" d="M 192.358864 116.702007 
L 192.358864 170.28 
L 193.880682 170.28 
L 193.880682 116.702007 
L 193.880682 116.702007 
L 192.358864 116.702007 
z
" style="fill:#666666;fill-opacity:0.705;"/>
   </g>
   <g id="PolyCollection_72">
    <path clip-path="url(#pcb4c9a2217)" d="M 193.880682 111.927267 
L 193.880682 170.28 
L 195.4025 170.28 
L 195.4025 111.927267 
L 195.4025 111.927267 
L 193.880682 111.927267 
z
" style="fill:#666666;fill-opacity:0.715;"/>
   </g>
   <g id="PolyCollection_73">
    <path clip-path="url(#pcb4c9a2217)" d="M 195.4025 106.299523 
L 195.4025 170.28 
L 196.924318 170.28 
L 196.924318 106.299523 
L 196.924318 106.299523 
L 195.4025 106.299523 
z
" style="fill:#666666;fill-opacity:0.725;"/>
   </g>
   <g id="PolyCollection_74">
    <path clip-path="url(#pcb4c9a2217)" d="M 196.924318 102.247755 
L 196.924318 170.28 
L 198.446136 170.28 
L 198.446136 102.247755 
L 198.446136 102.247755 
L 196.924318 102.247755 
z
" style="fill:#666666;fill-opacity:0.735;"/>
   </g>
   <g id="PolyCollection_75">
    <path clip-path="url(#pcb4c9a2217)" d="M 198.446136 96.916482 
L 198.446136 170.28 
L 199.967955 170.28 
L 199.967955 96.916482 
L 199.967955 96.916482 
L 198.446136 96.916482 
z
" style="fill:#666666;fill-opacity:0.745;"/>
   </g>
   <g id="PolyCollection_76">
    <path clip-path="url(#pcb4c9a2217)" d="M 199.967955 91.616417 
L 199.967955 170.28 
L 201.489773 170.28 
L 201.489773 91.616417 
L 201.489773 91.616417 
L 199.967955 91.616417 
z
" style="fill:#666666;fill-opacity:0.755;"/>
   </g>
   <g id="PolyCollection_77">
    <path clip-path="url(#pcb4c9a2217)" d="M 201.489773 84.007 
L 201.489773 170.28 
L 203.011591 170.28 
L 203.011591 84.007 
L 203.011591 84.007 
L 201.489773 84.007 
z
" style="fill:#666666;fill-opacity:0.765;"/>
   </g>
   <g id="PolyCollection_78">
    <path clip-path="url(#pcb4c9a2217)" d="M 203.011591 77.817522 
L 203.011591 170.28 
L 204.533409 170.28 
L 204.533409 77.817522 
L 204.533409 77.817522 
L 203.011591 77.817522 
z
" style="fill:#666666;fill-opacity:0.775;"/>
   </g>
   <g id="PolyCollection_79">
    <path clip-path="url(#pcb4c9a2217)" d="M 204.533409 73.282039 
L 204.533409 170.28 
L 206.055227 170.28 
L 206.055227 73.282039 
L 206.055227 73.282039 
L 204.533409 73.282039 
z
" style="fill:#666666;fill-opacity:0.785;"/>
   </g>
   <g id="PolyCollection_80">
    <path clip-path="url(#pcb4c9a2217)" d="M 206.055227 65.157699 
L 206.055227 170.28 
L 207.577045 170.28 
L 207.577045 65.157699 
L 207.577045 65.157699 
L 206.055227 65.157699 
z
" style="fill:#666666;fill-opacity:0.795;"/>
   </g>
   <g id="PolyCollection_81">
    <path clip-path="url(#pcb4c9a2217)" d="M 207.577045 58.401286 
L 207.577045 170.28 
L 209.098864 170.28 
L 209.098864 58.401286 
L 209.098864 58.401286 
L 207.577045 58.401286 
z
" style="fill:#666666;fill-opacity:0.805;"/>
   </g>
   <g id="PolyCollection_82">
    <path clip-path="url(#pcb4c9a2217)" d="M 209.098864 51.826916 
L 209.098864 170.28 
L 210.620682 170.28 
L 210.620682 51.826916 
L 210.620682 51.826916 
L 209.098864 51.826916 
z
" style="fill:#666666;fill-opacity:0.815;"/>
   </g>
   <g id="PolyCollection_83">
    <path clip-path="url(#pcb4c9a2217)" d="M 210.620682 44.482762 
L 210.620682 170.28 
L 212.1425 170.28 
L 212.1425 44.482762 
L 212.1425 44.482762 
L 210.620682 44.482762 
z
" style="fill:#666666;fill-opacity:0.825;"/>
   </g>
   <g id="PolyCollection_84">
    <path clip-path="url(#pcb4c9a2217)" d="M 212.1425 39.28152 
L 212.1425 170.28 
L 213.664318 170.28 
L 213.664318 39.28152 
L 213.664318 39.28152 
L 212.1425 39.28152 
z
" style="fill:#666666;fill-opacity:0.835;"/>
   </g>
   <g id="PolyCollection_85">
    <path clip-path="url(#pcb4c9a2217)" d="M 213.664318 34.75644 
L 213.664318 170.28 
L 215.186136 170.28 
L 215.186136 34.75644 
L 215.186136 34.75644 
L 213.664318 34.75644 
z
" style="fill:#666666;fill-opacity:0.845;"/>
   </g>
   <g id="PolyCollection_86">
    <path clip-path="url(#pcb4c9a2217)" d="M 215.186136 29.742443 
L 215.186136 170.28 
L 216.707955 170.28 
L 216.707955 29.742443 
L 216.707955 29.742443 
L 215.186136 29.742443 
z
" style="fill:#666666;fill-opacity:0.855;"/>
   </g>
   <g id="PolyCollection_87">
    <path clip-path="url(#pcb4c9a2217)" d="M 216.707955 22.824791 
L 216.707955 170.28 
L 218.229773 170.28 
L 218.229773 22.824791 
L 218.229773 22.824791 
L 216.707955 22.824791 
z
" style="fill:#666666;fill-opacity:0.865;"/>
   </g>
   <g id="PolyCollection_88">
    <path clip-path="url(#pcb4c9a2217)" d="M 218.229773 22.221447 
L 218.229773 170.28 
L 219.751591 170.28 
L 219.751591 22.221447 
L 219.751591 22.221447 
L 218.229773 22.221447 
z
" style="fill:#666666;fill-opacity:0.875;"/>
   </g>
   <g id="PolyCollection_89">
    <path clip-path="url(#pcb4c9a2217)" d="M 219.751591 16.754942 
L 219.751591 170.28 
L 221.273409 170.28 
L 221.273409 16.754942 
L 221.273409 16.754942 
L 219.751591 16.754942 
z
" style="fill:#666666;fill-opacity:0.885;"/>
   </g>
   <g id="PolyCollection_90">
    <path clip-path="url(#pcb4c9a2217)" d="M 221.273409 14.965714 
L 221.273409 170.28 
L 222.795227 170.28 
L 222.795227 14.965714 
L 222.795227 14.965714 
L 221.273409 14.965714 
z
" style="fill:#666666;fill-opacity:0.895;"/>
   </g>
   <g id="PolyCollection_91">
    <path clip-path="url(#pcb4c9a2217)" d="M 222.795227 15.792712 
L 222.795227 170.28 
L 224.317045 170.28 
L 224.317045 15.792712 
L 224.317045 15.792712 
L 222.795227 15.792712 
z
" style="fill:#666666;fill-opacity:0.905;"/>
   </g>
   <g id="PolyCollection_92">
    <path clip-path="url(#pcb4c9a2217)" d="M 224.317045 17.555933 
L 224.317045 170.28 
L 225.838864 170.28 
L 225.838864 17.555933 
L 225.838864 17.555933 
L 224.317045 17.555933 
z
" style="fill:#666666;fill-opacity:0.915;"/>
   </g>
   <g id="PolyCollection_93">
    <path clip-path="url(#pcb4c9a2217)" d="M 225.838864 21.420456 
L 225.838864 170.28 
L 227.360682 170.28 
L 227.360682 21.420456 
L 227.360682 21.420456 
L 225.838864 21.420456 
z
" style="fill:#666666;fill-opacity:0.925;"/>
   </g>
   <g id="PolyCollection_94">
    <path clip-path="url(#pcb4c9a2217)" d="M 227.360682 27.531915 
L 227.360682 170.28 
L 228.8825 170.28 
L 228.8825 27.531915 
L 228.8825 27.531915 
L 227.360682 27.531915 
z
" style="fill:#666666;fill-opacity:0.935;"/>
   </g>
   <g id="PolyCollection_95">
    <path clip-path="url(#pcb4c9a2217)" d="M 228.8825 37.331055 
L 228.8825 170.28 
L 230.404318 170.28 
L 230.404318 37.331055 
L 230.404318 37.331055 
L 228.8825 37.331055 
z
" style="fill:#666666;fill-opacity:0.945;"/>
   </g>
   <g id="PolyCollection_96">
    <path clip-path="url(#pcb4c9a2217)" d="M 230.404318 50.776265 
L 230.404318 170.28 
L 231.926136 170.28 
L 231.926136 50.776265 
L 231.926136 50.776265 
L 230.404318 50.776265 
z
" style="fill:#666666;fill-opacity:0.955;"/>
   </g>
   <g id="PolyCollection_97">
    <path clip-path="url(#pcb4c9a2217)" d="M 231.926136 66.842901 
L 231.926136 170.28 
L 233.447955 170.28 
L 233.447955 66.842901 
L 233.447955 66.842901 
L 231.926136 66.842901 
z
" style="fill:#666666;fill-opacity:0.965;"/>
   </g>
   <g id="PolyCollection_98">
    <path clip-path="url(#pcb4c9a2217)" d="M 233.447955 90.992268 
L 233.447955 170.28 
L 234.969773 170.28 
L 234.969773 90.992268 
L 234.969773 90.992268 
L 233.447955 90.992268 
z
" style="fill:#666666;fill-opacity:0.975;"/>
   </g>
   <g id="PolyCollection_99">
    <path clip-path="url(#pcb4c9a2217)" d="M 234.969773 118.569253 
L 234.969773 170.28 
L 236.491591 170.28 
L 236.491591 118.569253 
L 236.491591 118.569253 
L 234.969773 118.569253 
z
" style="fill:#666666;fill-opacity:0.985;"/>
   </g>
   <g id="PolyCollection_100">
    <path clip-path="url(#pcb4c9a2217)" d="M 236.491591 151.659554 
L 236.491591 170.28 
L 238.013409 170.28 
L 238.013409 151.659554 
L 238.013409 151.659554 
L 236.491591 151.659554 
z
" style="fill:#666666;fill-opacity:0.995;"/>
   </g>
   <g id="matplotlib.axis_1">
    <g id="xtick_1">
     <g id="line2d_1">
      <defs>
       <path d="M 0 0 
L 0 3.5 
" id="mbbbf00e6ae" style="stroke:#000000;stroke-width:0.8;"/>
      </defs>
      <g>
       <use style="stroke:#000000;stroke-width:0.8;" x="85.831591" xlink:href="#mbbbf00e6ae" y="170.28"/>
      </g>
     </g>
     <g id="text_1">
      <!-- 0.0 -->
      <defs>
       <path d="M 31.78125 66.40625 
Q 24.171875 66.40625 20.328125 58.90625 
Q 16.5 51.421875 16.5 36.375 
Q 16.5 21.390625 20.328125 13.890625 
Q 24.171875 6.390625 31.78125 6.390625 
Q 39.453125 6.390625 43.28125 13.890625 
Q 47.125 21.390625 47.125 36.375 
Q 47.125 51.421875 43.28125 58.90625 
Q 39.453125 66.40625 31.78125 66.40625 
z
M 31.78125 74.21875 
Q 44.046875 74.21875 50.515625 64.515625 
Q 56.984375 54.828125 56.984375 36.375 
Q 56.984375 17.96875 50.515625 8.265625 
Q 44.046875 -1.421875 31.78125 -1.421875 
Q 19.53125 -1.421875 13.0625 8.265625 
Q 6.59375 17.96875 6.59375 36.375 
Q 6.59375 54.828125 13.0625 64.515625 
Q 19.53125 74.21875 31.78125 74.21875 
z
" id="DejaVuSans-48"/>
       <path d="M 10.6875 12.40625 
L 21 12.40625 
L 21 0 
L 10.6875 0 
z
" id="DejaVuSans-46"/>
      </defs>
      <g transform="translate(74.699403 187.917813)scale(0.14 -0.14)">
       <use xlink:href="#DejaVuSans-48"/>
       <use x="63.623047" xlink:href="#DejaVuSans-46"/>
       <use x="95.410156" xlink:href="#DejaVuSans-48"/>
      </g>
     </g>
    </g>
    <g id="xtick_2">
     <g id="line2d_2">
      <g>
       <use style="stroke:#000000;stroke-width:0.8;" x="161.9225" xlink:href="#mbbbf00e6ae" y="170.28"/>
      </g>
     </g>
     <g id="text_2">
      <!-- 0.5 -->
      <defs>
       <path d="M 10.796875 72.90625 
L 49.515625 72.90625 
L 49.515625 64.59375 
L 19.828125 64.59375 
L 19.828125 46.734375 
Q 21.96875 47.46875 24.109375 47.828125 
Q 26.265625 48.1875 28.421875 48.1875 
Q 40.625 48.1875 47.75 41.5 
Q 54.890625 34.8125 54.890625 23.390625 
Q 54.890625 11.625 47.5625 5.09375 
Q 40.234375 -1.421875 26.90625 -1.421875 
Q 22.3125 -1.421875 17.546875 -0.640625 
Q 12.796875 0.140625 7.71875 1.703125 
L 7.71875 11.625 
Q 12.109375 9.234375 16.796875 8.0625 
Q 21.484375 6.890625 26.703125 6.890625 
Q 35.15625 6.890625 40.078125 11.328125 
Q 45.015625 15.765625 45.015625 23.390625 
Q 45.015625 31 40.078125 35.4375 
Q 35.15625 39.890625 26.703125 39.890625 
Q 22.75 39.890625 18.8125 39.015625 
Q 14.890625 38.140625 10.796875 36.28125 
z
" id="DejaVuSans-53"/>
      </defs>
      <g transform="translate(150.790313 187.917813)scale(0.14 -0.14)">
       <use xlink:href="#DejaVuSans-48"/>
       <use x="63.623047" xlink:href="#DejaVuSans-46"/>
       <use x="95.410156" xlink:href="#DejaVuSans-53"/>
      </g>
     </g>
    </g>
    <g id="xtick_3">
     <g id="line2d_3">
      <g>
       <use style="stroke:#000000;stroke-width:0.8;" x="238.013409" xlink:href="#mbbbf00e6ae" y="170.28"/>
      </g>
     </g>
     <g id="text_3">
      <!-- 1.0 -->
      <defs>
       <path d="M 12.40625 8.296875 
L 28.515625 8.296875 
L 28.515625 63.921875 
L 10.984375 60.40625 
L 10.984375 69.390625 
L 28.421875 72.90625 
L 38.28125 72.90625 
L 38.28125 8.296875 
L 54.390625 8.296875 
L 54.390625 0 
L 12.40625 0 
z
" id="DejaVuSans-49"/>
      </defs>
      <g transform="translate(226.881222 187.917813)scale(0.14 -0.14)">
       <use xlink:href="#DejaVuSans-49"/>
       <use x="63.623047" xlink:href="#DejaVuSans-46"/>
       <use x="95.410156" xlink:href="#DejaVuSans-48"/>
      </g>
     </g>
    </g>
    <g id="text_4">
     <!-- $C(X)$ -->
     <defs>
      <path d="M 69.484375 67.28125 
L 67.484375 56.890625 
Q 62.796875 61.625 57.546875 63.921875 
Q 52.296875 66.21875 46.1875 66.21875 
Q 37.84375 66.21875 31.515625 62.203125 
Q 25.203125 58.203125 20.609375 50 
Q 17.671875 44.734375 16.125 38.84375 
Q 14.59375 32.953125 14.59375 27 
Q 14.59375 17.046875 19.75 11.8125 
Q 24.90625 6.59375 34.71875 6.59375 
Q 41.5 6.59375 47.75 8.765625 
Q 54 10.9375 59.90625 15.28125 
L 57.625 3.609375 
Q 51.8125 1.125 45.875 -0.140625 
Q 39.9375 -1.421875 33.984375 -1.421875 
Q 19.96875 -1.421875 12.078125 6.1875 
Q 4.203125 13.8125 4.203125 27.390625 
Q 4.203125 36.078125 7.203125 44.46875 
Q 10.203125 52.875 15.828125 59.8125 
Q 21.78125 67.1875 29.421875 70.703125 
Q 37.0625 74.21875 47.21875 74.21875 
Q 53.46875 74.21875 59.0625 72.484375 
Q 64.65625 70.75 69.484375 67.28125 
z
" id="DejaVuSans-Oblique-67"/>
      <path d="M 31 75.875 
Q 24.46875 64.65625 21.28125 53.65625 
Q 18.109375 42.671875 18.109375 31.390625 
Q 18.109375 20.125 21.3125 9.0625 
Q 24.515625 -2 31 -13.1875 
L 23.1875 -13.1875 
Q 15.875 -1.703125 12.234375 9.375 
Q 8.59375 20.453125 8.59375 31.390625 
Q 8.59375 42.28125 12.203125 53.3125 
Q 15.828125 64.359375 23.1875 75.875 
z
" id="DejaVuSans-40"/>
      <path d="M 13.71875 72.90625 
L 23.6875 72.90625 
L 36.1875 46.578125 
L 58.796875 72.90625 
L 70.3125 72.90625 
L 40.28125 38.09375 
L 58.40625 0 
L 48.484375 0 
L 33.796875 30.71875 
L 7.171875 0 
L -4.296875 0 
L 29.78125 39.203125 
z
" id="DejaVuSans-Oblique-88"/>
      <path d="M 8.015625 75.875 
L 15.828125 75.875 
Q 23.140625 64.359375 26.78125 53.3125 
Q 30.421875 42.28125 30.421875 31.390625 
Q 30.421875 20.453125 26.78125 9.375 
Q 23.140625 -1.703125 15.828125 -13.1875 
L 8.015625 -13.1875 
Q 14.5 -2 17.703125 9.0625 
Q 20.90625 20.125 20.90625 31.390625 
Q 20.90625 42.671875 17.703125 53.65625 
Q 14.5 64.65625 8.015625 75.875 
z
" id="DejaVuSans-41"/>
     </defs>
     <g transform="translate(144.5625 206.986875)scale(0.16 -0.16)">
      <use transform="translate(0 0.125)" xlink:href="#DejaVuSans-Oblique-67"/>
      <use transform="translate(69.824219 0.125)" xlink:href="#DejaVuSans-40"/>
      <use transform="translate(108.837891 0.125)" xlink:href="#DejaVuSans-Oblique-88"/>
      <use transform="translate(177.34375 0.125)" xlink:href="#DejaVuSans-41"/>
     </g>
    </g>
   </g>
   <g id="matplotlib.axis_2">
    <g id="ytick_1">
     <g id="line2d_4">
      <defs>
       <path d="M 0 0 
L -3.5 0 
" id="ma19c9bb514" style="stroke:#000000;stroke-width:0.8;"/>
      </defs>
      <g>
       <use style="stroke:#000000;stroke-width:0.8;" x="78.2225" xlink:href="#ma19c9bb514" y="170.28"/>
      </g>
     </g>
     <g id="text_5">
      <!-- 0 -->
      <g transform="translate(62.315 175.598906)scale(0.14 -0.14)">
       <use xlink:href="#DejaVuSans-48"/>
      </g>
     </g>
    </g>
    <g id="ytick_2">
     <g id="line2d_5">
      <g>
       <use style="stroke:#000000;stroke-width:0.8;" x="78.2225" xlink:href="#ma19c9bb514" y="118.267581"/>
      </g>
     </g>
     <g id="text_6">
      <!-- 10000 -->
      <g transform="translate(26.685 123.586487)scale(0.14 -0.14)">
       <use xlink:href="#DejaVuSans-49"/>
       <use x="63.623047" xlink:href="#DejaVuSans-48"/>
       <use x="127.246094" xlink:href="#DejaVuSans-48"/>
       <use x="190.869141" xlink:href="#DejaVuSans-48"/>
       <use x="254.492188" xlink:href="#DejaVuSans-48"/>
      </g>
     </g>
    </g>
    <g id="ytick_3">
     <g id="line2d_6">
      <g>
       <use style="stroke:#000000;stroke-width:0.8;" x="78.2225" xlink:href="#ma19c9bb514" y="66.255161"/>
      </g>
     </g>
     <g id="text_7">
      <!-- 20000 -->
      <defs>
       <path d="M 19.1875 8.296875 
L 53.609375 8.296875 
L 53.609375 0 
L 7.328125 0 
L 7.328125 8.296875 
Q 12.9375 14.109375 22.625 23.890625 
Q 32.328125 33.6875 34.8125 36.53125 
Q 39.546875 41.84375 41.421875 45.53125 
Q 43.3125 49.21875 43.3125 52.78125 
Q 43.3125 58.59375 39.234375 62.25 
Q 35.15625 65.921875 28.609375 65.921875 
Q 23.96875 65.921875 18.8125 64.3125 
Q 13.671875 62.703125 7.8125 59.421875 
L 7.8125 69.390625 
Q 13.765625 71.78125 18.9375 73 
Q 24.125 74.21875 28.421875 74.21875 
Q 39.75 74.21875 46.484375 68.546875 
Q 53.21875 62.890625 53.21875 53.421875 
Q 53.21875 48.921875 51.53125 44.890625 
Q 49.859375 40.875 45.40625 35.40625 
Q 44.1875 33.984375 37.640625 27.21875 
Q 31.109375 20.453125 19.1875 8.296875 
z
" id="DejaVuSans-50"/>
      </defs>
      <g transform="translate(26.685 71.574067)scale(0.14 -0.14)">
       <use xlink:href="#DejaVuSans-50"/>
       <use x="63.623047" xlink:href="#DejaVuSans-48"/>
       <use x="127.246094" xlink:href="#DejaVuSans-48"/>
       <use x="190.869141" xlink:href="#DejaVuSans-48"/>
       <use x="254.492188" xlink:href="#DejaVuSans-48"/>
      </g>
     </g>
    </g>
    <g id="ytick_4">
     <g id="line2d_7">
      <g>
       <use style="stroke:#000000;stroke-width:0.8;" x="78.2225" xlink:href="#ma19c9bb514" y="14.242742"/>
      </g>
     </g>
     <g id="text_8">
      <!-- 30000 -->
      <defs>
       <path d="M 40.578125 39.3125 
Q 47.65625 37.796875 51.625 33 
Q 55.609375 28.21875 55.609375 21.1875 
Q 55.609375 10.40625 48.1875 4.484375 
Q 40.765625 -1.421875 27.09375 -1.421875 
Q 22.515625 -1.421875 17.65625 -0.515625 
Q 12.796875 0.390625 7.625 2.203125 
L 7.625 11.71875 
Q 11.71875 9.328125 16.59375 8.109375 
Q 21.484375 6.890625 26.8125 6.890625 
Q 36.078125 6.890625 40.9375 10.546875 
Q 45.796875 14.203125 45.796875 21.1875 
Q 45.796875 27.640625 41.28125 31.265625 
Q 36.765625 34.90625 28.71875 34.90625 
L 20.21875 34.90625 
L 20.21875 43.015625 
L 29.109375 43.015625 
Q 36.375 43.015625 40.234375 45.921875 
Q 44.09375 48.828125 44.09375 54.296875 
Q 44.09375 59.90625 40.109375 62.90625 
Q 36.140625 65.921875 28.71875 65.921875 
Q 24.65625 65.921875 20.015625 65.03125 
Q 15.375 64.15625 9.8125 62.3125 
L 9.8125 71.09375 
Q 15.4375 72.65625 20.34375 73.4375 
Q 25.25 74.21875 29.59375 74.21875 
Q 40.828125 74.21875 47.359375 69.109375 
Q 53.90625 64.015625 53.90625 55.328125 
Q 53.90625 49.265625 50.4375 45.09375 
Q 46.96875 40.921875 40.578125 39.3125 
z
" id="DejaVuSans-51"/>
      </defs>
      <g transform="translate(26.685 19.561648)scale(0.14 -0.14)">
       <use xlink:href="#DejaVuSans-51"/>
       <use x="63.623047" xlink:href="#DejaVuSans-48"/>
       <use x="127.246094" xlink:href="#DejaVuSans-48"/>
       <use x="190.869141" xlink:href="#DejaVuSans-48"/>
       <use x="254.492188" xlink:href="#DejaVuSans-48"/>
      </g>
     </g>
    </g>
    <g id="text_9">
     <!-- freq -->
     <defs>
      <path d="M 37.109375 75.984375 
L 37.109375 68.5 
L 28.515625 68.5 
Q 23.6875 68.5 21.796875 66.546875 
Q 19.921875 64.59375 19.921875 59.515625 
L 19.921875 54.6875 
L 34.71875 54.6875 
L 34.71875 47.703125 
L 19.921875 47.703125 
L 19.921875 0 
L 10.890625 0 
L 10.890625 47.703125 
L 2.296875 47.703125 
L 2.296875 54.6875 
L 10.890625 54.6875 
L 10.890625 58.5 
Q 10.890625 67.625 15.140625 71.796875 
Q 19.390625 75.984375 28.609375 75.984375 
z
" id="DejaVuSans-102"/>
      <path d="M 41.109375 46.296875 
Q 39.59375 47.171875 37.8125 47.578125 
Q 36.03125 48 33.890625 48 
Q 26.265625 48 22.1875 43.046875 
Q 18.109375 38.09375 18.109375 28.8125 
L 18.109375 0 
L 9.078125 0 
L 9.078125 54.6875 
L 18.109375 54.6875 
L 18.109375 46.1875 
Q 20.953125 51.171875 25.484375 53.578125 
Q 30.03125 56 36.53125 56 
Q 37.453125 56 38.578125 55.875 
Q 39.703125 55.765625 41.0625 55.515625 
z
" id="DejaVuSans-114"/>
      <path d="M 56.203125 29.59375 
L 56.203125 25.203125 
L 14.890625 25.203125 
Q 15.484375 15.921875 20.484375 11.0625 
Q 25.484375 6.203125 34.421875 6.203125 
Q 39.59375 6.203125 44.453125 7.46875 
Q 49.3125 8.734375 54.109375 11.28125 
L 54.109375 2.78125 
Q 49.265625 0.734375 44.1875 -0.34375 
Q 39.109375 -1.421875 33.890625 -1.421875 
Q 20.796875 -1.421875 13.15625 6.1875 
Q 5.515625 13.8125 5.515625 26.8125 
Q 5.515625 40.234375 12.765625 48.109375 
Q 20.015625 56 32.328125 56 
Q 43.359375 56 49.78125 48.890625 
Q 56.203125 41.796875 56.203125 29.59375 
z
M 47.21875 32.234375 
Q 47.125 39.59375 43.09375 43.984375 
Q 39.0625 48.390625 32.421875 48.390625 
Q 24.90625 48.390625 20.390625 44.140625 
Q 15.875 39.890625 15.1875 32.171875 
z
" id="DejaVuSans-101"/>
      <path d="M 14.796875 27.296875 
Q 14.796875 17.390625 18.875 11.75 
Q 22.953125 6.109375 30.078125 6.109375 
Q 37.203125 6.109375 41.296875 11.75 
Q 45.40625 17.390625 45.40625 27.296875 
Q 45.40625 37.203125 41.296875 42.84375 
Q 37.203125 48.484375 30.078125 48.484375 
Q 22.953125 48.484375 18.875 42.84375 
Q 14.796875 37.203125 14.796875 27.296875 
z
M 45.40625 8.203125 
Q 42.578125 3.328125 38.25 0.953125 
Q 33.9375 -1.421875 27.875 -1.421875 
Q 17.96875 -1.421875 11.734375 6.484375 
Q 5.515625 14.40625 5.515625 27.296875 
Q 5.515625 40.1875 11.734375 48.09375 
Q 17.96875 56 27.875 56 
Q 33.9375 56 38.25 53.625 
Q 42.578125 51.265625 45.40625 46.390625 
L 45.40625 54.6875 
L 54.390625 54.6875 
L 54.390625 -20.796875 
L 45.40625 -20.796875 
z
" id="DejaVuSans-113"/>
     </defs>
     <g transform="translate(19.3575 104.84375)rotate(-90)scale(0.16 -0.16)">
      <use xlink:href="#DejaVuSans-102"/>
      <use x="35.205078" xlink:href="#DejaVuSans-114"/>
      <use x="76.287109" xlink:href="#DejaVuSans-101"/>
      <use x="137.810547" xlink:href="#DejaVuSans-113"/>
     </g>
    </g>
   </g>
   <g id="patch_3">
    <path d="M 78.2225 170.28 
L 78.2225 7.2 
" style="fill:none;stroke:#000000;stroke-linecap:square;stroke-linejoin:miter;stroke-width:0.8;"/>
   </g>
   <g id="patch_4">
    <path d="M 78.2225 170.28 
L 245.6225 170.28 
" style="fill:none;stroke:#000000;stroke-linecap:square;stroke-linejoin:miter;stroke-width:0.8;"/>
   </g>
   <g id="line2d_8">
    <path clip-path="url(#pcb4c9a2217)" d="M 86.5925 167.913435 
L 88.114318 163.679624 
L 89.636136 159.487423 
L 91.157955 156.080609 
L 92.679773 152.710205 
L 94.201591 150.406055 
L 95.723409 146.759984 
L 97.245227 144.544255 
L 98.767045 142.526173 
L 100.288864 140.404066 
L 101.810682 138.318368 
L 103.3325 137.272919 
L 104.854318 135.275642 
L 106.376136 135.104001 
L 107.897955 133.923319 
L 109.419773 133.897313 
L 110.941591 133.590439 
L 112.463409 132.92468 
L 113.985227 132.258921 
L 115.507045 132.186104 
L 117.028864 130.969013 
L 118.550682 131.681584 
L 120.0725 131.967652 
L 121.594318 133.039108 
L 123.116136 132.300531 
L 124.637955 133.397993 
L 126.159773 133.990935 
L 127.681591 134.687901 
L 129.203409 135.358862 
L 130.725227 136.081834 
L 132.247045 137.428956 
L 133.768864 138.750071 
L 135.290682 138.594034 
L 136.8125 139.769515 
L 138.334318 139.727905 
L 139.856136 141.246667 
L 141.377955 143.202334 
L 142.899773 143.0567 
L 144.421591 144.549456 
L 145.943409 144.643078 
L 147.465227 146.416702 
L 148.987045 146.718374 
L 150.508864 147.758622 
L 152.030682 148.330759 
L 153.5525 149.25658 
L 155.074318 149.714289 
L 156.596136 151.025002 
L 158.117955 150.380048 
L 159.639773 151.071813 
L 161.161591 150.998996 
L 162.683409 151.47751 
L 164.205227 151.956025 
L 165.727045 151.72717 
L 167.248864 151.784384 
L 168.770682 151.524322 
L 170.2925 150.884569 
L 171.814318 150.458067 
L 173.336136 149.901534 
L 174.857955 148.554412 
L 176.379773 147.91466 
L 177.901591 145.802955 
L 179.423409 144.294595 
L 180.945227 142.182891 
L 182.467045 140.773354 
L 183.988864 138.063507 
L 185.510682 135.842577 
L 187.0325 132.929882 
L 188.554318 129.257805 
L 190.076136 125.34127 
L 191.597955 121.003434 
L 193.119773 116.702007 
L 194.641591 111.927267 
L 196.163409 106.299523 
L 197.685227 102.247755 
L 199.207045 96.916482 
L 200.728864 91.616417 
L 202.250682 84.007 
L 203.7725 77.817522 
L 205.294318 73.282039 
L 206.816136 65.157699 
L 208.337955 58.401286 
L 209.859773 51.826916 
L 211.381591 44.482762 
L 212.903409 39.28152 
L 214.425227 34.75644 
L 215.947045 29.742443 
L 217.468864 22.824791 
L 218.990682 22.221447 
L 220.5125 16.754942 
L 222.034318 14.965714 
L 223.556136 15.792712 
L 225.077955 17.555933 
L 226.599773 21.420456 
L 228.121591 27.531915 
L 229.643409 37.331055 
L 231.165227 50.776265 
L 232.687045 66.842901 
L 234.208864 90.992268 
L 235.730682 118.569253 
L 237.2525 151.659554 
" style="fill:none;stroke:#666666;stroke-linecap:square;stroke-width:2;"/>
   </g>
  </g>
 </g>
 <defs>
  <clipPath id="pcb4c9a2217">
   <rect height="163.08" width="167.4" x="78.2225" y="7.2"/>
  </clipPath>
 </defs>
</svg>
